<svg xmlns="http://www.w3.org/2000/svg" viewBox="0 0 294.51 127.83"><defs><style>.cls-1,.cls-3,.cls-4,.cls-6,.cls-8{fill:none;}.cls-1{stroke:#b6bdc3;}.cls-1,.cls-3,.cls-4,.cls-8{stroke-miterlimit:10;}.cls-1,.cls-4,.cls-8{stroke-width:4.76px;}.cls-2{fill:#027cc3;}.cls-3{stroke:#3d434a;stroke-width:2.38px;}.cls-4{stroke:#fff;}.cls-5{fill:#dd413b;}.cls-7{fill:#fff;}.cls-8{stroke:#000;}</style></defs><g id="Layer_2" data-name="Layer 2"><g id="Layer_1-2" data-name="Layer 1"><polygon class="cls-1" points="292.13 93.74 275.09 110.79 19.42 110.79 2.38 93.74 2.38 34.09 19.42 17.04 275.09 17.04 292.13 34.09 292.13 93.74"/><polygon points="283.61 110.79 266.57 127.83 27.95 127.83 10.9 110.79 10.9 17.04 27.95 0 266.57 0 283.61 17.04 283.61 110.79"/><polygon class="cls-2" points="36.47 0 27.95 8.52 27.95 119.31 36.47 127.83 258.04 127.83 266.57 119.31 266.57 8.52 258.04 0 36.47 0"/><polygon class="cls-3" points="38.23 123.57 32.21 117.54 32.21 10.29 38.23 4.26 256.28 4.26 262.31 10.29 262.31 117.54 256.28 123.57 38.23 123.57"/><polyline class="cls-4" points="248.12 7.45 256.64 7.45 256.64 15.97"/><line class="cls-4" x1="248.12" y1="15.97" x2="256.64" y2="7.45"/><polygon class="cls-5" points="9.84 34.09 9.84 93.74 18.36 85.22 18.36 42.61 9.84 34.09"/><polygon class="cls-5" points="284.68 34.09 284.68 93.74 276.15 85.22 276.15 42.61 284.68 34.09"/><rect class="cls-6" x="10.9" y="17.04" width="4.26" height="4.26"/><circle class="cls-7" cx="13.03" cy="19.17" r="0.53"/><rect class="cls-6" x="10.9" y="106.52" width="4.26" height="4.26"/><circle class="cls-7" cx="13.03" cy="108.66" r="0.53"/><rect class="cls-6" x="279.35" y="17.04" width="4.26" height="4.26"/><circle class="cls-7" cx="281.48" cy="19.17" r="0.53"/><rect class="cls-6" x="279.35" y="106.52" width="4.26" height="4.26"/><circle class="cls-7" cx="281.48" cy="108.66" r="0.53"/><polyline class="cls-8" points="43.99 36.56 43.99 32.3 54.75 32.3"/><polyline class="cls-8" points="251.64 36.56 251.64 32.3 240.88 32.3"/><polyline class="cls-8" points="43.99 108.26 43.99 112.52 54.75 112.52"/><polyline class="cls-8" points="251.64 108.26 251.64 112.52 240.88 112.52"/><polygon points="253.78 105.96 41.08 105.96 41.08 42.61 240.77 42.61 253.78 56.28 253.78 105.96"/></g></g></svg>