<?xml version="1.0" encoding="utf-8"?>
<!-- Generator: Adobe Illustrator 24.1.1, SVG Export Plug-In . SVG Version: 6.00 Build 0)  -->
<svg version="1.1" id="Layer_1" xmlns="http://www.w3.org/2000/svg" xmlns:xlink="http://www.w3.org/1999/xlink" x="0px" y="0px"
	 viewBox="0 0 412.9 113.3" style="enable-background:new 0 0 412.9 113.3;" xml:space="preserve">
<style type="text/css">
	.st0{opacity:0.71;}
	.st1{fill:#FE0000;}
	.st2{enable-background:new    ;}
	.st3{fill:#FFFFFF;}
</style>
<g>
	<g>
		<g class="st0">
			<polygon class="st1" points="5.6,21.6 23.1,5.2 141.7,5.2 157.7,20.2 329.3,20.2 338.3,28.6 411.5,28.6 411.5,95 386,95 
				372.1,108.1 24.2,108.1 5.8,90.9 			"/>
		</g>
		<g>
			<g>
				<polygon class="st1" points="176.2,0.2 166.2,9.5 180.3,9.5 190.3,0.2 				"/>
			</g>
			<g>
				<polygon class="st1" points="204.4,0.2 194.4,9.5 208.5,9.5 218.5,0.2 				"/>
			</g>
			<g>
				<polygon class="st1" points="260.8,0.2 250.8,9.5 264.9,9.5 274.9,0.2 				"/>
			</g>
			<g>
				<polygon class="st1" points="232.6,0.2 222.6,9.5 236.7,9.5 246.7,0.2 				"/>
			</g>
		</g>
		<g>
			<path class="st1" d="M372.7,109.4H23.6L4.5,91.5V91L4.2,21.2L22.5,4h119.7l16,15h171.7l9,8.5h74v69h-26.3L372.7,109.4z
				 M24.7,106.8h346.8l13.9-13h24.7V29.9h-72.4l-9-8.5H157.1l-16-15H23.7L7,22.1l0.3,68.3L24.7,106.8z"/>
		</g>
		<g>
			<polygon class="st1" points="411.5,16.4 347.5,16.4 337,6.6 283.2,6.6 283.2,4.1 338.1,4.1 348.6,13.9 411.5,13.9 			"/>
		</g>
		<g>
			<polygon class="st1" points="53,113.3 21.8,113.3 1.9,94.6 9.8,87.2 26.5,102.9 53,102.9 			"/>
		</g>
		<g>
			<polygon class="st1" points="374.4,113.3 220.4,113.3 220.4,102.9 369.8,102.9 383.7,89.8 411,89.8 411,100.3 388.3,100.3 			"/>
		</g>
		<g>
			<polygon class="st1" points="0.1,41.1 0,19.5 20.8,0 141.7,0 141.7,10.4 25.4,10.4 11.2,23.8 11.2,41.1 			"/>
		</g>
	</g>
	<g>
		<g class="st2">
			<path class="st3" d="M37.2,76.7v-33l10.6,12v12h10.6l2.7-3h8v9l-2.7,3H37.2z M61.1,55.7l-2.7-3H47.9l-8-9h26.5l2.7,3v9H61.1z"/>
			<path class="st3" d="M71.7,76.7v-30l2.7-3h29.2v30l-2.7,3H71.7z M95.6,67.7v-15H79.7v15H95.6z"/>
			<path class="st3" d="M106.2,76.7v-30l2.7-3H138v30l-2.7,3H106.2z M130.1,67.7v-15h-15.9v15H130.1z"/>
			<path class="st3" d="M140.7,76.7v-33h10.6v21L140.7,76.7z M143.3,76.7l8-9h10.6l2.7-3h8v9l-2.7,3H143.3z"/>
			<path class="st3" d="M180.5,76.7l-2.7-3v-30h8l2.7,3v30H180.5z"/>
			<path class="st3" d="M193.7,76.7l-2.7-3v-30h8l15.9,18v-3l-2.7-3v-9l2.7-3h8v30l-2.7,3H215l-15.9-18v3l2.7,3v12H193.7z"/>
			<path class="st3" d="M225.6,76.7v-33l10.6,12v12h10.6l2.7-3h-5.3v-6h13.3v15l-2.7,3H225.6z M249.4,55.7l-2.7-3h-10.6l-8-9h26.5
				l2.7,3v9H249.4z"/>
			<path class="st3" d="M276,76.7v-30l2.7-3h29.2v30l-2.7,3H276z M299.8,67.7v-15h-15.9v15H299.8z"/>
			<path class="st3" d="M313.1,76.7l-2.7-3v-30h8l15.9,18v-3l-2.7-3v-9l2.7-3h8v30l-2.7,3h-5.3l-15.9-18v3l2.7,3v12H313.1z"/>
			<path class="st3" d="M344.9,76.7v-33l10.6,12h13.3l-2.7-3h-10.6l-8-9h26.5l2.7,3v15h-21.2v6h10.6l2.7-3h8v9l-2.7,3H344.9z"/>
		</g>
	</g>
</g>
</svg>
