<?xml version="1.0" encoding="utf-8"?>
<!-- Generator: Adobe Illustrator 24.1.1, SVG Export Plug-In . SVG Version: 6.00 Build 0)  -->
<svg version="1.1" id="Layer_1" xmlns="http://www.w3.org/2000/svg" xmlns:xlink="http://www.w3.org/1999/xlink" x="0px" y="0px"
	 viewBox="0 0 428.3 113.3" style="enable-background:new 0 0 428.3 113.3;" xml:space="preserve">
<style type="text/css">
	.st0{opacity:0.71;}
	.st1{fill:#FF0000;}
	.st2{enable-background:new    ;}
	.st3{fill:#FFFFFF;}
</style>
<g>
	<g>
		<g class="st0">
			<polygon class="st1" points="5.8,21.6 24,5.2 146.9,5.2 163.5,20.2 341.6,20.2 351,28.6 426.9,28.6 426.9,95 400.4,95 386,108.1 
				25,108.1 6,90.9 			"/>
		</g>
		<g>
			<g>
				<polygon class="st1" points="182.7,0.1 172.4,9.5 187,9.5 197.4,0.1 				"/>
			</g>
			<g>
				<polygon class="st1" points="212,0.1 201.7,9.5 216.3,9.5 226.6,0.1 				"/>
			</g>
			<g>
				<polygon class="st1" points="270.5,0.1 260.2,9.5 274.8,9.5 285.1,0.1 				"/>
			</g>
			<g>
				<polygon class="st1" points="241.3,0.1 230.9,9.5 245.5,9.5 255.9,0.1 				"/>
			</g>
		</g>
		<g>
			<path class="st1" d="M386.6,109.3H24.4L4.6,91.4v-0.5L4.3,21.1l19-17.2h124.2l16.6,15h178.1l9.4,8.5h76.7v69H401L386.6,109.3z
				 M25.6,106.8h359.8l14.4-13h25.6V29.9h-75l-9.4-8.5H162.9l-16.6-15H24.5L7.1,22.1l0.3,68.3L25.6,106.8z"/>
		</g>
		<g>
			<polygon class="st1" points="426.9,16.4 360.4,16.4 349.6,6.6 293.7,6.6 293.7,4.1 350.7,4.1 361.6,13.9 426.9,13.9 			"/>
		</g>
		<g>
			<polygon class="st1" points="55,113.3 22.6,113.3 2,94.6 10.1,87.2 27.4,102.8 55,102.8 			"/>
		</g>
		<g>
			<polygon class="st1" points="388.4,113.3 228.6,113.3 228.6,102.8 383.6,102.8 398,89.8 426.4,89.8 426.4,100.3 402.8,100.3 			
				"/>
		</g>
		<g>
			<polygon class="st1" points="0.1,41.1 0,19.5 21.6,0 146.9,0 146.9,10.4 26.4,10.4 11.6,23.8 11.6,41 			"/>
		</g>
	</g>
	<g>
		<g class="st2">
			<path class="st3" d="M31.5,74.7L29,71.8V45.9l2.5-2.9h7.6v11.5h12.7l-2.5-2.9v-8.6h7.6l2.5,2.9v25.9l-2.5,2.9h-7.6V63.2H36.6
				l2.5,2.9v8.6H31.5z"/>
			<path class="st3" d="M62,74.7V45.9l2.5-2.9h28v28.8L90,74.7H62z M84.9,66.1V51.7H69.6v14.4H84.9z"/>
			<path class="st3" d="M97.6,74.7L95,71.8V43.1h7.6l8.9,10.1l8.9-10.1h7.6v28.8l-2.5,2.9h-7.6V63.2l2.5-2.9v-2.9l-8.9,10.1
				l-8.9-10.1v2.9l2.5,2.9v11.5H97.6z"/>
			<path class="st3" d="M130.6,74.7V45.9l2.5-2.9h28v28.8l-2.5,2.9H130.6z M153.5,66.1V51.7h-15.3v14.4H153.5z"/>
			<path class="st3" d="M163.7,74.7V43.1l10.2,11.5v11.5H184l2.5-2.9h-5.1v-5.8h12.7v14.4l-2.5,2.9H163.7z M186.5,54.6l-2.5-2.9
				h-10.2l-7.6-8.6h25.4l2.5,2.9v8.6H186.5z"/>
			<path class="st3" d="M196.7,74.7V43.1l10.2,11.5h12.7l-2.5-2.9h-10.2l-7.6-8.6h25.4l2.5,2.9v14.4h-20.3v5.8H217l2.5-2.9h7.6v8.6
				l-2.5,2.9H196.7z"/>
			<path class="st3" d="M232.3,74.7l-2.5-2.9V43.1h7.6l15.3,17.3v-2.9l-2.5-2.9v-8.6l2.5-2.9h7.6v28.8l-2.5,2.9h-5.1l-15.3-17.3v2.9
				l2.5,2.9v11.5H232.3z"/>
			<path class="st3" d="M265.3,74.7l-2.5-2.9V43.1h7.6l2.5,2.9v28.8H265.3z"/>
			<path class="st3" d="M278.1,51.7l-2.5-2.9v-5.8H306v8.6H278.1z M278.1,74.7l-2.5-2.9v-7.2l20.3-11.5H306V56l-17.8,10.1h15.3
				l2.5,2.9v5.8H278.1z"/>
			<path class="st3" d="M311.1,74.7l-2.5-2.9V43.1h7.6l2.5,2.9v28.8H311.1z"/>
			<path class="st3" d="M323.8,74.7l-2.5-2.9V43.1h7.6l15.3,17.3v-2.9l-2.5-2.9v-8.6l2.5-2.9h7.6v28.8l-2.5,2.9h-5.1l-15.3-17.3v2.9
				l2.5,2.9v11.5H323.8z"/>
			<path class="st3" d="M354.3,74.7V43.1l10.2,11.5v11.5h10.2l2.5-2.9h-5.1v-5.8h12.7v14.4l-2.5,2.9H354.3z M377.2,54.6l-2.5-2.9
				h-10.2l-7.6-8.6h25.4l2.5,2.9v8.6H377.2z"/>
		</g>
	</g>
</g>
</svg>
