<?xml version="1.0" encoding="utf-8"?>
<!-- Generator: Adobe Illustrator 24.1.1, SVG Export Plug-In . SVG Version: 6.00 Build 0)  -->
<svg version="1.1" id="Layer_1" xmlns="http://www.w3.org/2000/svg" xmlns:xlink="http://www.w3.org/1999/xlink" x="0px" y="0px"
	 viewBox="0 0 452.3 150.8" style="enable-background:new 0 0 452.3 150.8;" xml:space="preserve">
<style type="text/css">
	.st0{opacity:0.71;}
	.st1{fill:#FF0000;}
	.st2{enable-background:new    ;}
	.st3{fill:#FFFFFF;}
</style>
<g>
	<g>
		<g class="st0">
			<polygon class="st1" points="6.1,28.8 25.3,6.9 155.2,6.9 172.7,26.8 360.8,26.8 370.7,38.1 450.8,38.1 450.8,126.5 422.9,126.5 
				407.7,143.8 26.4,143.8 6.4,121 			"/>
		</g>
		<g>
			<g>
				<polygon class="st1" points="193,0.2 182.1,12.6 197.5,12.6 208.5,0.2 				"/>
			</g>
			<g>
				<polygon class="st1" points="223.9,0.2 213,12.6 228.4,12.6 239.4,0.2 				"/>
			</g>
			<g>
				<polygon class="st1" points="285.7,0.2 274.8,12.6 290.2,12.6 301.2,0.2 				"/>
			</g>
			<g>
				<polygon class="st1" points="254.8,0.2 243.9,12.6 259.3,12.6 270.3,0.2 				"/>
			</g>
		</g>
		<g>
			<path class="st1" d="M408.3,145.5H25.8L4.9,121.7V121L4.6,28.1L24.7,5.2h131.1l17.5,19.9h188.1l9.9,11.3h81v91.8h-28.8
				L408.3,145.5z M27.1,142.1h380l15.3-17.4h27v-85h-79.3l-9.9-11.3H172.1L154.6,8.5H25.9L7.6,29.4l0.3,90.8L27.1,142.1z"/>
		</g>
		<g>
			<polygon class="st1" points="450.8,21.8 380.7,21.8 369.2,8.8 310.2,8.8 310.2,5.4 370.4,5.4 381.9,18.5 450.8,18.5 			"/>
		</g>
		<g>
			<polygon class="st1" points="58.1,150.8 23.9,150.8 2.1,125.9 10.7,116.1 29,136.9 58.1,136.9 			"/>
		</g>
		<g>
			<polygon class="st1" points="410.2,150.8 241.5,150.8 241.5,136.9 405.1,136.9 420.4,119.5 450.3,119.5 450.3,133.4 425.5,133.4 
							"/>
		</g>
		<g>
			<polygon class="st1" points="0.1,54.7 0,25.9 22.8,0 155.2,0 155.2,13.9 27.8,13.9 12.2,31.7 12.3,54.6 			"/>
		</g>
	</g>
</g>
<g>
	<g class="st2">
		<path class="st3" d="M125.2,71.2l-2.4-2.7v-5.4h7.1v1.3h14.3v-4h-16.6l-4.8-5.4V41.6H149l2.4,2.7v5.4h-7.1v-1.3H130V55l2.4-2.7
			h14.3l4.8,5.4v13.4H125.2z"/>
		<path class="st3" d="M153.7,71.2v-8.1l19-21.5h11.9v29.6h-9.5v-2.7h-14.3l-2.4,2.7H153.7z M175.1,63.1V55l2.4-2.7v-2.7l-11.9,13.4
			H175.1z"/>
		<path class="st3" d="M200.1,71.2L187,41.6h8.3L206,65.8h1.2l-2.4,5.4H200.1z M221.5,71.2l-8.3-18.8l-4.8,10.8H206l-3.6-8.1h1.2
			l5.9-13.4h7.1l10.7,24.2h1.2l-2.4,5.4H221.5z M227.4,63.1l-3.6-8.1h1.2l5.9-13.4h8.3l-9.5,21.5H227.4z"/>
		<path class="st3" d="M244,71.2l-2.4-2.7V41.6h7.1l2.4,2.7v26.9H244z"/>
		<path class="st3" d="M255.9,71.2l-2.4-2.7V41.6h7.1l14.3,16.1V55l-2.4-2.7v-8.1l2.4-2.7h7.1v26.9l-2.4,2.7h-4.8L260.7,55v2.7
			l2.4,2.7v10.8H255.9z"/>
		<path class="st3" d="M284.4,71.2V41.6l9.5,10.8v10.8h9.5l2.4-2.7H301V55h11.9v13.4l-2.4,2.7H284.4z M305.8,52.3l-2.4-2.7h-9.5
			l-7.1-8.1h23.8l2.4,2.7v8.1H305.8z"/>
	</g>
	<g class="st2">
		<path class="st3" d="M46.8,122.8V93.2l9.5,10.8h11.9l-2.4-2.7h-9.5l-7.1-8.1H73l2.4,2.7v13.4h-19v5.4h9.5l2.4-2.7h7.1v8.1
			l-2.4,2.7H46.8z"/>
		<path class="st3" d="M80.1,122.8l-2.4-2.7V93.2h7.1l14.3,16.1v-2.7l-2.4-2.7v-8.1l2.4-2.7h7.1v26.9l-2.4,2.7h-4.8l-14.3-16.1v2.7
			l2.4,2.7v10.8H80.1z"/>
		<path class="st3" d="M118.1,122.8V99.9h-2.4v1.3h-7.1v-5.4l2.4-2.7h23.8l2.4,2.7v5.4H130v-1.3h-2.4v20.2l-2.4,2.7H118.1z"/>
		<path class="st3" d="M141.9,122.8l-2.4-2.7V95.9l2.4-2.7H168l2.4,2.7v14.8l-3.6,4l3.6,4v4h-9.5l-7.1-8.1H149v8.1H141.9z
			 M160.9,106.6v-5.4h-14.3l2.4,2.7v2.7H160.9z"/>
		<path class="st3" d="M182.2,122.8v-12.1l-9.5-10.8v-6.7h5.9l8.3,9.4l8.3-9.4h5.9v6.7l-9.5,10.8v9.4l-2.4,2.7H182.2z"/>
		<path class="st3" d="M220.3,122.8l-2.4-2.7v-5.4h7.1v1.3h14.3v-4h-16.6l-4.8-5.4V93.2H244l2.4,2.7v5.4h-7.1v-1.3H225v6.7l2.4-2.7
			h14.3l4.8,5.4v13.4H220.3z"/>
		<path class="st3" d="M258.3,122.8v-12.1l-9.5-10.8v-6.7h5.9l8.3,9.4l8.3-9.4h5.9v6.7l-9.5,10.8v9.4l-2.4,2.7H258.3z"/>
		<path class="st3" d="M282,122.8l-2.4-2.7v-5.4h7.1v1.3H301v-4h-16.6l-4.8-5.4V93.2h26.1l2.4,2.7v5.4H301v-1.3h-14.3v6.7l2.4-2.7
			h14.3l4.8,5.4v13.4H282z"/>
		<path class="st3" d="M320.1,122.8V99.9h-2.4v1.3h-7.1v-5.4l2.4-2.7h23.8l2.4,2.7v5.4h-7.1v-1.3h-2.4v20.2l-2.4,2.7H320.1z"/>
		<path class="st3" d="M341.4,122.8V93.2l9.5,10.8h11.9l-2.4-2.7h-9.5l-7.1-8.1h23.8l2.4,2.7v13.4h-19v5.4h9.5l2.4-2.7h7.1v8.1
			l-2.4,2.7H341.4z"/>
		<path class="st3" d="M374.7,122.8l-2.4-2.7V93.2h7.1l8.3,9.4l8.3-9.4h7.1v26.9l-2.4,2.7h-7.1V112l2.4-2.7v-2.7l-8.3,9.4l-8.3-9.4
			v2.7l2.4,2.7v10.8H374.7z"/>
	</g>
</g>
</svg>
