<?xml version="1.0" encoding="utf-8"?>
<!-- Generator: Adobe Illustrator 24.1.1, SVG Export Plug-In . SVG Version: 6.00 Build 0)  -->
<svg version="1.1" id="Layer_1" xmlns="http://www.w3.org/2000/svg" xmlns:xlink="http://www.w3.org/1999/xlink" x="0px" y="0px"
	 viewBox="0 0 393.6 150.8" style="enable-background:new 0 0 393.6 150.8;" xml:space="preserve">
<style type="text/css">
	.st0{opacity:0.71;}
	.st1{fill:#FF0000;}
	.st2{enable-background:new    ;}
	.st3{fill:#FFFFFF;}
</style>
<g class="st0">
	<polygon class="st1" points="5.3,28.8 22,7 135.1,7 150.3,26.9 313.9,26.9 322.5,38.1 392.3,38.1 392.3,126.5 368,126.5 
		354.7,143.9 23,143.9 5.6,121.1 	"/>
</g>
<polygon class="st1" points="168,0.2 158.4,12.7 171.9,12.7 181.4,0.2 "/>
<polygon class="st1" points="194.8,0.2 185.3,12.7 198.8,12.7 208.3,0.2 "/>
<polygon class="st1" points="248.6,0.2 239.1,12.7 252.5,12.7 262,0.2 "/>
<polygon class="st1" points="221.7,0.2 212.2,12.7 225.6,12.7 235.2,0.2 "/>
<path class="st1" d="M355.3,145.6H22.5L4.3,121.8v-0.7L4,28.1L21.5,5.3h114.1l15.2,19.9h163.6l8.6,11.3h70.5v91.8h-25L355.3,145.6z
	 M23.6,142.2h330.6l13.2-17.3h23.5v-85h-69l-8.5-11.3H149.8l-15.3-20H22.6l-16,20.9l0.2,90.8L23.6,142.2z"/>
<polygon class="st1" points="392.3,21.9 331.2,21.9 321.3,8.8 269.9,8.8 269.9,5.4 322.3,5.4 332.3,18.5 392.3,18.5 "/>
<polygon class="st1" points="50.5,150.8 20.8,150.8 1.8,126 9.3,116.1 25.2,136.9 50.5,136.9 "/>
<polygon class="st1" points="356.9,150.8 210.1,150.8 210.1,136.9 352.5,136.9 365.8,119.6 391.8,119.6 391.8,133.5 370.2,133.5 "/>
<polygon class="st1" points="0.1,54.7 0,25.9 19.8,0 135.1,0 135.1,13.9 24.2,13.9 10.7,31.7 10.7,54.7 "/>
<g class="st2">
	<path class="st3" d="M82.4,75.4l-2.5-2.9v-5.8h7.6v1.4h15.2v-4.3H84.9l-5.1-5.8V43.8h27.8l2.5,2.9v5.8h-7.6V51H87.5v7.2l2.5-2.9
		h15.2l5.1,5.8v14.4H82.4z"/>
	<path class="st3" d="M112.8,75.4v-8.6l20.2-23h12.6v31.6h-10.1v-2.9h-15.2l-2.5,2.9H112.8z M135.5,66.8v-8.6l2.5-2.9v-2.9
		l-12.6,14.4H135.5z"/>
	<path class="st3" d="M162.1,75.4l-13.9-31.6h8.9l11.4,25.9h1.3l-2.5,5.8H162.1z M184.9,75.4L176,55.3L171,66.8h-2.5l-3.8-8.6h1.3
		l6.3-14.4h7.6l11.4,25.9h1.3l-2.5,5.8H184.9z M191.2,66.8l-3.8-8.6h1.3l6.3-14.4h8.9l-10.1,23H191.2z"/>
	<path class="st3" d="M208.9,75.4l-2.5-2.9V43.8h7.6l2.5,2.9v28.8H208.9z"/>
	<path class="st3" d="M221.6,75.4l-2.5-2.9V43.8h7.6L241.8,61v-2.9l-2.5-2.9v-8.6l2.5-2.9h7.6v28.8l-2.5,2.9h-5.1l-15.2-17.3V61
		l2.5,2.9v11.5H221.6z"/>
	<path class="st3" d="M251.9,75.4V43.8L262,55.3v11.5h10.1l2.5-2.9h-5.1v-5.8h12.6v14.4l-2.5,2.9H251.9z M274.7,55.3l-2.5-2.9H262
		l-7.6-8.6h25.3l2.5,2.9v8.6H274.7z"/>
</g>
<g class="st2">
	<path class="st3" d="M84.9,119.4l-2.5-2.9V87.8H90l8.9,10.1l8.9-10.1h7.6v28.8l-2.5,2.9h-7.6v-11.5l2.5-2.9v-2.9l-8.9,10.1
		L90,102.2v2.9l2.5,2.9v11.5H84.9z"/>
	<path class="st3" d="M117.8,119.4v-8.6l20.2-23h12.6v31.6h-10.1v-2.9h-15.2l-2.5,2.9H117.8z M140.6,110.8v-8.6l2.5-2.9v-2.9
		l-12.6,14.4H140.6z"/>
	<path class="st3" d="M153.2,119.4V87.8l10.1,11.5v11.5h10.1l2.5-2.9h7.6v8.6l-2.5,2.9H153.2z M176,99.3l-2.5-2.9h-10.1l-7.6-8.6
		h25.3l2.5,2.9v8.6H176z"/>
	<path class="st3" d="M188.7,119.4l-2.5-2.9V90.7l2.5-2.9h7.6v11.5h12.6l-2.5-2.9v-8.6h7.6l2.5,2.9v25.9l-2.5,2.9h-7.6v-11.5h-12.6
		l2.5,2.9v8.6H188.7z"/>
	<path class="st3" d="M221.6,119.4l-2.5-2.9V87.8h7.6l2.5,2.9v28.8H221.6z"/>
	<path class="st3" d="M234.2,119.4l-2.5-2.9V87.8h7.6l15.2,17.3v-2.9l-2.5-2.9v-8.6l2.5-2.9h7.6v28.8l-2.5,2.9h-5.1l-15.2-17.3v2.9
		l2.5,2.9v11.5H234.2z"/>
	<path class="st3" d="M264.6,119.4V87.8l10.1,11.5h12.7l-2.5-2.9h-10.1l-7.6-8.6h25.3l2.5,2.9V105h-20.2v5.8h10.1l2.5-2.9h7.6v8.6
		l-2.5,2.9H264.6z"/>
</g>
</svg>
