<?xml version="1.0" encoding="utf-8"?>
<!-- Generator: Adobe Illustrator 24.1.1, SVG Export Plug-In . SVG Version: 6.00 Build 0)  -->
<svg version="1.1" id="Layer_1" xmlns="http://www.w3.org/2000/svg" xmlns:xlink="http://www.w3.org/1999/xlink" x="0px" y="0px"
	 viewBox="0 0 393.5 150.8" style="enable-background:new 0 0 393.5 150.8;" xml:space="preserve">
<style type="text/css">
	.st0{opacity:0.71;}
	.st1{fill:#FF0000;}
	.st2{enable-background:new    ;}
	.st3{fill:#FFFFFF;}
</style>
<g>
	<g>
		<g class="st0">
			<polygon class="st1" points="5.3,28.8 22,6.9 135,6.9 150.3,26.8 313.9,26.8 322.5,38.1 392.2,38.1 392.2,126.5 368,126.5 
				354.7,143.8 23,143.8 5.6,121 			"/>
		</g>
		<g>
			<g>
				<polygon class="st1" points="167.9,0.2 158.4,12.6 171.9,12.6 181.4,0.2 				"/>
			</g>
			<g>
				<polygon class="st1" points="194.8,0.2 185.3,12.6 198.7,12.6 208.3,0.2 				"/>
			</g>
			<g>
				<polygon class="st1" points="248.6,0.2 239.1,12.6 252.5,12.6 262,0.2 				"/>
			</g>
			<g>
				<polygon class="st1" points="221.7,0.2 212.2,12.6 225.6,12.6 235.1,0.2 				"/>
			</g>
		</g>
		<g>
			<path class="st1" d="M355.2,145.5H22.5L4.3,121.7V121L4,28.1L21.5,5.2h114.1l15.2,19.9h163.6l8.6,11.3h70.5v91.8h-25L355.2,145.5
				z M23.5,142.1h330.6l13.3-17.3h23.5v-85h-69l-8.6-11.3H149.7L134.5,8.6H22.6l-16,20.9l0.2,90.8L23.5,142.1z"/>
		</g>
		<g>
			<polygon class="st1" points="392.2,21.8 331.2,21.8 321.2,8.8 269.9,8.8 269.9,5.4 322.3,5.4 332.3,18.5 392.2,18.5 			"/>
		</g>
		<g>
			<polygon class="st1" points="50.5,150.8 20.8,150.8 1.8,125.9 9.3,116.1 25.2,136.9 50.5,136.9 			"/>
		</g>
		<g>
			<polygon class="st1" points="356.9,150.8 210.1,150.8 210.1,136.9 352.5,136.9 365.8,119.5 391.8,119.5 391.8,133.4 370.2,133.4 
							"/>
		</g>
		<g>
			<polygon class="st1" points="0.1,54.7 0,25.9 19.8,0 135,0 135,13.9 24.2,13.9 10.6,31.7 10.7,54.6 			"/>
		</g>
	</g>
</g>
<g>
	<g class="st2">
		<path class="st3" d="M150,73.4l-2.5-2.9v-5.8h7.6v1.4h15.3v-4.3h-17.8l-5.1-5.8V41.8h28l2.5,2.9v5.8h-7.6v-1.4h-15.3v7.2l2.5-2.9
			h15.3L178,59v14.4H150z"/>
		<path class="st3" d="M183.1,73.4l-2.5-2.9V41.8h7.6l2.5,2.9v28.8H183.1z"/>
		<path class="st3" d="M195.8,73.4l-2.5-2.9V44.6l2.5-2.9h28l2.5,2.9v15.8l-3.8,4.3l3.8,4.3v4.3h-10.2l-7.6-8.6h-5.1v8.6H195.8z
			 M216.1,56.1v-5.8h-15.3l2.5,2.9v2.9H216.1z"/>
	</g>
	<g class="st2">
		<path class="st3" d="M57.7,117.4V85.8l10.2,11.5v11.5h10.2l2.5-2.9v-8.6l-2.5-2.9H67.9l-7.6-8.6h22.9l5.1,5.8v20.1l-5.1,5.8H57.7z
			"/>
		<path class="st3" d="M90.8,117.4V85.8l10.2,11.5h12.7l-2.5-2.9h-10.2l-7.6-8.6h25.4l2.5,2.9V103h-20.3v5.8h10.2l2.5-2.9h7.6v8.6
			l-2.5,2.9H90.8z"/>
		<path class="st3" d="M123.8,117.4V85.8L134,97.3v11.5h10.2l2.5-2.9h-5.1v-5.8h12.7v14.4l-2.5,2.9H123.8z M146.7,97.3l-2.5-2.9H134
			l-7.6-8.6h25.4l2.5,2.9v8.6H146.7z"/>
		<path class="st3" d="M156.9,117.4v-8.6l20.3-23h12.7v31.6h-10.2v-2.9h-15.3l-2.5,2.9H156.9z M179.7,108.8v-8.6l2.5-2.9v-2.9
			l-12.7,14.4H179.7z"/>
		<path class="st3" d="M195,117.4l-2.5-2.9v-5.8h7.6v1.4h15.3v-4.3h-17.8l-5.1-5.8V85.8h28l2.5,2.9v5.8h-7.6v-1.4h-15.3v7.2l2.5-2.9
			h15.3l5.1,5.8v14.4H195z"/>
		<path class="st3" d="M228,117.4l-2.5-2.9v-5.8h7.6v1.4h15.3v-4.3h-17.8l-5.1-5.8V85.8h28l2.5,2.9v5.8h-7.6v-1.4h-15.3v7.2l2.5-2.9
			h15.3l5.1,5.8v14.4H228z"/>
		<path class="st3" d="M258.5,117.4V85.8l10.2,11.5h12.7l-2.5-2.9h-10.2l-7.6-8.6h25.4l2.5,2.9V103h-20.3v5.8h10.2l2.5-2.9h7.6v8.6
			l-2.5,2.9H258.5z"/>
		<path class="st3" d="M294.1,117.4l-2.5-2.9V88.6l2.5-2.9h28l2.5,2.9v15.8l-3.8,4.3l3.8,4.3v4.3h-10.2l-7.6-8.6h-5.1v8.6H294.1z
			 M314.5,100.1v-5.8h-15.3l2.5,2.9v2.9H314.5z"/>
	</g>
</g>
</svg>
