<?xml version="1.0" encoding="utf-8"?>
<!-- Generator: Adobe Illustrator 28.0.0, SVG Export Plug-In . SVG Version: 6.00 Build 0)  -->
<svg version="1.1" id="Layer_1" xmlns="http://www.w3.org/2000/svg" xmlns:xlink="http://www.w3.org/1999/xlink" x="0px" y="0px"
	 viewBox="0 0 392.8 150.6" style="enable-background:new 0 0 392.8 150.6;" xml:space="preserve">
<style type="text/css">
	.st0{opacity:0.71;}
	.st1{fill:#FF0000;}
	.st2{enable-background:new    ;}
	.st3{fill:#FFFFFF;}
</style>
<g>
	<g>
		<g class="st0">
			<polygon class="st1" points="5.3,28.6 22,6.7 135,6.7 150.3,26.6 313.9,26.6 322.5,37.9 392.2,37.9 392.2,126.3 368,126.3 
				354.7,143.6 23,143.6 5.6,120.8 			"/>
		</g>
		<g>
			<g>
				<polygon class="st1" points="167.9,0 158.4,12.4 171.9,12.4 181.4,0 				"/>
			</g>
			<g>
				<polygon class="st1" points="194.8,0 185.3,12.4 198.7,12.4 208.3,0 				"/>
			</g>
			<g>
				<polygon class="st1" points="248.6,0 239.1,12.4 252.5,12.4 262,0 				"/>
			</g>
			<g>
				<polygon class="st1" points="221.7,0 212.2,12.4 225.6,12.4 235.1,0 				"/>
			</g>
		</g>
		<g>
			<path class="st1" d="M355.2,145.3H22.5L4.3,121.5v-0.7L4,27.9L21.5,5h114.1l15.2,19.9h163.6l8.6,11.3h70.5V128h-25L355.2,145.3z
				 M23.5,141.9h330.6l13.3-17.3h23.5v-85h-69l-8.6-11.3H149.7L134.5,8.4H22.6l-16,20.9l0.2,90.8L23.5,141.9z"/>
		</g>
		<g>
			<polygon class="st1" points="392.2,21.6 331.2,21.6 321.2,8.6 269.9,8.6 269.9,5.2 322.3,5.2 332.3,18.3 392.2,18.3 			"/>
		</g>
		<g>
			<polygon class="st1" points="50.5,150.6 20.8,150.6 1.8,125.7 9.3,115.9 25.2,136.7 50.5,136.7 			"/>
		</g>
		<g>
			<polygon class="st1" points="356.9,150.6 210.1,150.6 210.1,136.7 352.5,136.7 365.8,119.3 391.8,119.3 391.8,133.2 370.2,133.2 
							"/>
		</g>
		<g>
			<polygon class="st1" points="0.1,54.5 0,25.7 19.8,-0.2 135,-0.2 135,13.7 24.2,13.7 10.6,31.5 10.7,54.4 			"/>
		</g>
	</g>
</g>
<g>
	<g class="st2">
		<path class="st3" d="M98.9,75.6l-2.5-2.9V67h7.6v1.4h15.3v-4.3h-17.8l-5.1-5.8V44h28l2.5,2.9v5.8h-7.6v-1.4H104v7.2l2.5-2.9h15.3
			l5.1,5.8v14.4H98.9z"/>
		<path class="st3" d="M143.4,75.6l-14-31.6h8.9l11.4,25.9h1.3l-2.5,5.8H143.4z M166.3,75.6l-8.9-20.1L152.3,67h-2.5l-3.8-8.6h1.3
			l6.4-14.4h7.6l11.4,25.9h1.3l-2.5,5.8H166.3z M172.6,67l-3.8-8.6h1.3l6.4-14.4h8.9l-10.2,23H172.6z"/>
		<path class="st3" d="M187.9,75.6V67l20.3-23h12.7v31.6h-10.2v-2.9h-15.3l-2.5,2.9H187.9z M210.8,67v-8.6l2.5-2.9v-2.9L200.6,67
			H210.8z"/>
		<path class="st3" d="M226,75.6l-2.5-2.9V46.9L226,44h28l2.5,2.9v15.8l-3.8,4.3l3.8,4.3v4.3h-10.2l-7.6-8.6h-5.1v8.6H226z
			 M246.3,58.4v-5.8h-15.3l2.5,2.9v2.9H246.3z"/>
		<path class="st3" d="M259.1,75.6V44l10.2,11.5v2.9h7.6v5.8l-2.5,2.9h-5.1v8.6H259.1z M281.9,55.5l-2.5-2.9h-10.2l-7.6-8.6H287
			l2.5,2.9v8.6H281.9z"/>
	</g>
	<g class="st2">
		<path class="st3" d="M53.7,119.6V88h25.4l5.1,5.8v8.6l-1.3,1.4l1.3,1.4v11.5l-2.5,2.9H58.8l7.6-8.6h10.2l-2.5-2.9H61.3l2.5,2.9
			l-7.6,8.6H53.7z M76.6,99.5L74,96.6H61.3l2.5,2.9H76.6z"/>
		<path class="st3" d="M89.3,119.6l-2.5-2.9V90.9l2.5-2.9h28l2.5,2.9v15.8l-3.8,4.3l3.8,4.3v4.3h-10.2L102,111h-5.1v8.6H89.3z
			 M109.6,102.4v-5.8H94.3l2.5,2.9v2.9H109.6z"/>
		<path class="st3" d="M124.8,119.6l-2.5-2.9V88h7.6l2.5,2.9v28.8H124.8z"/>
		<path class="st3" d="M135,119.6V90.9l2.5-2.9h28v28.8l-2.5,2.9h-2.5l-7.6-8.6v-5.8h5.1v-8.6h-15.3V111h7.6l7.6,8.6H135z"/>
		<path class="st3" d="M170.6,119.6l-2.5-2.9V90.9l2.5-2.9h5.1v23h12.7l6.4,7.2l-1.3,1.4H170.6z M196,116.8l-7.6-8.6V88h7.6V116.8z"
			/>
		<path class="st3" d="M198.6,119.6V88l10.2,11.5h12.7l-2.5-2.9h-10.2l-7.6-8.6h25.4l2.5,2.9v14.4h-20.3v5.8h10.2l2.5-2.9h7.6v8.6
			l-2.5,2.9H198.6z"/>
		<path class="st3" d="M241.8,119.6V95.2h-2.5v1.4h-7.6v-5.8l2.5-2.9h25.4l2.5,2.9v5.8h-7.6v-1.4h-2.5v21.6l-2.5,2.9H241.8z"/>
		<path class="st3" d="M274.8,119.6V95.2h-2.5v1.4h-7.6v-5.8l2.5-2.9h25.4l2.5,2.9v5.8h-7.6v-1.4H285v21.6l-2.5,2.9H274.8z"/>
		<path class="st3" d="M300.2,119.6l-2.5-2.9V88h7.6l2.5,2.9v28.8H300.2z"/>
		<path class="st3" d="M312.9,119.6l-2.5-2.9V88h7.6l15.3,17.2v-2.9l-2.5-2.9v-8.6l2.5-2.9h7.6v28.8l-2.5,2.9h-5.1L318,102.4v2.9
			l2.5,2.9v11.5H312.9z"/>
	</g>
</g>
</svg>
