<?xml version="1.0" encoding="utf-8"?>
<!-- Generator: Adobe Illustrator 24.1.1, SVG Export Plug-In . SVG Version: 6.00 Build 0)  -->
<svg version="1.1" id="Layer_1" xmlns="http://www.w3.org/2000/svg" xmlns:xlink="http://www.w3.org/1999/xlink" x="0px" y="0px"
	 viewBox="0 0 275.9 113.3" style="enable-background:new 0 0 275.9 113.3;" xml:space="preserve">
<style type="text/css">
	.st0{opacity:0.71;}
	.st1{enable-background:new    ;}
	.st2{fill:#FFFFFF;}
</style>
<g>
	<g id="Layer_1_1_">
		<g class="st0">
			<polygon points="3.8,18 15.5,1.6 94.8,1.6 105.5,16.6 220.2,16.6 226.2,25 275,25 275,91.5 258,91.5 248.8,104.5 16.2,104.5 
				4,87.3 			"/>
		</g>
		<polygon points="117.8,0.2 111.1,9.5 120.5,9.5 127.2,0.2 		"/>
		<polygon points="136.6,0.2 129.9,9.5 139.4,9.5 146,0.2 		"/>
		<polygon points="174.3,0.2 167.6,9.5 177,9.5 183.7,0.2 		"/>
		<polygon points="155.4,0.2 148.8,9.5 158.2,9.5 164.9,0.2 		"/>
		<path d="M249.1,109.4H15.8L3,91.5V91L2.8,21.1L15.1,4h80l10.7,15h114.7l6,8.5H276v68.9h-17.5L249.1,109.4z M16.5,106.8h231.8
			l9.3-13h16.5V29.9h-48.3l-6-8.5H105l-10.7-15H15.8L4.7,22.1l0.2,68.3L16.5,106.8z"/>
		<polygon points="275,16.4 232.2,16.4 225.2,6.6 189.2,6.6 189.2,4.1 226,4.1 233,13.9 275,13.9 		"/>
		<polygon points="35.4,113.3 14.6,113.3 1.3,94.7 6.5,87.3 17.7,102.9 35.4,102.9 		"/>
		<polygon points="250.2,113.3 147.3,113.3 147.3,102.9 247.1,102.9 256.4,89.8 274.7,89.8 274.7,100.3 259.5,100.3 		"/>
		<polygon points="0.1,41.1 0,19.5 13.9,0 94.7,0 94.7,10.5 17,10.5 7.5,23.8 7.5,41.1 		"/>
		<g class="st1">
			<path class="st2" d="M64.4,82.2V40.9l13.2,15v15h13.2l3.3-3.8h9.9v11.3l-3.3,3.8H64.4z M94.1,55.9l-3.3-3.8H77.6l-9.9-11.3h33
				l3.3,3.8v11.3H94.1z"/>
			<path class="st2" d="M107.3,82.2V40.9l13.2,15v3.8h9.9v7.5l-3.3,3.8h-6.6v11.3H107.3z M137,55.9l-3.3-3.8h-13.2l-9.9-11.3h33
				l3.3,3.8v11.3H137z"/>
			<path class="st2" d="M150.2,82.2V40.9l13.2,15v3.8h9.9v7.5l-3.3,3.8h-6.6v11.3H150.2z M179.9,55.9l-3.3-3.8h-13.2l-9.9-11.3h33
				l3.3,3.8v11.3H179.9z"/>
		</g>
	</g>
</g>
</svg>
