<?xml version="1.0" encoding="utf-8"?>
<!-- Generator: Adobe Illustrator 24.1.1, SVG Export Plug-In . SVG Version: 6.00 Build 0)  -->
<svg version="1.1" id="Layer_1" xmlns="http://www.w3.org/2000/svg" xmlns:xlink="http://www.w3.org/1999/xlink" x="0px" y="0px"
	 viewBox="0 0 393.5 150.8" style="enable-background:new 0 0 393.5 150.8;" xml:space="preserve">
<style type="text/css">
	.st0{opacity:0.71;}
	.st1{enable-background:new    ;}
	.st2{fill:#FFFFFF;}
</style>
<g>
	<g>
		<g class="st0">
			<polygon points="5.3,28.8 22,6.9 135,6.9 150.3,26.8 313.9,26.8 322.5,38.1 392.2,38.1 392.2,126.5 368,126.5 354.7,143.8 
				23,143.8 5.6,121 			"/>
		</g>
		<g>
			<g>
				<polygon points="167.9,0.2 158.4,12.6 171.9,12.6 181.4,0.2 				"/>
			</g>
			<g>
				<polygon points="194.8,0.2 185.3,12.6 198.7,12.6 208.3,0.2 				"/>
			</g>
			<g>
				<polygon points="248.6,0.2 239.1,12.6 252.5,12.6 262,0.2 				"/>
			</g>
			<g>
				<polygon points="221.7,0.2 212.2,12.6 225.6,12.6 235.1,0.2 				"/>
			</g>
		</g>
		<g>
			<path d="M355.2,145.5H22.5L4.3,121.7V121L4,28.1L21.5,5.2h114.1l15.2,19.9h163.6l8.6,11.3h70.5v91.8h-25L355.2,145.5z
				 M23.5,142.1h330.6l13.3-17.3h23.5v-85h-69l-8.6-11.3H149.7L134.5,8.6H22.6l-16,20.9l0.2,90.8L23.5,142.1z"/>
		</g>
		<g>
			<polygon points="392.2,21.8 331.2,21.8 321.2,8.8 269.9,8.8 269.9,5.4 322.3,5.4 332.3,18.5 392.2,18.5 			"/>
		</g>
		<g>
			<polygon points="50.5,150.8 20.8,150.8 1.8,125.9 9.3,116.1 25.2,136.9 50.5,136.9 			"/>
		</g>
		<g>
			<polygon points="356.9,150.8 210.1,150.8 210.1,136.9 352.5,136.9 365.8,119.5 391.8,119.5 391.8,133.4 370.2,133.4 			"/>
		</g>
		<g>
			<polygon points="0.1,54.7 0,25.9 19.8,0 135,0 135,13.9 24.2,13.9 10.6,31.7 10.7,54.6 			"/>
		</g>
	</g>
</g>
<g>
	<g class="st1">
		<path class="st2" d="M59,75.7V44.1l10.2,11.5v11.5h10.2l2.5-2.9h7.6v8.6l-2.5,2.9H59z M81.9,55.6l-2.5-2.9H69.2l-7.6-8.6h25.4
			l2.5,2.9v8.6H81.9z"/>
		<path class="st2" d="M94.6,75.7L92,72.8V46.9l2.5-2.9h7.6v11.5h12.7l-2.5-2.9v-8.6h7.6l2.5,2.9v25.9l-2.5,2.9h-7.6V64.2H99.7
			l2.5,2.9v8.6H94.6z"/>
		<path class="st2" d="M125.1,75.7v-8.6l20.3-23h12.7v31.6h-10.2v-2.9h-15.3l-2.5,2.9H125.1z M147.9,67.1v-8.6l2.5-2.9v-2.9
			l-12.7,14.4H147.9z"/>
		<path class="st2" d="M163.2,75.7l-2.5-2.9V46.9l2.5-2.9h28l2.5,2.9v15.8l-3.8,4.3l3.8,4.3v4.3h-10.2l-7.6-8.6h-5.1v8.6H163.2z
			 M183.5,58.4v-5.8h-15.3l2.5,2.9v2.9H183.5z"/>
		<path class="st2" d="M196.2,75.7V44.1l10.2,11.5v11.5h10.2l2.5-2.9H214v-5.8h12.7v14.4l-2.5,2.9H196.2z M219.1,55.6l-2.5-2.9
			h-10.2l-7.6-8.6h25.4l2.5,2.9v8.6H219.1z"/>
		<path class="st2" d="M231.8,75.7l-2.5-2.9V44.1h7.6l2.5,2.9v28.8H231.8z"/>
		<path class="st2" d="M244.5,75.7l-2.5-2.9V44.1h7.6l15.3,17.3v-2.9l-2.5-2.9v-8.6l2.5-2.9h7.6v28.8l-2.5,2.9h-5.1l-15.3-17.3v2.9
			l2.5,2.9v11.5H244.5z"/>
		<path class="st2" d="M275,75.7V44.1l10.2,11.5v11.5h10.2l2.5-2.9h-5.1v-5.8h12.7v14.4l-2.5,2.9H275z M297.9,55.6l-2.5-2.9h-10.2
			l-7.6-8.6H303l2.5,2.9v8.6H297.9z"/>
	</g>
	<g class="st1">
		<path class="st2" d="M92.6,119.7V88.1H118l5.1,5.8v8.6l-1.3,1.4l1.3,1.4v11.5l-2.5,2.9H97.7l7.6-8.6h10.2l-2.5-2.9h-12.7l2.5,2.9
			l-7.6,8.6H92.6z M115.5,99.6l-2.5-2.9h-12.7l2.5,2.9H115.5z"/>
		<path class="st2" d="M128.2,119.7l-2.5-2.9V88.1h7.6l2.5,2.9v28.8H128.2z"/>
		<path class="st2" d="M138.3,119.7V88.1h10.2v20.1L138.3,119.7z M140.9,119.7l7.6-8.6h10.2l2.5-2.9h7.6v8.6l-2.5,2.9H140.9z"/>
		<path class="st2" d="M173.9,119.7V88.1h10.2v20.1L173.9,119.7z M176.5,119.7l7.6-8.6h10.2l2.5-2.9h7.6v8.6l-2.5,2.9H176.5z"/>
		<path class="st2" d="M209.5,119.7V88.1l10.2,11.5h12.7l-2.5-2.9h-10.2l-7.6-8.6h25.4l2.5,2.9v14.4h-20.3v5.8h10.2l2.5-2.9h7.6v8.6
			l-2.5,2.9H209.5z"/>
		<path class="st2" d="M252.7,119.7V95.3h-2.5v1.4h-7.6v-5.8l2.5-2.9h25.4l2.5,2.9v5.8h-7.6v-1.4h-2.5v21.6l-2.5,2.9H252.7z"/>
	</g>
</g>
</svg>
