<?xml version="1.0" encoding="utf-8"?>
<!-- Generator: Adobe Illustrator 24.1.1, SVG Export Plug-In . SVG Version: 6.00 Build 0)  -->
<svg version="1.1" id="Layer_1" xmlns="http://www.w3.org/2000/svg" xmlns:xlink="http://www.w3.org/1999/xlink" x="0px" y="0px"
	 viewBox="0 0 393.5 113.3" style="enable-background:new 0 0 393.5 113.3;" xml:space="preserve">
<style type="text/css">
	.st0{opacity:0.71;}
	.st1{enable-background:new    ;}
	.st2{fill:#FFFFFF;}
</style>
<g>
	<g>
		<g class="st0">
			<polygon points="5.3,21.6 22,5.2 135,5.2 150.3,20.2 313.9,20.2 322.5,28.6 392.2,28.6 392.2,95 368,95 354.7,108.1 23,108.1 
				5.6,90.9 			"/>
		</g>
		<g>
			<g>
				<polygon points="167.9,0.1 158.4,9.5 171.9,9.5 181.4,0.1 				"/>
			</g>
			<g>
				<polygon points="194.8,0.1 185.3,9.5 198.7,9.5 208.3,0.1 				"/>
			</g>
			<g>
				<polygon points="248.6,0.1 239.1,9.5 252.5,9.5 262,0.1 				"/>
			</g>
			<g>
				<polygon points="221.7,0.1 212.2,9.5 225.6,9.5 235.1,0.1 				"/>
			</g>
		</g>
		<g>
			<path d="M355.2,109.3H22.5L4.3,91.4v-0.5L4,21.1L21.5,3.9h114.1l15.2,15h163.6l8.6,8.5h70.5v69h-25L355.2,109.3z M23.5,106.8
				h330.6l13.3-13h23.5V29.9h-69l-8.6-8.5H149.7l-15.2-15H22.6l-16,15.7l0.2,68.3L23.5,106.8z"/>
		</g>
		<g>
			<polygon points="392.2,16.4 331.2,16.4 321.2,6.6 269.9,6.6 269.9,4.1 322.3,4.1 332.3,13.9 392.2,13.9 			"/>
		</g>
		<g>
			<polygon points="50.5,113.3 20.8,113.3 1.8,94.6 9.3,87.2 25.2,102.8 50.5,102.8 			"/>
		</g>
		<g>
			<polygon points="356.9,113.3 210.1,113.3 210.1,102.8 352.5,102.8 365.8,89.8 391.8,89.8 391.8,100.3 370.2,100.3 			"/>
		</g>
		<g>
			<polygon points="0.1,41.1 0,19.5 19.8,0 135,0 135,10.4 24.2,10.4 10.6,23.8 10.7,41 			"/>
		</g>
	</g>
	<g>
		<g class="st1">
			<path class="st2" d="M48.2,75.7v-33l10.6,12v12h10.6l2.7-3h8v9l-2.7,3H48.2z M72.1,54.7l-2.7-3H58.8l-8-9h26.5l2.7,3v9H72.1z"/>
			<path class="st2" d="M82.7,75.7v-30l2.7-3h29.2v30l-2.7,3H82.7z M106.6,66.7v-15H90.7v15H106.6z"/>
			<path class="st2" d="M119.8,75.7l-2.7-3v-30h8l15.9,18v-3l-2.7-3v-9l2.7-3h8v30l-2.7,3h-5.3l-15.9-18v3l2.7,3v12H119.8z"/>
			<path class="st2" d="M166.3,75.7l-14.6-33h9.3l11.9,27h1.3l-2.7,6H166.3z M172.9,66.7l-4-9h1.3l6.6-15h9.3l-10.6,24H172.9z"/>
			<path class="st2" d="M188.8,75.7v-33l10.6,12h13.3l-2.7-3h-10.6l-8-9H218l2.7,3v15h-21.2v6H210l2.7-3h8v9l-2.7,3H188.8z"/>
			<path class="st2" d="M233.9,75.7V62.2l-10.6-12v-7.5h6.6l9.3,10.5l9.3-10.5h6.6v7.5l-10.6,12v10.5l-2.7,3H233.9z"/>
			<path class="st2" d="M257.8,75.7v-30l2.7-3h29.2v30l-2.7,3H257.8z M281.6,66.7v-15h-15.9v15H281.6z"/>
			<path class="st2" d="M294.9,75.7l-2.7-3v-27l2.7-3h29.2l2.7,3v16.5l-4,4.5l4,4.5v4.5h-10.6l-8-9h-5.3v9H294.9z M316.1,57.7v-6
				h-15.9l2.7,3v3H316.1z"/>
		</g>
	</g>
</g>
</svg>
