<?xml version="1.0" encoding="utf-8"?>
<!-- Generator: Adobe Illustrator 24.1.1, SVG Export Plug-In . SVG Version: 6.00 Build 0)  -->
<svg version="1.1" id="Layer_1" xmlns="http://www.w3.org/2000/svg" xmlns:xlink="http://www.w3.org/1999/xlink" x="0px" y="0px"
	 viewBox="0 0 412.9 113.3" style="enable-background:new 0 0 412.9 113.3;" xml:space="preserve">
<style type="text/css">
	.st0{opacity:0.71;}
	.st1{enable-background:new    ;}
	.st2{fill:#FFFFFF;}
</style>
<g>
	<g>
		<g class="st0">
			<polygon points="5.6,21.6 23.1,5.2 141.7,5.2 157.6,20.2 329.3,20.2 338.3,28.6 411.5,28.6 411.5,95 386,95 372.1,108.1 
				24.1,108.1 5.8,90.9 			"/>
		</g>
		<g>
			<g>
				<polygon points="176.2,0.1 166.2,9.5 180.3,9.5 190.3,0.1 				"/>
			</g>
			<g>
				<polygon points="204.4,0.1 194.4,9.5 208.5,9.5 218.5,0.1 				"/>
			</g>
			<g>
				<polygon points="260.8,0.1 250.8,9.5 264.9,9.5 274.9,0.1 				"/>
			</g>
			<g>
				<polygon points="232.6,0.1 222.6,9.5 236.7,9.5 246.7,0.1 				"/>
			</g>
		</g>
		<g>
			<path d="M372.6,109.3h-349L4.5,91.4v-0.5L4.2,21.1L22.5,3.9h119.7l16,15h171.7l9,8.5h74v69h-26.3L372.6,109.3z M24.7,106.8h346.8
				l13.9-13h24.7V29.9h-72.4l-9-8.5H157.1l-16-15H23.7L7,22.1l0.3,68.3L24.7,106.8z"/>
		</g>
		<g>
			<polygon points="411.5,16.4 347.4,16.4 337,6.6 283.2,6.6 283.2,4.1 338.1,4.1 348.6,13.9 411.5,13.9 			"/>
		</g>
		<g>
			<polygon points="53,113.3 21.8,113.3 1.9,94.6 9.8,87.2 26.4,102.8 53,102.8 			"/>
		</g>
		<g>
			<polygon points="374.4,113.3 220.4,113.3 220.4,102.8 369.8,102.8 383.7,89.8 411,89.8 411,100.3 388.3,100.3 			"/>
		</g>
		<g>
			<polygon points="0.1,41.1 0,19.5 20.8,0 141.7,0 141.7,10.4 25.4,10.4 11.2,23.8 11.2,41 			"/>
		</g>
	</g>
	<g>
		<g class="st1">
			<path class="st2" d="M29.2,77.7v-33l10.6,12v12h10.6l2.7-3h8v9l-2.7,3H29.2z M53.1,56.7l-2.7-3H39.8l-8-9h26.5l2.7,3v9H53.1z"/>
			<path class="st2" d="M63.7,77.7v-30l2.7-3h29.2v30l-2.7,3H63.7z M87.6,68.7v-15H71.7v15H87.6z"/>
			<path class="st2" d="M98.2,77.7v-30l2.7-3H130v30l-2.7,3H98.2z M122.1,68.7v-15h-15.9v15H122.1z"/>
			<path class="st2" d="M132.7,77.7v-33h10.6v21L132.7,77.7z M135.3,77.7l8-9h10.6l2.7-3h8v9l-2.7,3H135.3z"/>
			<path class="st2" d="M172.5,77.7l-2.7-3v-30h8l2.7,3v30H172.5z"/>
			<path class="st2" d="M185.7,77.7l-2.7-3v-30h8l15.9,18v-3l-2.7-3v-9l2.7-3h8v30l-2.7,3h-5.3l-15.9-18v3l2.7,3v12H185.7z"/>
			<path class="st2" d="M217.5,77.7v-33l10.6,12v12h10.6l2.7-3h-5.3v-6h13.3v15l-2.7,3H217.5z M241.4,56.7l-2.7-3h-10.6l-8-9h26.5
				l2.7,3v9H241.4z"/>
			<path class="st2" d="M278.5,77.7V52.2h-2.7v1.5h-8v-6l2.7-3h26.5l2.7,3v6h-8v-1.5h-2.7v22.5l-2.7,3H278.5z"/>
			<path class="st2" d="M317,77.7l-14.6-33h9.3l11.9,27h1.3l-2.7,6H317z M340.9,77.7l-9.3-21l-5.3,12h-2.7l-4-9h1.3l6.6-15h8
				l11.9,27h1.3l-2.7,6H340.9z M347.5,68.7l-4-9h1.3l6.6-15h9.3l-10.6,24H347.5z"/>
			<path class="st2" d="M363.4,77.7v-30l2.7-3h29.2v30l-2.7,3H363.4z M387.3,68.7v-15h-15.9v15H387.3z"/>
		</g>
	</g>
</g>
</svg>
