<?xml version="1.0" encoding="utf-8"?>
<!-- Generator: Adobe Illustrator 24.1.1, SVG Export Plug-In . SVG Version: 6.00 Build 0)  -->
<svg version="1.1" id="Layer_1" xmlns="http://www.w3.org/2000/svg" xmlns:xlink="http://www.w3.org/1999/xlink" x="0px" y="0px"
	 viewBox="0 0 446.7 113.3" style="enable-background:new 0 0 446.7 113.3;" xml:space="preserve">
<style type="text/css">
	.st0{opacity:0.71;}
	.st1{enable-background:new    ;}
	.st2{fill:#FFFFFF;}
</style>
<g>
	<g>
		<g class="st0">
			<polygon points="6,21.6 25,5.2 153.2,5.2 170.5,20.2 356.2,20.2 366,28.6 445.1,28.6 445.1,95 417.6,95 402.5,108.1 26.1,108.1 
				6.3,90.9 			"/>
		</g>
		<g>
			<g>
				<polygon points="190.6,0.1 179.8,9.5 195,9.5 205.8,0.1 				"/>
			</g>
			<g>
				<polygon points="221.1,0.1 210.3,9.5 225.5,9.5 236.3,0.1 				"/>
			</g>
			<g>
				<polygon points="282.1,0.1 271.3,9.5 286.5,9.5 297.3,0.1 				"/>
			</g>
			<g>
				<polygon points="251.6,0.1 240.8,9.5 256,9.5 266.8,0.1 				"/>
			</g>
		</g>
		<g>
			<path d="M403.1,109.3H25.5L4.9,91.4v-0.5L4.6,21.1L24.4,3.9h129.5l17.3,15h185.7l9.8,8.5h80v69h-28.4L403.1,109.3z M26.7,106.8
				h375.2l15.1-13h26.7V29.9h-78.3l-9.8-8.5H169.9l-17.3-15h-127L7.5,22.1l0.3,68.3L26.7,106.8z"/>
		</g>
		<g>
			<polygon points="445.1,16.4 375.9,16.4 364.5,6.6 306.3,6.6 306.3,4.1 365.7,4.1 377.1,13.9 445.1,13.9 			"/>
		</g>
		<g>
			<polygon points="57.3,113.3 23.6,113.3 2,94.6 10.6,87.2 28.6,102.8 57.3,102.8 			"/>
		</g>
		<g>
			<polygon points="405,113.3 238.4,113.3 238.4,102.8 400,102.8 415.1,89.8 444.6,89.8 444.6,100.3 420.1,100.3 			"/>
		</g>
		<g>
			<polygon points="0.1,41.1 0,19.5 22.5,0 153.2,0 153.2,10.4 27.5,10.4 12.1,23.8 12.1,41 			"/>
		</g>
	</g>
	<g>
		<g class="st1">
			<path class="st2" d="M24,75.8V44.2l10.2,11.5v2.9h7.6v5.8l-2.5,2.9h-5.1v8.6H24z M46.9,55.7l-2.5-2.9H34.2l-7.6-8.6H52l2.5,2.9
				v8.6H46.9z"/>
			<path class="st2" d="M60.5,75.8L58,72.9V47.1l2.5-2.9h5.1v23h12.7l6.4,7.2l-1.3,1.4H60.5z M85.9,72.9l-7.6-8.6V44.2h7.6V72.9z"/>
			<path class="st2" d="M92,75.8l-2.5-2.9V47.1l2.5-2.9h28l2.5,2.9v15.8l-3.8,4.3l3.8,4.3v4.3h-10.2l-7.6-8.6h-5.1v8.6H92z
				 M112.3,58.6v-5.8H97l2.5,2.9v2.9H112.3z"/>
			<path class="st2" d="M128.5,75.8l-2.5-2.9V44.2h7.6l15.3,17.3v-2.9l-2.5-2.9v-8.6l2.5-2.9h7.6v28.8l-2.5,2.9h-5.1l-15.3-17.3v2.9
				l2.5,2.9v11.5H128.5z"/>
			<path class="st2" d="M159.9,75.8v-8.6l20.3-23H193v31.6h-10.2v-2.9h-15.3l-2.5,2.9H159.9z M182.8,67.2v-8.6l2.5-2.9v-2.9
				l-12.7,14.4H182.8z"/>
			<path class="st2" d="M196.4,75.8V44.2l10.2,11.5v11.5h10.2l2.5-2.9h7.6v8.6l-2.5,2.9H196.4z M219.3,55.7l-2.5-2.9h-10.2l-7.6-8.6
				h25.4l2.5,2.9v8.6H219.3z"/>
			<path class="st2" d="M230.4,75.8V44.2l10.2,11.5h12.7l-2.5-2.9h-10.2l-7.6-8.6h25.4l2.5,2.9v14.4h-20.3v5.8h10.2l2.5-2.9h7.6v8.6
				l-2.5,2.9H230.4z"/>
			<path class="st2" d="M283.1,75.8l-2.5-2.9V44.2h7.6l8.9,10.1l8.9-10.1h7.6v28.8l-2.5,2.9h-7.6V64.3l2.5-2.9v-2.9l-8.9,10.1
				l-8.9-10.1v2.9l2.5,2.9v11.5H283.1z"/>
			<path class="st2" d="M317.1,75.8V44.2l10.2,11.5v2.9h7.6v5.8l-2.5,2.9h-5.1v8.6H317.1z M340,55.7l-2.5-2.9h-10.2l-7.6-8.6h25.4
				l2.5,2.9v8.6H340z"/>
		</g>
		<g class="st1">
			<path class="st2" d="M359.7,65.9v-4.1h11v4.1H359.7z"/>
		</g>
		<g class="st1">
			<path class="st2" d="M372.5,75.8V47.1l2.5-2.9h20.3v28.8l-2.5,2.9H372.5z M387.8,67.2V52.8h-7.6v14.4H387.8z"/>
			<path class="st2" d="M398.9,75.8v-2.9L409,61.4h-7.6l-2.5-2.9v-8.6l5.1-5.8h22.9l2.5,2.9v5.8l-20.3,23H398.9z M419.2,55.7v-2.9
				H409l-2.5,2.9H419.2z"/>
		</g>
	</g>
</g>
</svg>
