<?xml version="1.0" encoding="utf-8"?>
<!-- Generator: Adobe Illustrator 24.1.1, SVG Export Plug-In . SVG Version: 6.00 Build 0)  -->
<svg version="1.1" id="Layer_1" xmlns="http://www.w3.org/2000/svg" xmlns:xlink="http://www.w3.org/1999/xlink" x="0px" y="0px"
	 viewBox="0 0 428.3 113.3" style="enable-background:new 0 0 428.3 113.3;" xml:space="preserve">
<style type="text/css">
	.st0{opacity:0.71;}
	.st1{enable-background:new    ;}
	.st2{fill:#FFFFFF;}
</style>
<g>
	<g>
		<g class="st0">
			<polygon points="5.8,21.6 24,5.2 146.9,5.2 163.5,20.2 341.6,20.2 351,28.6 426.9,28.6 426.9,95 400.4,95 386,108.1 25,108.1 
				6,90.9 			"/>
		</g>
		<g>
			<g>
				<polygon points="182.7,0.1 172.4,9.5 187,9.5 197.4,0.1 				"/>
			</g>
			<g>
				<polygon points="212,0.1 201.7,9.5 216.3,9.5 226.6,0.1 				"/>
			</g>
			<g>
				<polygon points="270.5,0.1 260.2,9.5 274.8,9.5 285.1,0.1 				"/>
			</g>
			<g>
				<polygon points="241.3,0.1 230.9,9.5 245.5,9.5 255.9,0.1 				"/>
			</g>
		</g>
		<g>
			<path d="M386.6,109.3H24.4L4.6,91.4v-0.5L4.3,21.1l19-17.2h124.2l16.6,15h178.1l9.4,8.5h76.7v69H401L386.6,109.3z M25.6,106.8
				h359.8l14.4-13h25.6V29.9h-75l-9.4-8.5H162.9l-16.6-15H24.5L7.1,22.1l0.3,68.3L25.6,106.8z"/>
		</g>
		<g>
			<polygon points="426.9,16.4 360.4,16.4 349.6,6.6 293.7,6.6 293.7,4.1 350.7,4.1 361.6,13.9 426.9,13.9 			"/>
		</g>
		<g>
			<polygon points="55,113.3 22.6,113.3 2,94.6 10.1,87.2 27.4,102.8 55,102.8 			"/>
		</g>
		<g>
			<polygon points="388.4,113.3 228.6,113.3 228.6,102.8 383.6,102.8 398,89.8 426.4,89.8 426.4,100.3 402.8,100.3 			"/>
		</g>
		<g>
			<polygon points="0.1,41.1 0,19.5 21.6,0 146.9,0 146.9,10.4 26.4,10.4 11.6,23.8 11.6,41 			"/>
		</g>
	</g>
	<g>
		<g class="st1">
			<path class="st2" d="M31.5,74.7L29,71.8V45.9l2.5-2.9h7.6v11.5h12.7l-2.5-2.9v-8.6h7.6l2.5,2.9v25.9l-2.5,2.9h-7.6V63.2H36.6
				l2.5,2.9v8.6H31.5z"/>
			<path class="st2" d="M62.9,74.7V45.9l2.5-2.9h28v28.8l-2.5,2.9H62.9z M85.8,66.1V51.7H70.6v14.4H85.8z"/>
			<path class="st2" d="M99.5,74.7l-2.5-2.9V43.1h7.6l8.9,10.1l8.9-10.1h7.6v28.8l-2.5,2.9h-7.6V63.2l2.5-2.9v-2.9l-8.9,10.1
				l-8.9-10.1v2.9l2.5,2.9v11.5H99.5z"/>
			<path class="st2" d="M133.4,74.7V45.9l2.5-2.9h28v28.8l-2.5,2.9H133.4z M156.3,66.1V51.7h-15.3v14.4H156.3z"/>
			<path class="st2" d="M167.4,74.7V43.1l10.2,11.5v11.5h10.2l2.5-2.9h-5.1v-5.8h12.7v14.4l-2.5,2.9H167.4z M190.3,54.6l-2.5-2.9
				h-10.2l-7.6-8.6h25.4l2.5,2.9v8.6H190.3z"/>
			<path class="st2" d="M201.4,74.7V43.1l10.2,11.5h12.7l-2.5-2.9h-10.2l-7.6-8.6h25.4l2.5,2.9v14.4h-20.3v5.8h10.2l2.5-2.9h7.6v8.6
				l-2.5,2.9H201.4z"/>
			<path class="st2" d="M237.9,74.7l-2.5-2.9V43.1h7.6l15.3,17.3v-2.9l-2.5-2.9v-8.6l2.5-2.9h7.6v28.8l-2.5,2.9h-5.1L243,57.4v2.9
				l2.5,2.9v11.5H237.9z"/>
			<path class="st2" d="M271.9,74.7l-2.5-2.9V43.1h7.6l2.5,2.9v28.8H271.9z"/>
			<path class="st2" d="M285.5,51.7l-2.5-2.9v-5.8h30.5v8.6H285.5z M285.5,74.7l-2.5-2.9v-7.2l20.3-11.5h10.2V56l-17.8,10.1H311
				l2.5,2.9v5.8H285.5z"/>
			<path class="st2" d="M319.5,74.7l-2.5-2.9V43.1h7.6l2.5,2.9v28.8H319.5z"/>
			<path class="st2" d="M333.2,74.7l-2.5-2.9V43.1h7.6l15.3,17.3v-2.9l-2.5-2.9v-8.6l2.5-2.9h7.6v28.8l-2.5,2.9h-5.1l-15.3-17.3v2.9
				l2.5,2.9v11.5H333.2z"/>
			<path class="st2" d="M364.6,74.7V43.1l10.2,11.5v11.5h10.2l2.5-2.9h-5.1v-5.8h12.7v14.4l-2.5,2.9H364.6z M387.5,54.6l-2.5-2.9
				h-10.2l-7.6-8.6h25.4l2.5,2.9v8.6H387.5z"/>
		</g>
	</g>
</g>
</svg>
