<?xml version="1.0" encoding="utf-8"?>
<!-- Generator: Adobe Illustrator 24.1.1, SVG Export Plug-In . SVG Version: 6.00 Build 0)  -->
<svg version="1.1" id="Layer_1" xmlns="http://www.w3.org/2000/svg" xmlns:xlink="http://www.w3.org/1999/xlink" x="0px" y="0px"
	 viewBox="0 0 386.8 113.3" style="enable-background:new 0 0 386.8 113.3;" xml:space="preserve">
<style type="text/css">
	.st0{opacity:0.71;}
	.st1{enable-background:new    ;}
	.st2{fill:#FFFFFF;}
</style>
<g>
	<g id="Layer_1_1_">
		<g class="st0">
			<polygon points="5.2,21.6 21.7,5.2 132.7,5.2 147.7,20.2 308.5,20.2 317,28.6 385.5,28.6 385.5,95.1 361.7,95.1 348.6,108.1 
				22.6,108.1 5.5,90.9 			"/>
		</g>
		<polygon points="165.1,0.2 155.7,9.5 168.9,9.5 178.3,0.2 		"/>
		<polygon points="191.5,0.2 182.1,9.5 195.4,9.5 204.7,0.2 		"/>
		<polygon points="244.3,0.2 235,9.5 248.2,9.5 257.5,0.2 		"/>
		<polygon points="217.9,0.2 208.6,9.5 221.8,9.5 231.1,0.2 		"/>
		<path d="M349.1,109.4h-327L4.3,91.5V91L4,21.1L21.2,4h112.1l15,15h160.8l8.5,8.5h69.3v68.9h-24.6L349.1,109.4z M23.1,106.8h325
			l13-13h23.1V29.9h-67.8l-8.5-8.5H147.2l-15-15h-110L6.5,22.1l0.2,68.3L23.1,106.8z"/>
		<polygon points="385.5,16.4 325.5,16.4 315.7,6.6 265.3,6.6 265.3,4.1 316.8,4.1 326.6,13.9 385.5,13.9 		"/>
		<polygon points="49.7,113.3 20.5,113.3 1.8,94.7 9.2,87.3 24.8,102.9 49.7,102.9 		"/>
		<polygon points="350.8,113.3 206.5,113.3 206.5,102.9 346.5,102.9 359.5,89.8 385.1,89.8 385.1,100.3 363.8,100.3 		"/>
		<polygon points="0.1,41.1 0,19.5 19.5,0 132.7,0 132.7,10.5 23.8,10.5 10.5,23.8 10.5,41.1 		"/>
		<g class="st1">
			<path class="st2" d="M39,77.7l-2.6-3v-6h7.9v1.5h15.8v-4.5H41.6l-5.3-6v-15h29l2.6,3v6h-7.9v-1.5H44.3v7.5l2.6-3h15.8l5.3,6v15
				H39z"/>
			<path class="st2" d="M81.2,77.7V52.2h-2.6v1.5h-7.9v-6l2.6-3h26.4l2.6,3v6h-7.9v-1.5h-2.6v22.5l-2.6,3H81.2z"/>
			<path class="st2" d="M107.6,77.7l-2.6-3v-30h7.9l2.6,3v30H107.6z"/>
			<path class="st2" d="M118.2,77.7v-33h10.6v21L118.2,77.7z M120.8,77.7l7.9-9h10.6l2.6-3h7.9v9l-2.6,3H120.8z"/>
			<path class="st2" d="M155.1,77.7v-33h10.6v21L155.1,77.7z M157.8,77.7l7.9-9h10.6l2.6-3h7.9v9l-2.6,3H157.8z"/>
			<path class="st2" d="M192.1,77.7v-9l21.1-24h13.2v33h-10.6v-3H200l-2.6,3H192.1z M215.8,68.7v-9l2.6-3v-3l-13.2,15H215.8z"/>
			<path class="st2" d="M229.1,77.7v-33l10.6,12v12h10.6l2.6-3h-5.3v-6h13.2v15l-2.6,3H229.1z M252.8,56.7l-2.6-3h-10.6l-7.9-9h26.4
				l2.6,3v9H252.8z"/>
			<path class="st2" d="M263.4,77.7v-33l10.6,12h13.2l-2.6-3h-10.6l-7.9-9h26.4l2.6,3v15h-21.1v6h10.6l2.6-3h7.9v9l-2.6,3H263.4z"/>
			<path class="st2" d="M313.5,77.7v-3l15.8-18h5.3v-3h-10.6l-2.6,3h-7.9v-6l5.3-6h23.8l2.6,3v6l-13.2,15h13.2v9H313.5z"/>
		</g>
	</g>
</g>
</svg>
