<?xml version="1.0" encoding="utf-8"?>
<!-- Generator: Adobe Illustrator 24.1.1, SVG Export Plug-In . SVG Version: 6.00 Build 0)  -->
<svg version="1.1" id="Layer_1" xmlns="http://www.w3.org/2000/svg" xmlns:xlink="http://www.w3.org/1999/xlink" x="0px" y="0px"
	 viewBox="0 0 393.5 150.8" style="enable-background:new 0 0 393.5 150.8;" xml:space="preserve">
<style type="text/css">
	.st0{opacity:0.71;}
	.st1{enable-background:new    ;}
	.st2{fill:#FFFFFF;}
</style>
<g>
	<g>
		<g class="st0">
			<polygon points="5.3,28.8 22,6.9 135,6.9 150.3,26.8 313.9,26.8 322.5,38.1 392.2,38.1 392.2,126.5 368,126.5 354.7,143.8 
				23,143.8 5.6,121 			"/>
		</g>
		<g>
			<g>
				<polygon points="167.9,0.2 158.4,12.6 171.9,12.6 181.4,0.2 				"/>
			</g>
			<g>
				<polygon points="194.8,0.2 185.3,12.6 198.7,12.6 208.3,0.2 				"/>
			</g>
			<g>
				<polygon points="248.6,0.2 239.1,12.6 252.5,12.6 262,0.2 				"/>
			</g>
			<g>
				<polygon points="221.7,0.2 212.2,12.6 225.6,12.6 235.1,0.2 				"/>
			</g>
		</g>
		<g>
			<path d="M355.2,145.5H22.5L4.3,121.7V121L4,28.1L21.5,5.2h114.1l15.2,19.9h163.6l8.6,11.3h70.5v91.8h-25L355.2,145.5z
				 M23.5,142.1h330.6l13.3-17.3h23.5v-85h-69l-8.6-11.3H149.7L134.5,8.6H22.6l-16,20.9l0.2,90.8L23.5,142.1z"/>
		</g>
		<g>
			<polygon points="392.2,21.8 331.2,21.8 321.2,8.8 269.9,8.8 269.9,5.4 322.3,5.4 332.3,18.5 392.2,18.5 			"/>
		</g>
		<g>
			<polygon points="50.5,150.8 20.8,150.8 1.8,125.9 9.3,116.1 25.2,136.9 50.5,136.9 			"/>
		</g>
		<g>
			<polygon points="356.9,150.8 210.1,150.8 210.1,136.9 352.5,136.9 365.8,119.5 391.8,119.5 391.8,133.4 370.2,133.4 			"/>
		</g>
		<g>
			<polygon points="0.1,54.7 0,25.9 19.8,0 135,0 135,13.9 24.2,13.9 10.6,31.7 10.7,54.6 			"/>
		</g>
	</g>
</g>
<g>
	<g class="st1">
		<path class="st2" d="M98.9,75.8L96.4,73v-5.8h7.6v1.4h15.3v-4.3h-17.8l-5.1-5.8V44.2h28l2.5,2.9v5.8h-7.6v-1.4H104v7.2l2.5-2.9
			h15.3l5.1,5.8v14.4H98.9z"/>
		<path class="st2" d="M144.3,75.8l-14-31.6h8.9l11.4,25.9h1.3l-2.5,5.8H144.3z M167.2,75.8l-8.9-20.1l-5.1,11.5h-2.5l-3.8-8.6h1.3
			l6.4-14.4h7.6l11.4,25.9h1.3l-2.5,5.8H167.2z M173.6,67.2l-3.8-8.6h1.3l6.4-14.4h8.9l-10.2,23H173.6z"/>
		<path class="st2" d="M189.8,75.8v-8.6l20.3-23h12.7v31.6h-10.2V73h-15.3l-2.5,2.9H189.8z M212.6,67.2v-8.6l2.5-2.9v-2.9
			l-12.7,14.4H212.6z"/>
		<path class="st2" d="M228.8,75.8l-2.5-2.9V47.1l2.5-2.9h28l2.5,2.9v15.8l-3.8,4.3l3.8,4.3v4.3h-10.2l-7.6-8.6h-5.1v8.6H228.8z
			 M249.1,58.6v-5.8h-15.3l2.5,2.9v2.9H249.1z"/>
		<path class="st2" d="M262.8,75.8V44.2L273,55.7v2.9h7.6v5.8l-2.5,2.9H273v8.6H262.8z M285.7,55.7l-2.5-2.9H273l-7.6-8.6h25.4
			l2.5,2.9v8.6H285.7z"/>
	</g>
	<g class="st1">
		<path class="st2" d="M53.7,119.8V88.2h25.4l5.1,5.8v8.6l-1.3,1.4l1.3,1.4V117l-2.5,2.9H58.8l7.6-8.6h10.2l-2.5-2.9H61.3l2.5,2.9
			l-7.6,8.6H53.7z M76.6,99.7L74,96.8H61.3l2.5,2.9H76.6z"/>
		<path class="st2" d="M90.2,119.8l-2.5-2.9V91.1l2.5-2.9h28l2.5,2.9v15.8l-3.8,4.3l3.8,4.3v4.3h-10.2l-7.6-8.6h-5.1v8.6H90.2z
			 M110.5,102.6v-5.8H95.3l2.5,2.9v2.9H110.5z"/>
		<path class="st2" d="M126.7,119.8l-2.5-2.9V88.2h7.6l2.5,2.9v28.8H126.7z"/>
		<path class="st2" d="M137.8,119.8V91.1l2.5-2.9h28V117l-2.5,2.9h-2.5l-7.6-8.6v-5.8h5.1v-8.6h-15.3v14.4h7.6l7.6,8.6H137.8z"/>
		<path class="st2" d="M174.3,119.8l-2.5-2.9V91.1l2.5-2.9h5.1v23h12.7l6.4,7.2l-1.3,1.4H174.3z M199.8,117l-7.6-8.6V88.2h7.6V117z"
			/>
		<path class="st2" d="M203.2,119.8V88.2l10.2,11.5h12.7l-2.5-2.9h-10.2l-7.6-8.6h25.4l2.5,2.9v14.4h-20.3v5.8h10.2l2.5-2.9h7.6v8.6
			l-2.5,2.9H203.2z"/>
		<path class="st2" d="M247.4,119.8V95.4h-2.5v1.4h-7.6v-5.8l2.5-2.9h25.4l2.5,2.9v5.8h-7.6v-1.4h-2.5V117l-2.5,2.9H247.4z"/>
		<path class="st2" d="M281.4,119.8V95.4h-2.5v1.4h-7.6v-5.8l2.5-2.9h25.4l2.5,2.9v5.8h-7.6v-1.4h-2.5V117l-2.5,2.9H281.4z"/>
		<path class="st2" d="M307.7,119.8l-2.5-2.9V88.2h7.6l2.5,2.9v28.8H307.7z"/>
		<path class="st2" d="M321.4,119.8l-2.5-2.9V88.2h7.6l15.3,17.3v-2.9l-2.5-2.9v-8.6l2.5-2.9h7.6V117l-2.5,2.9h-5.1l-15.3-17.3v2.9
			l2.5,2.9v11.5H321.4z"/>
	</g>
</g>
</svg>
