<?xml version="1.0" encoding="utf-8"?>
<!-- Generator: Adobe Illustrator 24.1.1, SVG Export Plug-In . SVG Version: 6.00 Build 0)  -->
<svg version="1.1" id="Layer_1" xmlns="http://www.w3.org/2000/svg" xmlns:xlink="http://www.w3.org/1999/xlink" x="0px" y="0px"
	 viewBox="0 0 275.8 113.3" style="enable-background:new 0 0 275.8 113.3;" xml:space="preserve">
<style type="text/css">
	.st0{opacity:0.71;}
	.st1{enable-background:new    ;}
	.st2{fill:#FFFFFF;}
</style>
<g>
	<g>
		<g class="st0">
			<polygon points="3.7,21.6 15.4,5.2 94.7,5.2 105.4,20.2 220.1,20.2 226.1,28.6 275,28.6 275,95 258,95 248.7,108.1 16.1,108.1 
				3.9,90.9 			"/>
		</g>
		<g>
			<g>
				<polygon points="117.7,0.1 111.1,9.5 120.5,9.5 127.2,0.1 				"/>
			</g>
			<g>
				<polygon points="136.6,0.1 129.9,9.5 139.3,9.5 146,0.1 				"/>
			</g>
			<g>
				<polygon points="174.3,0.1 167.6,9.5 177,9.5 183.7,0.1 				"/>
			</g>
			<g>
				<polygon points="155.4,0.1 148.8,9.5 158.2,9.5 164.9,0.1 				"/>
			</g>
		</g>
		<g>
			<path d="M249,109.3H15.7L2.9,91.4v-0.5L2.7,21.1L15,3.9h80l10.7,15h114.7l6,8.5h49.4v69h-17.4L249,109.3z M16.5,106.8h231.8
				l9.3-13h16.5V29.9h-48.4l-6-8.5H105l-10.7-15H15.8L4.6,22.1l0.2,68.3L16.5,106.8z"/>
		</g>
		<g>
			<polygon points="275,16.4 232.2,16.4 225.2,6.6 189.2,6.6 189.2,4.1 226,4.1 232.9,13.9 275,13.9 			"/>
		</g>
		<g>
			<polygon points="35.4,113.3 14.6,113.3 1.3,94.6 6.5,87.2 17.7,102.8 35.4,102.8 			"/>
		</g>
		<g>
			<polygon points="250.2,113.3 147.3,113.3 147.3,102.8 247.1,102.8 256.4,89.8 274.7,89.8 274.7,100.3 259.5,100.3 			"/>
		</g>
		<g>
			<polygon points="0,41.1 0,19.5 13.9,0 94.7,0 94.7,10.4 17,10.4 7.4,23.8 7.5,41 			"/>
		</g>
	</g>
	<g>
		<g class="st1">
			<path class="st2" d="M100.7,79.1l-3.3-3.8V41.6l3.3-3.8h6.6v30h16.6l8.3,9.4l-1.7,1.9H100.7z M133.9,75.4l-9.9-11.3V37.9h9.9
				V75.4z"/>
			<path class="st2" d="M150.5,79.1V47.2h-3.3v1.9h-9.9v-7.5l3.3-3.8h33.2l3.3,3.8v7.5H167v-1.9h-3.3v28.1l-3.3,3.8H150.5z"/>
		</g>
	</g>
</g>
</svg>
