<?xml version="1.0" encoding="utf-8"?>
<!-- Generator: Adobe Illustrator 24.1.1, SVG Export Plug-In . SVG Version: 6.00 Build 0)  -->
<svg version="1.1" id="Layer_1" xmlns="http://www.w3.org/2000/svg" xmlns:xlink="http://www.w3.org/1999/xlink" x="0px" y="0px"
	 viewBox="0 0 393.5 113.2" style="enable-background:new 0 0 393.5 113.2;" xml:space="preserve">
<style type="text/css">
	.st0{opacity:0.71;}
	.st1{fill:#5BB318;}
	.st2{enable-background:new    ;}
	.st3{fill:#FFFFFF;}
</style>
<g>
	<g>
		<g class="st0">
			<polygon class="st1" points="5.3,21.5 22,5.1 135,5.1 150.3,20.1 313.9,20.1 322.5,28.5 392.2,28.5 392.2,94.9 368,94.9 
				354.7,108 23,108 5.6,90.8 			"/>
		</g>
		<g>
			<g>
				<polygon class="st1" points="167.9,0 158.4,9.4 171.9,9.4 181.4,0 				"/>
			</g>
			<g>
				<polygon class="st1" points="194.8,0 185.3,9.4 198.7,9.4 208.3,0 				"/>
			</g>
			<g>
				<polygon class="st1" points="248.6,0 239.1,9.4 252.5,9.4 262,0 				"/>
			</g>
			<g>
				<polygon class="st1" points="221.7,0 212.2,9.4 225.6,9.4 235.1,0 				"/>
			</g>
		</g>
		<g>
			<path class="st1" d="M355.2,109.2H22.5L4.3,91.3v-0.5L4,21L21.5,3.8h114.1l15.2,15h163.6l8.6,8.5h70.5v69h-25L355.2,109.2z
				 M23.5,106.7h330.6l13.3-13h23.5V29.8h-69l-8.6-8.5H149.7l-15.2-15H22.6L6.6,22l0.2,68.3L23.5,106.7z"/>
		</g>
		<g>
			<polygon class="st1" points="392.2,16.3 331.2,16.3 321.2,6.5 269.9,6.5 269.9,4 322.3,4 332.3,13.8 392.2,13.8 			"/>
		</g>
		<g>
			<polygon class="st1" points="50.5,113.2 20.8,113.2 1.8,94.5 9.3,87.1 25.2,102.7 50.5,102.7 			"/>
		</g>
		<g>
			<polygon class="st1" points="356.9,113.2 210.1,113.2 210.1,102.7 352.5,102.7 365.8,89.7 391.8,89.7 391.8,100.2 370.2,100.2 
							"/>
		</g>
		<g>
			<polygon class="st1" points="0.1,41 0,19.4 19.8,-0.1 135,-0.1 135,10.3 24.2,10.3 10.6,23.7 10.7,40.9 			"/>
		</g>
	</g>
	<g>
		<g class="st2">
			<path class="st3" d="M48.2,75.6v-33l10.6,12v12h10.6l2.7-3h8v9l-2.7,3H48.2z M72.1,54.6l-2.7-3H58.8l-8-9h26.5l2.7,3v9H72.1z"/>
			<path class="st3" d="M82.7,75.6v-30l2.7-3h29.2v30l-2.7,3H82.7z M106.6,66.6v-15H90.7v15H106.6z"/>
			<path class="st3" d="M119.8,75.6l-2.7-3v-30h8l15.9,18v-3l-2.7-3v-9l2.7-3h8v30l-2.7,3h-5.3l-15.9-18v3l2.7,3v12H119.8z"/>
			<path class="st3" d="M166.3,75.6l-14.6-33h9.3l11.9,27h1.3l-2.7,6H166.3z M172.9,66.6l-4-9h1.3l6.6-15h9.3l-10.6,24H172.9z"/>
			<path class="st3" d="M188.8,75.6v-33l10.6,12h13.3l-2.7-3h-10.6l-8-9H218l2.7,3v15h-21.2v6H210l2.7-3h8v9l-2.7,3H188.8z"/>
			<path class="st3" d="M233.9,75.6V62.1l-10.6-12v-7.5h6.6l9.3,10.5l9.3-10.5h6.6v7.5l-10.6,12v10.5l-2.7,3H233.9z"/>
			<path class="st3" d="M257.8,75.6v-30l2.7-3h29.2v30l-2.7,3H257.8z M281.6,66.6v-15h-15.9v15H281.6z"/>
			<path class="st3" d="M294.9,75.6l-2.7-3v-27l2.7-3h29.2l2.7,3v16.5l-4,4.5l4,4.5v4.5h-10.6l-8-9h-5.3v9H294.9z M316.1,57.6v-6
				h-15.9l2.7,3v3H316.1z"/>
		</g>
	</g>
</g>
</svg>
