<?xml version="1.0" encoding="utf-8"?>
<!-- Generator: Adobe Illustrator 24.1.1, SVG Export Plug-In . SVG Version: 6.00 Build 0)  -->
<svg version="1.1" id="Layer_1" xmlns="http://www.w3.org/2000/svg" xmlns:xlink="http://www.w3.org/1999/xlink" x="0px" y="0px"
	 viewBox="0 0 412.9 113.3" style="enable-background:new 0 0 412.9 113.3;" xml:space="preserve">
<style type="text/css">
	.st0{opacity:0.71;}
	.st1{fill:#5BB318;}
	.st2{enable-background:new    ;}
	.st3{fill:#FFFFFF;}
</style>
<g>
	<g>
		<g class="st0">
			<polygon class="st1" points="5.6,21.6 23.1,5.2 141.7,5.2 157.7,20.2 329.3,20.2 338.3,28.6 411.5,28.6 411.5,95 386,95 
				372.1,108.1 24.2,108.1 5.8,90.9 			"/>
		</g>
		<g>
			<g>
				<polygon class="st1" points="176.2,0.2 166.2,9.5 180.3,9.5 190.3,0.2 				"/>
			</g>
			<g>
				<polygon class="st1" points="204.4,0.2 194.4,9.5 208.5,9.5 218.5,0.2 				"/>
			</g>
			<g>
				<polygon class="st1" points="260.8,0.2 250.8,9.5 264.9,9.5 274.9,0.2 				"/>
			</g>
			<g>
				<polygon class="st1" points="232.6,0.2 222.6,9.5 236.7,9.5 246.7,0.2 				"/>
			</g>
		</g>
		<g>
			<path class="st1" d="M372.7,109.4H23.6L4.5,91.5V91L4.2,21.2L22.5,4h119.7l16,15h171.7l9,8.5h74v69h-26.3L372.7,109.4z
				 M24.7,106.8h346.8l13.9-13h24.7V29.9h-72.4l-9-8.5H157.1l-16-15H23.7L7,22.1l0.3,68.3L24.7,106.8z"/>
		</g>
		<g>
			<polygon class="st1" points="411.5,16.4 347.5,16.4 337,6.6 283.2,6.6 283.2,4.1 338.1,4.1 348.6,13.9 411.5,13.9 			"/>
		</g>
		<g>
			<polygon class="st1" points="53,113.3 21.8,113.3 1.9,94.6 9.8,87.2 26.5,102.9 53,102.9 			"/>
		</g>
		<g>
			<polygon class="st1" points="374.4,113.3 220.4,113.3 220.4,102.9 369.8,102.9 383.7,89.8 411,89.8 411,100.3 388.3,100.3 			"/>
		</g>
		<g>
			<polygon class="st1" points="0.1,41.1 0,19.5 20.8,0 141.7,0 141.7,10.4 25.4,10.4 11.2,23.8 11.2,41.1 			"/>
		</g>
	</g>
	<g>
		<g class="st2">
			<path class="st3" d="M29.2,76.7v-33l10.6,12v12h10.6l2.7-3h8v9l-2.7,3H29.2z M53.1,55.7l-2.7-3H39.9l-8-9h26.5l2.7,3v9H53.1z"/>
			<path class="st3" d="M63.7,76.7v-30l2.7-3h29.2v30l-2.7,3H63.7z M87.6,67.7v-15H71.7v15H87.6z"/>
			<path class="st3" d="M98.2,76.7v-30l2.7-3H130v30l-2.7,3H98.2z M122.1,67.7v-15h-15.9v15H122.1z"/>
			<path class="st3" d="M132.7,76.7v-33h10.6v21L132.7,76.7z M135.3,76.7l8-9h10.6l2.7-3h8v9l-2.7,3H135.3z"/>
			<path class="st3" d="M172.5,76.7l-2.7-3v-30h8l2.7,3v30H172.5z"/>
			<path class="st3" d="M185.7,76.7l-2.7-3v-30h8l15.9,18v-3l-2.7-3v-9l2.7-3h8v30l-2.7,3H207l-15.9-18v3l2.7,3v12H185.7z"/>
			<path class="st3" d="M217.6,76.7v-33l10.6,12v12h10.6l2.7-3h-5.3v-6h13.3v15l-2.7,3H217.6z M241.4,55.7l-2.7-3h-10.6l-8-9h26.5
				l2.7,3v9H241.4z"/>
			<path class="st3" d="M278.6,76.7V51.2h-2.7v1.5h-8v-6l2.7-3h26.5l2.7,3v6h-8v-1.5h-2.7v22.5l-2.7,3H278.6z"/>
			<path class="st3" d="M317,76.7l-14.6-33h9.3l11.9,27h1.3l-2.7,6H317z M340.9,76.7l-9.3-21l-5.3,12h-2.7l-4-9h1.3l6.6-15h8
				l11.9,27h1.3l-2.7,6H340.9z M347.5,67.7l-4-9h1.3l6.6-15h9.3l-10.6,24H347.5z"/>
			<path class="st3" d="M363.4,76.7v-30l2.7-3h29.2v30l-2.7,3H363.4z M387.3,67.7v-15h-15.9v15H387.3z"/>
		</g>
	</g>
</g>
</svg>
