<?xml version="1.0" encoding="utf-8"?>
<!-- Generator: Adobe Illustrator 24.1.1, SVG Export Plug-In . SVG Version: 6.00 Build 0)  -->
<svg version="1.1" id="Layer_1" xmlns="http://www.w3.org/2000/svg" xmlns:xlink="http://www.w3.org/1999/xlink" x="0px" y="0px"
	 viewBox="0 0 446.7 113.3" style="enable-background:new 0 0 446.7 113.3;" xml:space="preserve">
<style type="text/css">
	.st0{opacity:0.71;}
	.st1{fill:#5BB318;}
	.st2{enable-background:new    ;}
	.st3{fill:#FFFFFF;}
</style>
<g>
	<g>
		<g class="st0">
			<polygon class="st1" points="6,21.6 25,5.2 153.2,5.2 170.5,20.2 356.2,20.2 366,28.6 445.1,28.6 445.1,95 417.6,95 402.5,108.1 
				26.1,108.1 6.3,90.9 			"/>
		</g>
		<g>
			<g>
				<polygon class="st1" points="190.6,0.1 179.8,9.5 195,9.5 205.8,0.1 				"/>
			</g>
			<g>
				<polygon class="st1" points="221.1,0.1 210.3,9.5 225.5,9.5 236.3,0.1 				"/>
			</g>
			<g>
				<polygon class="st1" points="282.1,0.1 271.3,9.5 286.5,9.5 297.3,0.1 				"/>
			</g>
			<g>
				<polygon class="st1" points="251.6,0.1 240.8,9.5 256,9.5 266.8,0.1 				"/>
			</g>
		</g>
		<g>
			<path class="st1" d="M403.1,109.3H25.5L4.9,91.4v-0.5L4.6,21.1L24.4,3.9h129.5l17.3,15h185.7l9.8,8.5h80v69h-28.4L403.1,109.3z
				 M26.7,106.8h375.2l15.1-13h26.7V29.9h-78.3l-9.8-8.5H169.9l-17.3-15h-127L7.5,22.1l0.3,68.3L26.7,106.8z"/>
		</g>
		<g>
			<polygon class="st1" points="445.1,16.4 375.9,16.4 364.5,6.6 306.3,6.6 306.3,4.1 365.7,4.1 377.1,13.9 445.1,13.9 			"/>
		</g>
		<g>
			<polygon class="st1" points="57.3,113.3 23.6,113.3 2,94.6 10.6,87.2 28.6,102.8 57.3,102.8 			"/>
		</g>
		<g>
			<polygon class="st1" points="405,113.3 238.4,113.3 238.4,102.8 400,102.8 415.1,89.8 444.6,89.8 444.6,100.3 420.1,100.3 			"/>
		</g>
		<g>
			<polygon class="st1" points="0.1,41.1 0,19.5 22.5,0 153.2,0 153.2,10.4 27.5,10.4 12.1,23.8 12.1,41 			"/>
		</g>
	</g>
	<g>
		<g class="st2">
			<path class="st3" d="M24,75.8V44.2l10.2,11.5v2.9h7.6v5.8l-2.5,2.9h-5.1v8.6H24z M46.9,55.7l-2.5-2.9H34.2l-7.6-8.6H52l2.5,2.9
				v8.6H46.9z"/>
			<path class="st3" d="M59.6,75.8L57,72.9V47.1l2.5-2.9h5.1v23h12.7l6.4,7.2l-1.3,1.4H59.6z M85,72.9l-7.6-8.6V44.2H85V72.9z"/>
			<path class="st3" d="M90.1,75.8l-2.5-2.9V47.1l2.5-2.9h28l2.5,2.9v15.8l-3.8,4.3l3.8,4.3v4.3h-10.2l-7.6-8.6h-5.1v8.6H90.1z
				 M110.4,58.6v-5.8H95.2l2.5,2.9v2.9H110.4z"/>
			<path class="st3" d="M125.7,75.8l-2.5-2.9V44.2h7.6L146,61.4v-2.9l-2.5-2.9v-8.6l2.5-2.9h7.6v28.8l-2.5,2.9H146l-15.3-17.3v2.9
				l2.5,2.9v11.5H125.7z"/>
			<path class="st3" d="M156.2,75.8v-8.6l20.3-23h12.7v31.6H179v-2.9h-15.3l-2.5,2.9H156.2z M179,67.2v-8.6l2.5-2.9v-2.9l-12.7,14.4
				H179z"/>
			<path class="st3" d="M191.8,75.8V44.2l10.2,11.5v11.5h10.2l2.5-2.9h7.6v8.6l-2.5,2.9H191.8z M214.6,55.7l-2.5-2.9h-10.2l-7.6-8.6
				h25.4l2.5,2.9v8.6H214.6z"/>
			<path class="st3" d="M224.8,75.8V44.2L235,55.7h12.7l-2.5-2.9H235l-7.6-8.6h25.4l2.5,2.9v14.4H235v5.8h10.2l2.5-2.9h7.6v8.6
				l-2.5,2.9H224.8z"/>
			<path class="st3" d="M275.6,75.8l-2.5-2.9V44.2h7.6l8.9,10.1l8.9-10.1h7.6v28.8l-2.5,2.9H296V64.3l2.5-2.9v-2.9l-8.9,10.1
				l-8.9-10.1v2.9l2.5,2.9v11.5H275.6z"/>
			<path class="st3" d="M308.7,75.8V44.2l10.2,11.5v2.9h7.6v5.8l-2.5,2.9h-5.1v8.6H308.7z M331.6,55.7l-2.5-2.9h-10.2l-7.6-8.6h25.4
				l2.5,2.9v8.6H331.6z"/>
		</g>
		<g class="st2">
			<path class="st3" d="M359.7,65.9v-4.1h11v4.1H359.7z"/>
		</g>
		<g class="st2">
			<path class="st3" d="M372.5,75.8V47.1l2.5-2.9h20.3v28.8l-2.5,2.9H372.5z M387.8,67.2V52.8h-7.6v14.4H387.8z"/>
			<path class="st3" d="M397.9,75.8v-2.9l10.2-11.5h-7.6l-2.5-2.9v-8.6l5.1-5.8h22.9l2.5,2.9v5.8l-20.3,23H397.9z M418.3,55.7v-2.9
				h-10.2l-2.5,2.9H418.3z"/>
		</g>
	</g>
</g>
</svg>
