<?xml version="1.0" encoding="utf-8"?>
<!-- Generator: Adobe Illustrator 24.1.1, SVG Export Plug-In . SVG Version: 6.00 Build 0)  -->
<svg version="1.1" id="Layer_1" xmlns="http://www.w3.org/2000/svg" xmlns:xlink="http://www.w3.org/1999/xlink" x="0px" y="0px"
	 viewBox="0 0 378.1 113.3" style="enable-background:new 0 0 378.1 113.3;" xml:space="preserve">
<style type="text/css">
	.st0{opacity:0.71;}
	.st1{fill:#5BB318;}
	.st2{enable-background:new    ;}
	.st3{fill:#FFFFFF;}
</style>
<g>
	<g>
		<g class="st0">
			<polygon class="st1" points="5.1,21.6 21.2,5.2 129.8,5.2 144.4,20.2 301.6,20.2 309.9,28.6 376.9,28.6 376.9,95 353.5,95 
				340.8,108.1 22.1,108.1 5.3,90.9 			"/>
		</g>
		<g>
			<g>
				<polygon class="st1" points="161.4,0.1 152.2,9.5 165.1,9.5 174.3,0.1 				"/>
			</g>
			<g>
				<polygon class="st1" points="187.2,0.1 178,9.5 191,9.5 200.1,0.1 				"/>
			</g>
			<g>
				<polygon class="st1" points="238.8,0.1 229.7,9.5 242.6,9.5 251.7,0.1 				"/>
			</g>
			<g>
				<polygon class="st1" points="213,0.1 203.9,9.5 216.8,9.5 225.9,0.1 				"/>
			</g>
		</g>
		<g>
			<path class="st1" d="M341.3,109.3H21.6L4.1,91.4v-0.5L3.9,21.1L20.7,3.9h109.6l14.6,15h157.2l8.3,8.5h67.7v69H354L341.3,109.3z
				 M22.6,106.8h317.7l12.8-13h22.6V29.9h-66.3l-8.3-8.5H143.9l-14.6-15H21.7L6.4,22.1l0.2,68.3L22.6,106.8z"/>
		</g>
		<g>
			<polygon class="st1" points="376.9,16.4 318.2,16.4 308.6,6.6 259.3,6.6 259.3,4.1 309.7,4.1 319.3,13.9 376.9,13.9 			"/>
		</g>
		<g>
			<polygon class="st1" points="48.5,113.3 20,113.3 1.7,94.6 8.9,87.2 24.2,102.8 48.5,102.8 			"/>
		</g>
		<g>
			<polygon class="st1" points="342.9,113.3 201.9,113.3 201.9,102.8 338.7,102.8 351.4,89.8 376.4,89.8 376.4,100.3 355.7,100.3 
							"/>
		</g>
		<g>
			<polygon class="st1" points="0.1,41.1 0,19.5 19,0 129.8,0 129.8,10.4 23.3,10.4 10.2,23.8 10.3,41 			"/>
		</g>
	</g>
	<g>
		<g class="st2">
			<path class="st3" d="M62.2,77.7v-33h10.6v21L62.2,77.7z M64.9,77.7l8-9h10.6l2.7-3h8v9l-2.7,3H64.9z"/>
			<path class="st3" d="M99.4,77.7v-9l21.2-24h13.3v33h-10.6v-3h-15.9l-2.7,3H99.4z M123.2,68.7v-9l2.7-3v-3l-13.3,15H123.2z"/>
			<path class="st3" d="M139.1,77.7l-2.7-3v-27l2.7-3h5.3v24h13.3l6.6,7.5l-1.3,1.5H139.1z M165.7,74.7l-8-9v-21h8V74.7z"/>
			<path class="st3" d="M171,77.7l-2.7-3v-30h8l15.9,18v-3l-2.7-3v-9l2.7-3h8v30l-2.7,3h-5.3l-15.9-18v3l2.7,3v12H171z"/>
			<path class="st3" d="M202.8,77.7v-33l10.6,12v12H224l2.7-3v-9l-2.7-3h-10.6l-8-9h23.9l5.3,6v21l-5.3,6H202.8z"/>
			<path class="st3" d="M237.3,77.7v-33l10.6,12h13.3l-2.7-3h-10.6l-8-9h26.5l2.7,3v15h-21.2v6h10.6l2.7-3h8v9l-2.7,3H237.3z"/>
			<path class="st3" d="M274.4,77.7l-2.7-3v-27l2.7-3h29.2l2.7,3v16.5l-4,4.5l4,4.5v4.5h-10.6l-8-9h-5.3v9H274.4z M295.6,59.7v-6
				h-15.9l2.7,3v3H295.6z"/>
		</g>
	</g>
</g>
</svg>
