<?xml version="1.0" encoding="utf-8"?>
<!-- Generator: Adobe Illustrator 28.0.0, SVG Export Plug-In . SVG Version: 6.00 Build 0)  -->
<svg version="1.1" id="Layer_1" xmlns="http://www.w3.org/2000/svg" xmlns:xlink="http://www.w3.org/1999/xlink" x="0px" y="0px"
	 viewBox="0 0 275.9 113.3" style="enable-background:new 0 0 275.9 113.3;" xml:space="preserve">
<style type="text/css">
	.st0{opacity:0.71;}
	.st1{fill:#92B81B;}
	.st2{fill:#027CC3;}
	.st3{enable-background:new    ;}
	.st4{fill:#FFFFFF;}
	.st5{fill:none;stroke:#0000FF;stroke-miterlimit:10;}
</style>
<g>
	<g id="Layer_1_00000104697339889525026500000006396169913624736679_">
		<g class="st0">
			<polygon points="3.7,21.6 15.4,5.2 94.7,5.2 105.4,20.2 220.1,20.2 226.1,28.6 275,28.6 275,95.1 258,95.1 248.7,108.1 
				16.1,108.1 3.9,90.9 			"/>
		</g>
		<polygon class="st1" points="117.8,0.2 111.1,9.5 120.5,9.5 127.2,0.2 		"/>
		<polygon class="st1" points="136.6,0.2 129.9,9.5 139.4,9.5 146,0.2 		"/>
		<polygon class="st1" points="174.3,0.2 167.6,9.5 177,9.5 183.7,0.2 		"/>
		<polygon class="st1" points="155.4,0.2 148.8,9.5 158.2,9.5 164.9,0.2 		"/>
		<path class="st1" d="M249.1,109.4H15.8L3,91.5V91L2.8,21.1L15.1,4h80l10.7,15h114.7l6,8.5h49.5v68.9h-17.5L249.1,109.4z
			 M16.5,106.8h231.8l9.3-13h16.5V29.9h-48.3l-6-8.5H105l-10.7-15H15.8L4.7,22.1l0.2,68.3L16.5,106.8z"/>
		<polygon class="st2" points="275,16.4 232.2,16.4 225.2,6.6 189.2,6.6 189.2,4.1 226,4.1 233,13.9 275,13.9 		"/>
		<polygon class="st2" points="35.4,113.3 14.6,113.3 1.3,94.7 6.5,87.3 17.7,102.9 35.4,102.9 		"/>
		<polygon class="st2" points="250.2,113.3 147.3,113.3 147.3,102.9 247.1,102.9 256.4,89.8 274.7,89.8 274.7,100.3 259.5,100.3 		
			"/>
		<polygon class="st2" points="0.1,41.1 0,19.5 13.9,0 94.7,0 94.7,10.5 17,10.5 7.5,23.8 7.5,41.1 		"/>
		<g class="st3">
			<path class="st4" d="M64.4,80.2V38.9l13.2,15v15h13.2l3.3-3.8h9.9v11.2l-3.3,3.8H64.4z M94.1,53.9l-3.3-3.8H77.6l-9.9-11.2h33
				l3.3,3.8v11.2H94.1z"/>
			<path class="st4" d="M107.3,80.2V38.9l13.2,15v3.8h9.9v7.5l-3.3,3.8h-6.6v11.2H107.3z M137,53.9l-3.3-3.8h-13.2l-9.9-11.2h33
				l3.3,3.8v11.2H137z"/>
			<path class="st4" d="M150.2,80.2V38.9l13.2,15v3.8h9.9v7.5l-3.3,3.8h-6.6v11.2H150.2z M179.9,53.9l-3.3-3.8h-13.2l-9.9-11.2h33
				l3.3,3.8v11.2H179.9z"/>
		</g>
		<g class="st3">
			<path class="st5" d="M64.4,80.2V38.9l13.2,15v15h13.2l3.3-3.8h9.9v11.2l-3.3,3.8H64.4z M94.1,53.9l-3.3-3.8H77.6l-9.9-11.2h33
				l3.3,3.8v11.2H94.1z"/>
			<path class="st5" d="M107.3,80.2V38.9l13.2,15v3.8h9.9v7.5l-3.3,3.8h-6.6v11.2H107.3z M137,53.9l-3.3-3.8h-13.2l-9.9-11.2h33
				l3.3,3.8v11.2H137z"/>
			<path class="st5" d="M150.2,80.2V38.9l13.2,15v3.8h9.9v7.5l-3.3,3.8h-6.6v11.2H150.2z M179.9,53.9l-3.3-3.8h-13.2l-9.9-11.2h33
				l3.3,3.8v11.2H179.9z"/>
		</g>
	</g>
</g>
</svg>
