<?xml version="1.0" encoding="utf-8"?>
<!-- Generator: Adobe Illustrator 28.0.0, SVG Export Plug-In . SVG Version: 6.00 Build 0)  -->
<svg version="1.1" id="Layer_1" xmlns="http://www.w3.org/2000/svg" xmlns:xlink="http://www.w3.org/1999/xlink" x="0px" y="0px"
	 viewBox="0 0 392.3 150.8" style="enable-background:new 0 0 392.3 150.8;" xml:space="preserve">
<style type="text/css">
	.st0{opacity:0.71;}
	.st1{fill:#92B81B;}
	.st2{fill:#027CC3;}
	.st3{enable-background:new    ;}
	.st4{fill:#FFFFFF;}
	.st5{fill:none;stroke:#0000FF;stroke-miterlimit:10;}
</style>
<g>
	<g>
		<g class="st0">
			<polygon points="5.3,28.8 22,7 135.1,7 150.3,26.9 313.9,26.9 322.5,38.1 392.3,38.1 392.3,126.5 368,126.5 354.7,143.9 
				23,143.9 5.6,121 			"/>
		</g>
		<g>
			<g>
				<polygon class="st1" points="168,0.2 158.5,12.7 171.9,12.7 181.4,0.2 				"/>
			</g>
			<g>
				<polygon class="st1" points="194.8,0.2 185.3,12.7 198.8,12.7 208.3,0.2 				"/>
			</g>
			<g>
				<polygon class="st1" points="248.6,0.2 239.1,12.7 252.5,12.7 262.1,0.2 				"/>
			</g>
			<g>
				<polygon class="st1" points="221.7,0.2 212.2,12.7 225.6,12.7 235.2,0.2 				"/>
			</g>
		</g>
		<g>
			<path class="st1" d="M355.3,145.6H22.5L4.3,121.8v-0.7L4,28.1L21.5,5.3h114.1l15.2,19.9h163.6l8.6,11.2h70.5v91.8h-25
				L355.3,145.6z M23.6,142.2h330.6l13.3-17.4H391v-85h-69l-8.6-11.2H149.8L134.5,8.6H22.6l-16,20.9l0.2,90.8L23.6,142.2z"/>
		</g>
		<g>
			<polygon class="st2" points="392.3,21.9 331.2,21.9 321.3,8.8 269.9,8.8 269.9,5.4 322.3,5.4 332.3,18.5 392.3,18.5 			"/>
		</g>
		<g>
			<polygon class="st2" points="50.5,150.8 20.8,150.8 1.8,126 9.3,116.1 25.2,136.9 50.5,136.9 			"/>
		</g>
		<g>
			<polygon class="st2" points="356.9,150.8 210.1,150.8 210.1,136.9 352.5,136.9 365.8,119.6 391.8,119.6 391.8,133.5 370.2,133.5 
							"/>
		</g>
		<g>
			<polygon class="st2" points="0.1,54.7 0,25.9 19.8,0 135.1,0 135.1,13.9 24.2,13.9 10.7,31.7 10.7,54.7 			"/>
		</g>
	</g>
	<g>
		<g class="st3">
			<path class="st4" d="M53.9,77.7v-33l10.6,12v12h10.6l2.7-3h8v9l-2.7,3H53.9z M77.8,56.7l-2.7-3H64.5l-8-9h26.5l2.7,3v9H77.8z"/>
			<path class="st4" d="M91,77.7l-2.7-3v-27l2.7-3h8v12h13.3l-2.7-3v-9h8l2.7,3v27l-2.7,3h-8v-12H96.3l2.7,3v9H91z"/>
			<path class="st4" d="M122.8,77.7v-9l21.2-24h13.3v33h-10.6v-3h-15.9l-2.7,3H122.8z M146.7,68.7v-9l2.7-3v-3l-13.3,15H146.7z"/>
			<path class="st4" d="M162.6,77.7l-2.7-3v-27l2.7-3h29.2l2.7,3v16.5l-4,4.5l4,4.5v4.5h-10.6l-8-9h-5.3v9H162.6z M183.8,59.7v-6
				h-15.9l2.7,3v3H183.8z"/>
			<path class="st4" d="M197.1,77.7v-33l10.6,12v12h10.6l2.7-3h-5.3v-6h13.3v15l-2.7,3H197.1z M221,56.7l-2.7-3h-10.6l-8-9h26.5
				l2.7,3v9H221z"/>
			<path class="st4" d="M234.2,77.7l-2.7-3v-30h8l2.7,3v30H234.2z"/>
			<path class="st4" d="M247.5,77.7l-2.7-3v-30h8l15.9,18v-3l-2.7-3v-9l2.7-3h8v30l-2.7,3h-5.3l-15.9-18v3l2.7,3v12H247.5z"/>
			<path class="st4" d="M279.3,77.7v-33l10.6,12v12h10.6l2.7-3h-5.3v-6h13.3v15l-2.7,3H279.3z M303.2,56.7l-2.7-3h-10.6l-8-9h26.5
				l2.7,3v9H303.2z"/>
		</g>
		<g class="st3">
			<path class="st5" d="M53.9,77.7v-33l10.6,12v12h10.6l2.7-3h8v9l-2.7,3H53.9z M77.8,56.7l-2.7-3H64.5l-8-9h26.5l2.7,3v9H77.8z"/>
			<path class="st5" d="M91,77.7l-2.7-3v-27l2.7-3h8v12h13.3l-2.7-3v-9h8l2.7,3v27l-2.7,3h-8v-12H96.3l2.7,3v9H91z"/>
			<path class="st5" d="M122.8,77.7v-9l21.2-24h13.3v33h-10.6v-3h-15.9l-2.7,3H122.8z M146.7,68.7v-9l2.7-3v-3l-13.3,15H146.7z"/>
			<path class="st5" d="M162.6,77.7l-2.7-3v-27l2.7-3h29.2l2.7,3v16.5l-4,4.5l4,4.5v4.5h-10.6l-8-9h-5.3v9H162.6z M183.8,59.7v-6
				h-15.9l2.7,3v3H183.8z"/>
			<path class="st5" d="M197.1,77.7v-33l10.6,12v12h10.6l2.7-3h-5.3v-6h13.3v15l-2.7,3H197.1z M221,56.7l-2.7-3h-10.6l-8-9h26.5
				l2.7,3v9H221z"/>
			<path class="st5" d="M234.2,77.7l-2.7-3v-30h8l2.7,3v30H234.2z"/>
			<path class="st5" d="M247.5,77.7l-2.7-3v-30h8l15.9,18v-3l-2.7-3v-9l2.7-3h8v30l-2.7,3h-5.3l-15.9-18v3l2.7,3v12H247.5z"/>
			<path class="st5" d="M279.3,77.7v-33l10.6,12v12h10.6l2.7-3h-5.3v-6h13.3v15l-2.7,3H279.3z M303.2,56.7l-2.7-3h-10.6l-8-9h26.5
				l2.7,3v9H303.2z"/>
		</g>
		<g class="st3">
			<path class="st4" d="M96.3,122.7v-33h26.5l5.3,6v9l-1.3,1.5l1.3,1.5v12l-2.7,3h-23.9l8-9h10.6l-2.7-3h-13.3l2.7,3l-8,9H96.3z
				 M120.2,101.7l-2.7-3h-13.3l2.7,3H120.2z"/>
			<path class="st4" d="M133.5,122.7l-2.7-3v-30h8l2.7,3v30H133.5z"/>
			<path class="st4" d="M144.1,122.7v-33h10.6v21L144.1,122.7z M146.7,122.7l8-9h10.6l2.7-3h8v9l-2.7,3H146.7z"/>
			<path class="st4" d="M181.2,122.7v-33h10.6v21L181.2,122.7z M183.8,122.7l8-9h10.6l2.7-3h8v9l-2.7,3H183.8z"/>
			<path class="st4" d="M218.3,122.7v-33l10.6,12h13.3l-2.7-3h-10.6l-8-9h26.5l2.7,3v15h-21.2v6h10.6l2.7-3h8v9l-2.7,3H218.3z"/>
			<path class="st4" d="M263.4,122.7V97.2h-2.7v1.5h-8v-6l2.7-3H282l2.7,3v6h-8v-1.5H274v22.5l-2.7,3H263.4z"/>
		</g>
		<g class="st3">
			<path class="st5" d="M96.3,122.7v-33h26.5l5.3,6v9l-1.3,1.5l1.3,1.5v12l-2.7,3h-23.9l8-9h10.6l-2.7-3h-13.3l2.7,3l-8,9H96.3z
				 M120.2,101.7l-2.7-3h-13.3l2.7,3H120.2z"/>
			<path class="st5" d="M133.5,122.7l-2.7-3v-30h8l2.7,3v30H133.5z"/>
			<path class="st5" d="M144.1,122.7v-33h10.6v21L144.1,122.7z M146.7,122.7l8-9h10.6l2.7-3h8v9l-2.7,3H146.7z"/>
			<path class="st5" d="M181.2,122.7v-33h10.6v21L181.2,122.7z M183.8,122.7l8-9h10.6l2.7-3h8v9l-2.7,3H183.8z"/>
			<path class="st5" d="M218.3,122.7v-33l10.6,12h13.3l-2.7-3h-10.6l-8-9h26.5l2.7,3v15h-21.2v6h10.6l2.7-3h8v9l-2.7,3H218.3z"/>
			<path class="st5" d="M263.4,122.7V97.2h-2.7v1.5h-8v-6l2.7-3H282l2.7,3v6h-8v-1.5H274v22.5l-2.7,3H263.4z"/>
		</g>
	</g>
</g>
</svg>
