<?xml version="1.0" encoding="utf-8"?>
<!-- Generator: Adobe Illustrator 28.0.0, SVG Export Plug-In . SVG Version: 6.00 Build 0)  -->
<svg version="1.1" id="Layer_1" xmlns="http://www.w3.org/2000/svg" xmlns:xlink="http://www.w3.org/1999/xlink" x="0px" y="0px"
	 viewBox="0 0 412.9 113.2" style="enable-background:new 0 0 412.9 113.2;" xml:space="preserve">
<style type="text/css">
	.st0{opacity:0.71;}
	.st1{fill:#92B81B;}
	.st2{fill:#027CC3;}
	.st3{enable-background:new    ;}
	.st4{fill:#FFFFFF;}
	.st5{fill:none;stroke:#0000FF;stroke-miterlimit:10;}
</style>
<g>
	<g>
		<g class="st0">
			<polygon points="5.6,21.5 23.1,5.1 141.7,5.1 157.7,20 329.3,20 338.3,28.5 411.5,28.5 411.5,94.9 386,94.9 372.1,107.9 
				24.2,107.9 5.9,90.8 			"/>
		</g>
		<g>
			<g>
				<polygon class="st1" points="176.2,0 166.2,9.4 180.3,9.4 190.3,0 				"/>
			</g>
			<g>
				<polygon class="st1" points="204.4,0 194.4,9.4 208.5,9.4 218.5,0 				"/>
			</g>
			<g>
				<polygon class="st1" points="260.8,0 250.8,9.4 264.9,9.4 274.9,0 				"/>
			</g>
			<g>
				<polygon class="st1" points="232.6,0 222.6,9.4 236.7,9.4 246.7,0 				"/>
			</g>
		</g>
		<g>
			<path class="st1" d="M372.7,109.2H23.6L4.5,91.3v-0.5L4.2,21L22.6,3.8h119.7l16,15h171.7l9,8.5h74v69h-26.3L372.7,109.2z
				 M24.7,106.7h346.8l13.9-13h24.7V29.8h-72.4l-9-8.5H157.1l-16-15H23.7L7,22l0.2,68.2L24.7,106.7z"/>
		</g>
		<g>
			<polygon class="st2" points="411.5,16.3 347.5,16.3 337,6.5 283.2,6.5 283.2,3.9 338.1,3.9 348.6,13.7 411.5,13.7 			"/>
		</g>
		<g>
			<polygon class="st2" points="53,113.2 21.8,113.2 1.9,94.5 9.8,87.1 26.5,102.7 53,102.7 			"/>
		</g>
		<g>
			<polygon class="st2" points="374.4,113.2 220.4,113.2 220.4,102.7 369.8,102.7 383.7,89.7 411,89.7 411,100.1 388.3,100.1 			"/>
		</g>
		<g>
			<polygon class="st2" points="0.1,40.9 0,19.3 20.8,-0.2 141.7,-0.2 141.7,10.3 25.4,10.3 11.2,23.6 11.2,40.9 			"/>
		</g>
	</g>
	<g>
		<g class="st3">
			<path class="st4" d="M36.2,75.6v-33l10.6,12v12h10.6l2.7-3h8v9l-2.7,3H36.2z M60.1,54.6l-2.7-3H46.9l-8-9h26.5l2.7,3v9H60.1z"/>
			<path class="st4" d="M70.7,75.6v-30l2.7-3h29.2v30l-2.7,3H70.7z M94.6,66.6v-15H78.7v15H94.6z"/>
			<path class="st4" d="M105.2,75.6v-30l2.7-3H137v30l-2.7,3H105.2z M129.1,66.6v-15h-15.9v15H129.1z"/>
			<path class="st4" d="M139.7,75.6v-33h10.6v21L139.7,75.6z M142.3,75.6l8-9h10.6l2.7-3h8v9l-2.7,3H142.3z"/>
			<path class="st4" d="M179.5,75.6l-2.7-3v-30h8l2.7,3v30H179.5z"/>
			<path class="st4" d="M192.7,75.6l-2.7-3v-30h8l15.9,18v-3l-2.7-3v-9l2.7-3h8v30l-2.7,3H214l-15.9-18v3l2.7,3v12H192.7z"/>
			<path class="st4" d="M224.6,75.6v-33l10.6,12v12h10.6l2.7-3h-5.3v-6h13.3v15l-2.7,3H224.6z M248.4,54.6l-2.7-3h-10.6l-8-9h26.5
				l2.7,3v9H248.4z"/>
			<path class="st4" d="M275,75.6v-30l2.7-3h29.2v30l-2.7,3H275z M298.8,66.6v-15h-15.9v15H298.8z"/>
			<path class="st4" d="M312.1,75.6l-2.7-3v-30h8l15.9,18v-3l-2.7-3v-9l2.7-3h8v30l-2.7,3h-5.3l-15.9-18v3l2.7,3v12H312.1z"/>
			<path class="st4" d="M343.9,75.6v-33l10.6,12h13.3l-2.7-3h-10.6l-8-9h26.5l2.7,3v15h-21.2v6h10.6l2.7-3h8v9l-2.7,3H343.9z"/>
		</g>
		<g class="st3">
			<path class="st5" d="M36.2,75.6v-33l10.6,12v12h10.6l2.7-3h8v9l-2.7,3H36.2z M60.1,54.6l-2.7-3H46.9l-8-9h26.5l2.7,3v9H60.1z"/>
			<path class="st5" d="M70.7,75.6v-30l2.7-3h29.2v30l-2.7,3H70.7z M94.6,66.6v-15H78.7v15H94.6z"/>
			<path class="st5" d="M105.2,75.6v-30l2.7-3H137v30l-2.7,3H105.2z M129.1,66.6v-15h-15.9v15H129.1z"/>
			<path class="st5" d="M139.7,75.6v-33h10.6v21L139.7,75.6z M142.3,75.6l8-9h10.6l2.7-3h8v9l-2.7,3H142.3z"/>
			<path class="st5" d="M179.5,75.6l-2.7-3v-30h8l2.7,3v30H179.5z"/>
			<path class="st5" d="M192.7,75.6l-2.7-3v-30h8l15.9,18v-3l-2.7-3v-9l2.7-3h8v30l-2.7,3H214l-15.9-18v3l2.7,3v12H192.7z"/>
			<path class="st5" d="M224.6,75.6v-33l10.6,12v12h10.6l2.7-3h-5.3v-6h13.3v15l-2.7,3H224.6z M248.4,54.6l-2.7-3h-10.6l-8-9h26.5
				l2.7,3v9H248.4z"/>
			<path class="st5" d="M275,75.6v-30l2.7-3h29.2v30l-2.7,3H275z M298.8,66.6v-15h-15.9v15H298.8z"/>
			<path class="st5" d="M312.1,75.6l-2.7-3v-30h8l15.9,18v-3l-2.7-3v-9l2.7-3h8v30l-2.7,3h-5.3l-15.9-18v3l2.7,3v12H312.1z"/>
			<path class="st5" d="M343.9,75.6v-33l10.6,12h13.3l-2.7-3h-10.6l-8-9h26.5l2.7,3v15h-21.2v6h10.6l2.7-3h8v9l-2.7,3H343.9z"/>
		</g>
	</g>
</g>
</svg>
