<?xml version="1.0" encoding="utf-8"?>
<!-- Generator: Adobe Illustrator 28.0.0, SVG Export Plug-In . SVG Version: 6.00 Build 0)  -->
<svg version="1.1" id="Layer_1" xmlns="http://www.w3.org/2000/svg" xmlns:xlink="http://www.w3.org/1999/xlink" x="0px" y="0px"
	 viewBox="0 0 446.6 113.3" style="enable-background:new 0 0 446.6 113.3;" xml:space="preserve">
<style type="text/css">
	.st0{opacity:0.71;}
	.st1{fill:#92B81B;}
	.st2{fill:#027CC3;}
	.st3{enable-background:new    ;}
	.st4{fill:#FFFFFF;}
	.st5{fill:none;stroke:#0000FF;stroke-miterlimit:10;}
</style>
<g>
	<g id="Layer_1_00000144298164718217629400000012891314584146638519_">
		<g class="st0">
			<polygon points="6,21.6 25,5.2 153.3,5.2 170.5,20.2 356.2,20.2 366,28.6 445.1,28.6 445.1,95.1 417.6,95.1 402.5,108.1 
				26.1,108.1 6.3,90.9 			"/>
		</g>
		<polygon class="st1" points="190.6,0.2 179.8,9.5 195,9.5 205.8,0.2 		"/>
		<polygon class="st1" points="221.1,0.2 210.3,9.5 225.6,9.5 236.3,0.2 		"/>
		<polygon class="st1" points="282.1,0.2 271.3,9.5 286.6,9.5 297.4,0.2 		"/>
		<polygon class="st1" points="251.6,0.2 240.8,9.5 256,9.5 266.9,0.2 		"/>
		<path class="st1" d="M403.1,109.4H25.5L4.9,91.5V91L4.6,21.1L24.4,4h129.5l17.3,15h185.7l9.8,8.5h80v68.9h-28.4L403.1,109.4z
			 M26.7,106.8h375.2l15.1-13h26.7V29.9h-78.2l-9.8-8.5H169.9l-17.3-15h-127l-18,15.7l0.3,68.3L26.7,106.8z"/>
		<polygon class="st2" points="445.1,16.4 375.9,16.4 364.5,6.6 306.3,6.6 306.3,4.1 365.8,4.1 377.1,13.9 445.1,13.9 		"/>
		<polygon class="st2" points="57.3,113.3 23.6,113.3 2.1,94.7 10.6,87.3 28.6,102.9 57.3,102.9 		"/>
		<polygon class="st2" points="405,113.3 238.4,113.3 238.4,102.9 400,102.9 415.1,89.8 444.6,89.8 444.6,100.3 420.1,100.3 		"/>
		<polygon class="st2" points="0.1,41.1 0,19.5 22.5,0 153.3,0 153.3,10.5 27.5,10.5 12.1,23.8 12.2,41.1 		"/>
		<g class="st3">
			<path class="st4" d="M21.1,75.7v-33l10.6,12v3h7.9v6l-2.6,3h-5.3v9H21.1z M44.8,54.7l-2.6-3H31.6l-7.9-9h26.4l2.6,3v9H44.8z"/>
			<path class="st4" d="M58,75.7l-2.6-3v-27l2.6-3h5.3v24h13.2l6.6,7.5l-1.3,1.5H58z M84.4,72.7l-7.9-9v-21h7.9V72.7z"/>
			<path class="st4" d="M89.7,75.7l-2.6-3v-27l2.6-3h29l2.6,3v16.5l-4,4.5l4,4.5v4.5h-10.6l-7.9-9h-5.3v9H89.7z M110.8,57.7v-6H95
				l2.6,3v3H110.8z"/>
			<path class="st4" d="M126.7,75.7l-2.6-3v-30h7.9l15.8,18v-3l-2.6-3v-9l2.6-3h7.9v30l-2.6,3h-5.3l-15.8-18v3l2.6,3v12H126.7z"/>
			<path class="st4" d="M158.3,75.7v-9l21.1-24h13.2v33h-10.6v-3h-15.8l-2.6,3H158.3z M182.1,66.7v-9l2.6-3v-3l-13.2,15H182.1z"/>
			<path class="st4" d="M195.3,75.7v-33l10.6,12v12h10.6l2.6-3h7.9v9l-2.6,3H195.3z M219.1,54.7l-2.6-3h-10.6l-7.9-9h26.4l2.6,3v9
				H219.1z"/>
			<path class="st4" d="M229.6,75.7v-33l10.6,12h13.2l-2.6-3h-10.6l-7.9-9h26.4l2.6,3v15h-21.1v6h10.6l2.6-3h7.9v9l-2.6,3H229.6z"/>
			<path class="st4" d="M282.4,75.7l-2.6-3v-30h7.9l9.2,10.5l9.2-10.5h7.9v30l-2.6,3h-7.9v-12l2.6-3v-3L297,68.2l-9.2-10.5v3l2.6,3
				v12H282.4z"/>
			<path class="st4" d="M316.8,75.7v-33l10.6,12v3h7.9v6l-2.6,3h-5.3v9H316.8z M340.5,54.7l-2.6-3h-10.6l-7.9-9h26.4l2.6,3v9H340.5z
				"/>
		</g>
		<g class="st3">
			<path class="st5" d="M21.1,75.7v-33l10.6,12v3h7.9v6l-2.6,3h-5.3v9H21.1z M44.8,54.7l-2.6-3H31.6l-7.9-9h26.4l2.6,3v9H44.8z"/>
			<path class="st5" d="M58,75.7l-2.6-3v-27l2.6-3h5.3v24h13.2l6.6,7.5l-1.3,1.5H58z M84.4,72.7l-7.9-9v-21h7.9V72.7z"/>
			<path class="st5" d="M89.7,75.7l-2.6-3v-27l2.6-3h29l2.6,3v16.5l-4,4.5l4,4.5v4.5h-10.6l-7.9-9h-5.3v9H89.7z M110.8,57.7v-6H95
				l2.6,3v3H110.8z"/>
			<path class="st5" d="M126.7,75.7l-2.6-3v-30h7.9l15.8,18v-3l-2.6-3v-9l2.6-3h7.9v30l-2.6,3h-5.3l-15.8-18v3l2.6,3v12H126.7z"/>
			<path class="st5" d="M158.3,75.7v-9l21.1-24h13.2v33h-10.6v-3h-15.8l-2.6,3H158.3z M182.1,66.7v-9l2.6-3v-3l-13.2,15H182.1z"/>
			<path class="st5" d="M195.3,75.7v-33l10.6,12v12h10.6l2.6-3h7.9v9l-2.6,3H195.3z M219.1,54.7l-2.6-3h-10.6l-7.9-9h26.4l2.6,3v9
				H219.1z"/>
			<path class="st5" d="M229.6,75.7v-33l10.6,12h13.2l-2.6-3h-10.6l-7.9-9h26.4l2.6,3v15h-21.1v6h10.6l2.6-3h7.9v9l-2.6,3H229.6z"/>
			<path class="st5" d="M282.4,75.7l-2.6-3v-30h7.9l9.2,10.5l9.2-10.5h7.9v30l-2.6,3h-7.9v-12l2.6-3v-3L297,68.2l-9.2-10.5v3l2.6,3
				v12H282.4z"/>
			<path class="st5" d="M316.8,75.7v-33l10.6,12v3h7.9v6l-2.6,3h-5.3v9H316.8z M340.5,54.7l-2.6-3h-10.6l-7.9-9h26.4l2.6,3v9H340.5z
				"/>
		</g>
		<g class="st3">
			<path class="st4" d="M363.1,60.9V65h-10.8v-4.1H363.1z"/>
		</g>
		<g class="st3">
			<path class="st5" d="M363.1,60.9V65h-10.8v-4.1H363.1z"/>
		</g>
		<g class="st3">
			<path class="st4" d="M379.9,75.7v-30l2.6-3h21.1v30l-2.6,3H379.9z M395.7,66.7v-15h-7.9v15H395.7z"/>
			<path class="st4" d="M406.3,75.7v-3l10.6-12h-7.9l-2.6-3v-9l5.3-6h23.8l2.6,3v6l-21.1,24H406.3z M427.4,54.7v-3h-10.6l-2.6,3
				H427.4z"/>
		</g>
		<g class="st3">
			<path class="st5" d="M379.9,75.7v-30l2.6-3h21.1v30l-2.6,3H379.9z M395.7,66.7v-15h-7.9v15H395.7z"/>
			<path class="st5" d="M406.3,75.7v-3l10.6-12h-7.9l-2.6-3v-9l5.3-6h23.8l2.6,3v6l-21.1,24H406.3z M427.4,54.7v-3h-10.6l-2.6,3
				H427.4z"/>
		</g>
	</g>
</g>
</svg>
