<?xml version="1.0" encoding="utf-8"?>
<!-- Generator: Adobe Illustrator 26.0.2, SVG Export Plug-In . SVG Version: 6.00 Build 0)  -->
<svg version="1.1" id="Layer_1" xmlns="http://www.w3.org/2000/svg" xmlns:xlink="http://www.w3.org/1999/xlink" x="0px" y="0px"
	 viewBox="0 0 428.3 113.3" style="enable-background:new 0 0 428.3 113.3;" xml:space="preserve">
<style type="text/css">
	.st0{opacity:0.71;}
	.st1{fill:#92B81B;}
	.st2{fill:#027CC3;}
	.st3{enable-background:new    ;}
	.st4{fill:#FFFFFF;}
	.st5{fill:none;stroke:#0000FF;stroke-miterlimit:10;}
</style>
<g>
	<g>
		<g class="st0">
			<polygon points="5.8,21.6 24,5.2 146.9,5.2 163.5,20.2 341.6,20.2 351,28.6 426.9,28.6 426.9,95 400.4,95 386,108.1 25,108.1 
				6,90.9 			"/>
		</g>
		<g>
			<g>
				<polygon class="st1" points="182.7,0.1 172.4,9.5 187,9.5 197.4,0.1 				"/>
			</g>
			<g>
				<polygon class="st1" points="212,0.1 201.6,9.5 216.3,9.5 226.6,0.1 				"/>
			</g>
			<g>
				<polygon class="st1" points="270.5,0.1 260.2,9.5 274.8,9.5 285.1,0.1 				"/>
			</g>
			<g>
				<polygon class="st1" points="241.3,0.1 230.9,9.5 245.5,9.5 255.9,0.1 				"/>
			</g>
		</g>
		<g>
			<path class="st1" d="M386.6,109.3H24.4L4.6,91.4v-0.5L4.3,21.1l19-17.2h124.2l16.6,15h178.1l9.4,8.5h76.7v69h-27.2L386.6,109.3z
				 M25.6,106.8h359.8l14.4-13h25.6V29.9h-75l-9.4-8.5H162.9l-16.6-15H24.5L7.1,22.1l0.3,68.2L25.6,106.8z"/>
		</g>
		<g>
			<polygon class="st2" points="426.9,16.4 360.4,16.4 349.6,6.6 293.7,6.6 293.7,4.1 350.7,4.1 361.6,13.9 426.9,13.9 			"/>
		</g>
		<g>
			<polygon class="st2" points="55,113.3 22.6,113.3 2,94.6 10.1,87.2 27.4,102.8 55,102.8 			"/>
		</g>
		<g>
			<polygon class="st2" points="388.4,113.3 228.6,113.3 228.6,102.8 383.6,102.8 398,89.8 426.4,89.8 426.4,100.3 402.8,100.3 			
				"/>
		</g>
		<g>
			<polygon class="st2" points="0.1,41.1 0,19.5 21.6,0 146.9,0 146.9,10.4 26.4,10.4 11.6,23.8 11.6,41 			"/>
		</g>
	</g>
	<g>
		<g class="st3">
			<path class="st4" d="M31.9,75.7l-2.7-3v-27l2.7-3h8v12h13.3l-2.7-3v-9h8l2.7,3v27l-2.7,3h-8v-12H37.2l2.7,3v9H31.9z"/>
			<path class="st4" d="M63.7,75.7v-30l2.7-3h29.2v30l-2.7,3H63.7z M87.6,66.7v-15H71.7v15H87.6z"/>
			<path class="st4" d="M100.8,75.7l-2.7-3v-30h8l9.3,10.5l9.3-10.5h8v30l-2.7,3h-8v-12l2.7-3v-3l-9.3,10.5l-9.3-10.5v3l2.7,3v12
				H100.8z"/>
			<path class="st4" d="M135.3,75.7v-30l2.7-3h29.2v30l-2.7,3H135.3z M159.2,66.7v-15h-15.9v15H159.2z"/>
			<path class="st4" d="M169.8,75.7v-33l10.6,12v12H191l2.7-3h-5.3v-6h13.3v15l-2.7,3H169.8z M193.7,54.7l-2.7-3h-10.6l-8-9h26.5
				l2.7,3v9H193.7z"/>
			<path class="st4" d="M204.3,75.7v-33l10.6,12h13.3l-2.7-3h-10.6l-8-9h26.5l2.7,3v15h-21.2v6h10.6l2.7-3h8v9l-2.7,3H204.3z"/>
			<path class="st4" d="M241.4,75.7l-2.7-3v-30h8l15.9,18v-3l-2.7-3v-9l2.7-3h8v30l-2.7,3h-5.3l-15.9-18v3l2.7,3v12H241.4z"/>
			<path class="st4" d="M275.9,75.7l-2.7-3v-30h8l2.7,3v30H275.9z"/>
			<path class="st4" d="M289.2,51.7l-2.7-3v-6h31.8v9H289.2z M289.2,75.7l-2.7-3v-7.5l21.2-12h10.6v3l-18.6,10.5h15.9l2.7,3v6H289.2
				z"/>
			<path class="st4" d="M323.6,75.7l-2.7-3v-30h8l2.7,3v30H323.6z"/>
			<path class="st4" d="M336.9,75.7l-2.7-3v-30h8l15.9,18v-3l-2.7-3v-9l2.7-3h8v30l-2.7,3h-5.3l-15.9-18v3l2.7,3v12H336.9z"/>
			<path class="st4" d="M368.7,75.7v-33l10.6,12v12h10.6l2.7-3h-5.3v-6h13.3v15l-2.7,3H368.7z M392.6,54.7l-2.7-3h-10.6l-8-9h26.5
				l2.7,3v9H392.6z"/>
		</g>
		<g class="st3">
			<path class="st5" d="M31.9,75.7l-2.7-3v-27l2.7-3h8v12h13.3l-2.7-3v-9h8l2.7,3v27l-2.7,3h-8v-12H37.2l2.7,3v9H31.9z"/>
			<path class="st5" d="M63.7,75.7v-30l2.7-3h29.2v30l-2.7,3H63.7z M87.6,66.7v-15H71.7v15H87.6z"/>
			<path class="st5" d="M100.8,75.7l-2.7-3v-30h8l9.3,10.5l9.3-10.5h8v30l-2.7,3h-8v-12l2.7-3v-3l-9.3,10.5l-9.3-10.5v3l2.7,3v12
				H100.8z"/>
			<path class="st5" d="M135.3,75.7v-30l2.7-3h29.2v30l-2.7,3H135.3z M159.2,66.7v-15h-15.9v15H159.2z"/>
			<path class="st5" d="M169.8,75.7v-33l10.6,12v12H191l2.7-3h-5.3v-6h13.3v15l-2.7,3H169.8z M193.7,54.7l-2.7-3h-10.6l-8-9h26.5
				l2.7,3v9H193.7z"/>
			<path class="st5" d="M204.3,75.7v-33l10.6,12h13.3l-2.7-3h-10.6l-8-9h26.5l2.7,3v15h-21.2v6h10.6l2.7-3h8v9l-2.7,3H204.3z"/>
			<path class="st5" d="M241.4,75.7l-2.7-3v-30h8l15.9,18v-3l-2.7-3v-9l2.7-3h8v30l-2.7,3h-5.3l-15.9-18v3l2.7,3v12H241.4z"/>
			<path class="st5" d="M275.9,75.7l-2.7-3v-30h8l2.7,3v30H275.9z"/>
			<path class="st5" d="M289.2,51.7l-2.7-3v-6h31.8v9H289.2z M289.2,75.7l-2.7-3v-7.5l21.2-12h10.6v3l-18.6,10.5h15.9l2.7,3v6H289.2
				z"/>
			<path class="st5" d="M323.6,75.7l-2.7-3v-30h8l2.7,3v30H323.6z"/>
			<path class="st5" d="M336.9,75.7l-2.7-3v-30h8l15.9,18v-3l-2.7-3v-9l2.7-3h8v30l-2.7,3h-5.3l-15.9-18v3l2.7,3v12H336.9z"/>
			<path class="st5" d="M368.7,75.7v-33l10.6,12v12h10.6l2.7-3h-5.3v-6h13.3v15l-2.7,3H368.7z M392.6,54.7l-2.7-3h-10.6l-8-9h26.5
				l2.7,3v9H392.6z"/>
		</g>
	</g>
</g>
</svg>
