<?xml version="1.0" encoding="utf-8"?>
<!-- Generator: Adobe Illustrator 28.0.0, SVG Export Plug-In . SVG Version: 6.00 Build 0)  -->
<svg version="1.1" id="Layer_1" xmlns="http://www.w3.org/2000/svg" xmlns:xlink="http://www.w3.org/1999/xlink" x="0px" y="0px"
	 viewBox="0 0 393.6 150.8" style="enable-background:new 0 0 393.6 150.8;" xml:space="preserve">
<style type="text/css">
	.st0{opacity:0.71;}
	.st1{fill:#92B81B;}
	.st2{fill:#027CC3;}
	.st3{enable-background:new    ;}
	.st4{fill:#FFFFFF;}
	.st5{fill:none;stroke:#0000FF;stroke-miterlimit:10;}
</style>
<g>
	<g>
		<g class="st0">
			<polygon points="5.3,28.8 22,7 135.1,7 150.3,26.9 313.9,26.9 322.5,38.1 392.3,38.1 392.3,126.5 368,126.5 354.7,143.9 
				23,143.9 5.6,121 			"/>
		</g>
		<g>
			<g>
				<polygon class="st1" points="168,0.2 158.5,12.7 171.9,12.7 181.4,0.2 				"/>
			</g>
			<g>
				<polygon class="st1" points="194.8,0.2 185.3,12.7 198.8,12.7 208.3,0.2 				"/>
			</g>
			<g>
				<polygon class="st1" points="248.6,0.2 239.1,12.7 252.5,12.7 262.1,0.2 				"/>
			</g>
			<g>
				<polygon class="st1" points="221.7,0.2 212.2,12.7 225.6,12.7 235.2,0.2 				"/>
			</g>
		</g>
		<g>
			<path class="st1" d="M355.3,145.6H22.5L4.3,121.8v-0.7L4,28.1L21.5,5.3h114.1l15.2,19.9h163.6l8.6,11.2h70.5v91.8h-25
				L355.3,145.6z M23.6,142.2h330.6l13.3-17.4H391v-85h-69l-8.6-11.2H149.8l-15.3-20H22.6l-16,20.9l0.2,90.8L23.6,142.2z"/>
		</g>
		<g>
			<polygon class="st2" points="392.3,21.9 331.2,21.9 321.3,8.8 269.9,8.8 269.9,5.4 322.3,5.4 332.3,18.5 392.3,18.5 			"/>
		</g>
		<g>
			<polygon class="st2" points="50.5,150.8 20.8,150.8 1.8,126 9.3,116.1 25.2,136.9 50.5,136.9 			"/>
		</g>
		<g>
			<polygon class="st2" points="356.9,150.8 210.1,150.8 210.1,136.9 352.5,136.9 365.8,119.6 391.8,119.6 391.8,133.5 370.2,133.5 
							"/>
		</g>
		<g>
			<polygon class="st2" points="0.1,54.7 0,25.9 19.8,0 135.1,0 135.1,13.9 24.2,13.9 10.7,31.7 10.7,54.7 			"/>
		</g>
	</g>
	<g>
		<g class="st3">
			<path class="st4" d="M141.4,77.7l-2.7-3v-27l2.7-3h29.2l2.7,3v16.5l-4,4.5l4,4.5v4.5h-10.6l-8-9h-5.3v9H141.4z M162.6,59.7v-6
				h-15.9l2.7,3v3H162.6z"/>
			<path class="st4" d="M175.9,77.7v-30l2.7-3h29.2v30l-2.7,3H175.9z M199.8,68.7v-15h-15.9v15H199.8z"/>
			<path class="st4" d="M210.4,77.7v-33l10.6,12v12h10.6l2.7-3v-9l-2.7-3H221l-8-9h23.9l5.3,6v21l-5.3,6H210.4z"/>
		</g>
		<g class="st3">
			<path class="st5" d="M141.4,77.7l-2.7-3v-27l2.7-3h29.2l2.7,3v16.5l-4,4.5l4,4.5v4.5h-10.6l-8-9h-5.3v9H141.4z M162.6,59.7v-6
				h-15.9l2.7,3v3H162.6z"/>
			<path class="st5" d="M175.9,77.7v-30l2.7-3h29.2v30l-2.7,3H175.9z M199.8,68.7v-15h-15.9v15H199.8z"/>
			<path class="st5" d="M210.4,77.7v-33l10.6,12v12h10.6l2.7-3v-9l-2.7-3H221l-8-9h23.9l5.3,6v21l-5.3,6H210.4z"/>
		</g>
		<g class="st3">
			<path class="st4" d="M87,122.7v-33l10.6,12v3h8v6l-2.7,3h-5.3v9H87z M110.9,101.7l-2.7-3H97.6l-8-9h26.5l2.7,3v9H110.9z"/>
			<path class="st4" d="M121.5,122.7v-33l10.6,12h13.3l-2.7-3h-10.6l-8-9h26.5l2.7,3v15h-21.2v6h10.6l2.7-3h8v9l-2.7,3H121.5z"/>
			<path class="st4" d="M156,122.7v-33l10.6,12h13.3l-2.7-3h-10.6l-8-9h26.5l2.7,3v15h-21.2v6h10.6l2.7-3h8v9l-2.7,3H156z"/>
			<path class="st4" d="M190.5,122.7v-33l10.6,12v12h10.6l2.7-3v-9l-2.7-3h-10.6l-8-9H217l5.3,6v21l-5.3,6H190.5z"/>
			<path class="st4" d="M225,122.7v-33l10.6,12h13.3l-2.7-3h-10.6l-8-9h26.5l2.7,3v15h-21.2v6h10.6l2.7-3h8v9l-2.7,3H225z"/>
			<path class="st4" d="M262.1,122.7l-2.7-3v-27l2.7-3h29.2l2.7,3v16.5l-4,4.5l4,4.5v4.5h-10.6l-8-9H270v9H262.1z M283.3,104.7v-6
				h-15.9l2.7,3v3H283.3z"/>
		</g>
		<g class="st3">
			<path class="st5" d="M87,122.7v-33l10.6,12v3h8v6l-2.7,3h-5.3v9H87z M110.9,101.7l-2.7-3H97.6l-8-9h26.5l2.7,3v9H110.9z"/>
			<path class="st5" d="M121.5,122.7v-33l10.6,12h13.3l-2.7-3h-10.6l-8-9h26.5l2.7,3v15h-21.2v6h10.6l2.7-3h8v9l-2.7,3H121.5z"/>
			<path class="st5" d="M156,122.7v-33l10.6,12h13.3l-2.7-3h-10.6l-8-9h26.5l2.7,3v15h-21.2v6h10.6l2.7-3h8v9l-2.7,3H156z"/>
			<path class="st5" d="M190.5,122.7v-33l10.6,12v12h10.6l2.7-3v-9l-2.7-3h-10.6l-8-9H217l5.3,6v21l-5.3,6H190.5z"/>
			<path class="st5" d="M225,122.7v-33l10.6,12h13.3l-2.7-3h-10.6l-8-9h26.5l2.7,3v15h-21.2v6h10.6l2.7-3h8v9l-2.7,3H225z"/>
			<path class="st5" d="M262.1,122.7l-2.7-3v-27l2.7-3h29.2l2.7,3v16.5l-4,4.5l4,4.5v4.5h-10.6l-8-9H270v9H262.1z M283.3,104.7v-6
				h-15.9l2.7,3v3H283.3z"/>
		</g>
	</g>
</g>
</svg>
