<?xml version="1.0" encoding="utf-8"?>
<!-- Generator: Adobe Illustrator 28.0.0, SVG Export Plug-In . SVG Version: 6.00 Build 0)  -->
<svg version="1.1" id="Layer_1" xmlns="http://www.w3.org/2000/svg" xmlns:xlink="http://www.w3.org/1999/xlink" x="0px" y="0px"
	 viewBox="0 0 393.6 150.6" style="enable-background:new 0 0 393.6 150.6;" xml:space="preserve">
<style type="text/css">
	.st0{opacity:0.71;}
	.st1{fill:#92B81B;}
	.st2{fill:#027CC3;}
	.st3{enable-background:new    ;}
	.st4{fill:#FFFFFF;}
	.st5{fill:none;stroke:#0000FF;stroke-miterlimit:10;}
</style>
<g>
	<g>
		<g class="st0">
			<polygon points="5.3,28.6 22,6.7 135.1,6.7 150.3,26.7 313.9,26.7 322.5,37.9 392.3,37.9 392.3,126.3 368,126.3 354.7,143.6 
				23,143.6 5.6,120.8 			"/>
		</g>
		<g>
			<g>
				<polygon class="st1" points="168,0 158.5,12.4 171.9,12.4 181.4,0 				"/>
			</g>
			<g>
				<polygon class="st1" points="194.8,0 185.3,12.4 198.8,12.4 208.3,0 				"/>
			</g>
			<g>
				<polygon class="st1" points="248.6,0 239.1,12.4 252.5,12.4 262.1,0 				"/>
			</g>
			<g>
				<polygon class="st1" points="221.7,0 212.2,12.4 225.6,12.4 235.2,0 				"/>
			</g>
		</g>
		<g>
			<path class="st1" d="M355.3,145.3H22.5L4.3,121.5v-0.7L4,27.9L21.5,5h114.1L150.8,25h163.6l8.6,11.2h70.5V128h-25L355.3,145.3z
				 M23.6,142h330.6l13.3-17.4H391v-85h-69l-8.6-11.2H149.8L134.5,8.4H22.6l-16,20.9l0.2,90.8L23.6,142z"/>
		</g>
		<g>
			<polygon class="st2" points="392.3,21.7 331.2,21.7 321.3,8.6 269.9,8.6 269.9,5.2 322.3,5.2 332.3,18.3 392.3,18.3 			"/>
		</g>
		<g>
			<polygon class="st2" points="50.5,150.6 20.8,150.6 1.8,125.8 9.3,115.9 25.2,136.7 50.5,136.7 			"/>
		</g>
		<g>
			<polygon class="st2" points="356.9,150.6 210.1,150.6 210.1,136.7 352.5,136.7 365.8,119.3 391.8,119.3 391.8,133.2 370.2,133.2 
							"/>
		</g>
		<g>
			<polygon class="st2" points="0.1,54.5 0,25.7 19.8,-0.2 135.1,-0.2 135.1,13.7 24.2,13.7 10.7,31.5 10.7,54.4 			"/>
		</g>
	</g>
	<g>
		<g class="st3">
			<path class="st4" d="M86.1,75.5l-2.7-3v-6h8V68h15.9v-4.5H88.7l-5.3-6v-15h29.2l2.7,3v6h-8V50H91.4v7.5l2.7-3H110l5.3,6v15H86.1z
				"/>
			<path class="st4" d="M117.9,75.5v-9l21.2-24h13.3v33h-10.6v-3h-15.9l-2.7,3H117.9z M141.8,66.5v-9l2.7-3v-3l-13.3,15H141.8z"/>
			<path class="st4" d="M169.6,75.5l-14.6-33h9.3l11.9,27h1.3l-2.7,6H169.6z M193.5,75.5l-9.3-21l-5.3,12h-2.7l-4-9h1.3l6.6-15h8
				l11.9,27h1.3l-2.7,6H193.5z M200.1,66.5l-4-9h1.3l6.6-15h9.3l-10.6,24H200.1z"/>
			<path class="st4" d="M218.7,75.5l-2.7-3v-30h8l2.7,3v30H218.7z"/>
			<path class="st4" d="M232,75.5l-2.7-3v-30h8l15.9,18v-3l-2.7-3v-9l2.7-3h8v30l-2.7,3h-5.3l-15.9-18v3l2.7,3v12H232z"/>
			<path class="st4" d="M263.8,75.5v-33l10.6,12v12H285l2.7-3h-5.3v-6h13.3v15l-2.7,3H263.8z M287.7,54.5l-2.7-3h-10.6l-8-9H293
				l2.7,3v9H287.7z"/>
		</g>
		<g class="st3">
			<path class="st5" d="M86.1,75.5l-2.7-3v-6h8V68h15.9v-4.5H88.7l-5.3-6v-15h29.2l2.7,3v6h-8V50H91.4v7.5l2.7-3H110l5.3,6v15H86.1z
				"/>
			<path class="st5" d="M117.9,75.5v-9l21.2-24h13.3v33h-10.6v-3h-15.9l-2.7,3H117.9z M141.8,66.5v-9l2.7-3v-3l-13.3,15H141.8z"/>
			<path class="st5" d="M169.6,75.5l-14.6-33h9.3l11.9,27h1.3l-2.7,6H169.6z M193.5,75.5l-9.3-21l-5.3,12h-2.7l-4-9h1.3l6.6-15h8
				l11.9,27h1.3l-2.7,6H193.5z M200.1,66.5l-4-9h1.3l6.6-15h9.3l-10.6,24H200.1z"/>
			<path class="st5" d="M218.7,75.5l-2.7-3v-30h8l2.7,3v30H218.7z"/>
			<path class="st5" d="M232,75.5l-2.7-3v-30h8l15.9,18v-3l-2.7-3v-9l2.7-3h8v30l-2.7,3h-5.3l-15.9-18v3l2.7,3v12H232z"/>
			<path class="st5" d="M263.8,75.5v-33l10.6,12v12H285l2.7-3h-5.3v-6h13.3v15l-2.7,3H263.8z M287.7,54.5l-2.7-3h-10.6l-8-9H293
				l2.7,3v9H287.7z"/>
		</g>
		<g class="st3">
			<path class="st4" d="M88.7,120.5l-2.7-3v-30h8l9.3,10.5l9.3-10.5h8v30l-2.7,3h-8v-12l2.7-3v-3l-9.3,10.5L94,102.5v3l2.7,3v12
				H88.7z"/>
			<path class="st4" d="M123.2,120.5v-9l21.2-24h13.3v33h-10.6v-3h-15.9l-2.7,3H123.2z M147.1,111.5v-9l2.7-3v-3l-13.3,15H147.1z"/>
			<path class="st4" d="M160.3,120.5v-33l10.6,12v12h10.6l2.7-3h8v9l-2.7,3H160.3z M184.2,99.5l-2.7-3H171l-8-9h26.5l2.7,3v9H184.2z
				"/>
			<path class="st4" d="M197.5,120.5l-2.7-3v-27l2.7-3h8v12h13.3l-2.7-3v-9h8l2.7,3v27l-2.7,3h-8v-12h-13.3l2.7,3v9H197.5z"/>
			<path class="st4" d="M232,120.5l-2.7-3v-30h8l2.7,3v30H232z"/>
			<path class="st4" d="M245.2,120.5l-2.7-3v-30h8l15.9,18v-3l-2.7-3v-9l2.7-3h8v30l-2.7,3h-5.3l-15.9-18v3l2.7,3v12H245.2z"/>
			<path class="st4" d="M277,120.5v-33l10.6,12h13.3l-2.7-3h-10.6l-8-9h26.5l2.7,3v15h-21.2v6h10.6l2.7-3h8v9l-2.7,3H277z"/>
		</g>
		<g class="st3">
			<path class="st5" d="M88.7,120.5l-2.7-3v-30h8l9.3,10.5l9.3-10.5h8v30l-2.7,3h-8v-12l2.7-3v-3l-9.3,10.5L94,102.5v3l2.7,3v12
				H88.7z"/>
			<path class="st5" d="M123.2,120.5v-9l21.2-24h13.3v33h-10.6v-3h-15.9l-2.7,3H123.2z M147.1,111.5v-9l2.7-3v-3l-13.3,15H147.1z"/>
			<path class="st5" d="M160.3,120.5v-33l10.6,12v12h10.6l2.7-3h8v9l-2.7,3H160.3z M184.2,99.5l-2.7-3H171l-8-9h26.5l2.7,3v9H184.2z
				"/>
			<path class="st5" d="M197.5,120.5l-2.7-3v-27l2.7-3h8v12h13.3l-2.7-3v-9h8l2.7,3v27l-2.7,3h-8v-12h-13.3l2.7,3v9H197.5z"/>
			<path class="st5" d="M232,120.5l-2.7-3v-30h8l2.7,3v30H232z"/>
			<path class="st5" d="M245.2,120.5l-2.7-3v-30h8l15.9,18v-3l-2.7-3v-9l2.7-3h8v30l-2.7,3h-5.3l-15.9-18v3l2.7,3v12H245.2z"/>
			<path class="st5" d="M277,120.5v-33l10.6,12h13.3l-2.7-3h-10.6l-8-9h26.5l2.7,3v15h-21.2v6h10.6l2.7-3h8v9l-2.7,3H277z"/>
		</g>
	</g>
</g>
</svg>
