<?xml version="1.0" encoding="utf-8"?>
<!-- Generator: Adobe Illustrator 28.0.0, SVG Export Plug-In . SVG Version: 6.00 Build 0)  -->
<svg version="1.1" id="Layer_1" xmlns="http://www.w3.org/2000/svg" xmlns:xlink="http://www.w3.org/1999/xlink" x="0px" y="0px"
	 viewBox="0 0 393.6 150.6" style="enable-background:new 0 0 393.6 150.6;" xml:space="preserve">
<style type="text/css">
	.st0{opacity:0.71;}
	.st1{fill:#92B81B;}
	.st2{fill:#027CC3;}
	.st3{enable-background:new    ;}
	.st4{fill:#FFFFFF;}
	.st5{fill:none;stroke:#0000FF;stroke-miterlimit:10;}
</style>
<g>
	<g>
		<g class="st0">
			<polygon points="5.3,28.6 22,6.7 135.1,6.7 150.3,26.7 313.9,26.7 322.5,37.9 392.3,37.9 392.3,126.3 368,126.3 354.7,143.6 
				23,143.6 5.6,120.8 			"/>
		</g>
		<g>
			<g>
				<polygon class="st1" points="168,0 158.5,12.4 171.9,12.4 181.4,0 				"/>
			</g>
			<g>
				<polygon class="st1" points="194.8,0 185.3,12.4 198.8,12.4 208.3,0 				"/>
			</g>
			<g>
				<polygon class="st1" points="248.6,0 239.1,12.4 252.5,12.4 262.1,0 				"/>
			</g>
			<g>
				<polygon class="st1" points="221.7,0 212.2,12.4 225.6,12.4 235.2,0 				"/>
			</g>
		</g>
		<g>
			<path class="st1" d="M355.3,145.3H22.5L4.3,121.5v-0.7L4,27.9L21.5,5h114.1l15.2,20h163.6l8.6,11.2h70.5V128h-25L355.3,145.3z
				 M23.6,142h330.6l13.3-17.4H391v-85h-69l-8.6-11.2H149.8l-15.3-20H22.6l-16,20.9l0.2,90.8L23.6,142z"/>
		</g>
		<g>
			<polygon class="st2" points="392.3,21.7 331.2,21.7 321.3,8.6 269.9,8.6 269.9,5.2 322.3,5.2 332.3,18.3 392.3,18.3 			"/>
		</g>
		<g>
			<polygon class="st2" points="50.5,150.6 20.8,150.6 1.8,125.8 9.3,115.9 25.2,136.7 50.5,136.7 			"/>
		</g>
		<g>
			<polygon class="st2" points="356.9,150.6 210.1,150.6 210.1,136.7 352.5,136.7 365.8,119.3 391.8,119.3 391.8,133.2 370.2,133.2 
							"/>
		</g>
		<g>
			<polygon class="st2" points="0.1,54.5 0,25.7 19.8,-0.2 135.1,-0.2 135.1,13.7 24.2,13.7 10.7,31.5 10.7,54.4 			"/>
		</g>
	</g>
	<g>
		<g class="st3">
			<path class="st4" d="M159,75.5l-2.7-3v-6h8V68h15.9v-4.5h-18.6l-5.3-6v-15h29.2l2.7,3v6h-8V50h-15.9v7.5l2.7-3h15.9l5.3,6v15H159
				z"/>
			<path class="st4" d="M193.5,75.5l-2.7-3v-30h8l2.7,3v30H193.5z"/>
			<path class="st4" d="M206.8,75.5l-2.7-3v-27l2.7-3h29.2l2.7,3V62l-4,4.5l4,4.5v4.5H228l-8-9h-5.3v9H206.8z M228,57.5v-6h-15.9
				l2.7,3v3H228z"/>
		</g>
		<g class="st3">
			<path class="st5" d="M159,75.5l-2.7-3v-6h8V68h15.9v-4.5h-18.6l-5.3-6v-15h29.2l2.7,3v6h-8V50h-15.9v7.5l2.7-3h15.9l5.3,6v15H159
				z"/>
			<path class="st5" d="M193.5,75.5l-2.7-3v-30h8l2.7,3v30H193.5z"/>
			<path class="st5" d="M206.8,75.5l-2.7-3v-27l2.7-3h29.2l2.7,3V62l-4,4.5l4,4.5v4.5H228l-8-9h-5.3v9H206.8z M228,57.5v-6h-15.9
				l2.7,3v3H228z"/>
		</g>
		<g class="st3">
			<path class="st4" d="M58.2,120.5v-33l10.6,12v12h10.6l2.7-3v-9l-2.7-3H68.8l-8-9h23.9l5.3,6v21l-5.3,6H58.2z"/>
			<path class="st4" d="M92.7,120.5v-33l10.6,12h13.3l-2.7-3h-10.6l-8-9h26.5l2.7,3v15h-21.2v6h10.6l2.7-3h8v9l-2.7,3H92.7z"/>
			<path class="st4" d="M127.2,120.5v-33l10.6,12v12h10.6l2.7-3h-5.3v-6H159v15l-2.7,3H127.2z M151.1,99.5l-2.7-3h-10.6l-8-9h26.5
				l2.7,3v9H151.1z"/>
			<path class="st4" d="M161.7,120.5v-9l21.2-24h13.3v33h-10.6v-3h-15.9l-2.7,3H161.7z M185.5,111.5v-9l2.7-3v-3l-13.3,15H185.5z"/>
			<path class="st4" d="M201.5,120.5l-2.7-3v-6h8v1.5h15.9v-4.5h-18.6l-5.3-6v-15H228l2.7,3v6h-8V95h-15.9v7.5l2.7-3h15.9l5.3,6v15
				H201.5z"/>
			<path class="st4" d="M235.9,120.5l-2.7-3v-6h8v1.5h15.9v-4.5h-18.6l-5.3-6v-15h29.2l2.7,3v6h-8V95h-15.9v7.5l2.7-3h15.9l5.3,6v15
				H235.9z"/>
			<path class="st4" d="M267.8,120.5v-33l10.6,12h13.3l-2.7-3h-10.6l-8-9h26.5l2.7,3v15h-21.2v6H289l2.7-3h8v9l-2.7,3H267.8z"/>
			<path class="st4" d="M304.9,120.5l-2.7-3v-27l2.7-3h29.2l2.7,3V107l-4,4.5l4,4.5v4.5h-10.6l-8-9h-5.3v9H304.9z M326.1,102.5v-6
				h-15.9l2.7,3v3H326.1z"/>
		</g>
		<g class="st3">
			<path class="st5" d="M58.2,120.5v-33l10.6,12v12h10.6l2.7-3v-9l-2.7-3H68.8l-8-9h23.9l5.3,6v21l-5.3,6H58.2z"/>
			<path class="st5" d="M92.7,120.5v-33l10.6,12h13.3l-2.7-3h-10.6l-8-9h26.5l2.7,3v15h-21.2v6h10.6l2.7-3h8v9l-2.7,3H92.7z"/>
			<path class="st5" d="M127.2,120.5v-33l10.6,12v12h10.6l2.7-3h-5.3v-6H159v15l-2.7,3H127.2z M151.1,99.5l-2.7-3h-10.6l-8-9h26.5
				l2.7,3v9H151.1z"/>
			<path class="st5" d="M161.7,120.5v-9l21.2-24h13.3v33h-10.6v-3h-15.9l-2.7,3H161.7z M185.5,111.5v-9l2.7-3v-3l-13.3,15H185.5z"/>
			<path class="st5" d="M201.5,120.5l-2.7-3v-6h8v1.5h15.9v-4.5h-18.6l-5.3-6v-15H228l2.7,3v6h-8V95h-15.9v7.5l2.7-3h15.9l5.3,6v15
				H201.5z"/>
			<path class="st5" d="M235.9,120.5l-2.7-3v-6h8v1.5h15.9v-4.5h-18.6l-5.3-6v-15h29.2l2.7,3v6h-8V95h-15.9v7.5l2.7-3h15.9l5.3,6v15
				H235.9z"/>
			<path class="st5" d="M267.8,120.5v-33l10.6,12h13.3l-2.7-3h-10.6l-8-9h26.5l2.7,3v15h-21.2v6H289l2.7-3h8v9l-2.7,3H267.8z"/>
			<path class="st5" d="M304.9,120.5l-2.7-3v-27l2.7-3h29.2l2.7,3V107l-4,4.5l4,4.5v4.5h-10.6l-8-9h-5.3v9H304.9z M326.1,102.5v-6
				h-15.9l2.7,3v3H326.1z"/>
		</g>
	</g>
</g>
</svg>
