<?xml version="1.0" encoding="utf-8"?>
<!-- Generator: Adobe Illustrator 28.0.0, SVG Export Plug-In . SVG Version: 6.00 Build 0)  -->
<svg version="1.1" id="Layer_1" xmlns="http://www.w3.org/2000/svg" xmlns:xlink="http://www.w3.org/1999/xlink" x="0px" y="0px"
	 viewBox="0 0 386.8 113.3" style="enable-background:new 0 0 386.8 113.3;" xml:space="preserve">
<style type="text/css">
	.st0{opacity:0.71;}
	.st1{fill:#92B81B;}
	.st2{fill:#027CC3;}
	.st3{enable-background:new    ;}
	.st4{fill:#FFFFFF;}
	.st5{fill:none;stroke:#0000FF;stroke-miterlimit:10;}
</style>
<g>
	<g>
		<g class="st0">
			<polygon points="5.2,21.6 21.7,5.2 132.7,5.2 147.7,20.2 308.5,20.2 317,28.6 385.5,28.6 385.5,95.1 361.7,95.1 348.6,108.1 
				22.6,108.1 5.5,90.9 			"/>
		</g>
		<g>
			<g>
				<polygon class="st1" points="165.1,0.2 155.7,9.5 168.9,9.5 178.3,0.2 				"/>
			</g>
			<g>
				<polygon class="st1" points="191.5,0.2 182.1,9.5 195.4,9.5 204.7,0.2 				"/>
			</g>
			<g>
				<polygon class="st1" points="244.3,0.2 235,9.5 248.2,9.5 257.5,0.2 				"/>
			</g>
			<g>
				<polygon class="st1" points="217.9,0.2 208.6,9.5 221.8,9.5 231.1,0.2 				"/>
			</g>
		</g>
		<g>
			<path class="st1" d="M349.1,109.4h-327L4.2,91.5V91L4,21.1L21.1,4h112.1l15,15h160.8l8.5,8.5h69.3v69h-24.6L349.1,109.4z
				 M23.2,106.8h324.9l13-13h23.1V29.9h-67.8l-8.5-8.5H147.2l-15-15h-110L6.5,22.2l0.2,68.2L23.2,106.8z"/>
		</g>
		<g>
			<polygon class="st2" points="385.5,16.4 325.5,16.4 315.7,6.6 265.3,6.6 265.3,4.1 316.8,4.1 326.6,13.9 385.5,13.9 			"/>
		</g>
		<g>
			<polygon class="st2" points="49.7,113.3 20.5,113.3 1.8,94.6 9.2,87.3 24.8,102.9 49.7,102.9 			"/>
		</g>
		<g>
			<polygon class="st2" points="350.8,113.3 206.5,113.3 206.5,102.9 346.5,102.9 359.5,89.8 385.1,89.8 385.1,100.3 363.8,100.3 
							"/>
		</g>
		<g>
			<polygon class="st2" points="0.1,41.1 0,19.5 19.5,0 132.7,0 132.7,10.5 23.8,10.5 10.5,23.8 10.5,41.1 			"/>
		</g>
	</g>
	<g>
		<g class="st3">
			<path class="st4" d="M39,75.7l-2.7-3v-6h8v1.5h15.9v-4.5H41.6l-5.3-6v-15h29.2l2.7,3v6h-8v-1.5H44.3v7.5l2.7-3h15.9l5.3,6v15H39z
				"/>
			<path class="st4" d="M81.4,75.7V50.2h-2.7v1.5h-8v-6l2.7-3H100l2.7,3v6h-8v-1.5H92v22.5l-2.7,3H81.4z"/>
			<path class="st4" d="M107.9,75.7l-2.7-3v-30h8l2.7,3v30H107.9z"/>
			<path class="st4" d="M118.6,75.7v-33h10.6v21L118.6,75.7z M121.2,75.7l8-9h10.6l2.7-3h8v9l-2.7,3H121.2z"/>
			<path class="st4" d="M155.7,75.7v-33h10.6v21L155.7,75.7z M158.3,75.7l8-9h10.6l2.7-3h8v9l-2.7,3H158.3z"/>
			<path class="st4" d="M192.8,75.7v-9l21.2-24h13.3v33h-10.6v-3h-15.9l-2.7,3H192.8z M216.7,66.7v-9l2.7-3v-3l-13.3,15H216.7z"/>
			<path class="st4" d="M230,75.7v-33l10.6,12v12h10.6l2.7-3h-5.3v-6h13.3v15l-2.7,3H230z M253.8,54.7l-2.7-3h-10.6l-8-9h26.5l2.7,3
				v9H253.8z"/>
			<path class="st4" d="M264.4,75.7v-33l10.6,12h13.3l-2.7-3H275l-8-9h26.5l2.7,3v15H275v6h10.6l2.7-3h8v9l-2.7,3H264.4z"/>
			<path class="st4" d="M314.8,75.7v-3l15.9-18h5.3v-3h-10.6l-2.7,3h-8v-6l5.3-6H344l2.7,3v6l-13.3,15h13.3v9H314.8z"/>
		</g>
		<g class="st3">
			<path class="st5" d="M39,75.7l-2.7-3v-6h8v1.5h15.9v-4.5H41.6l-5.3-6v-15h29.2l2.7,3v6h-8v-1.5H44.3v7.5l2.7-3h15.9l5.3,6v15H39z
				"/>
			<path class="st5" d="M81.4,75.7V50.2h-2.7v1.5h-8v-6l2.7-3H100l2.7,3v6h-8v-1.5H92v22.5l-2.7,3H81.4z"/>
			<path class="st5" d="M107.9,75.7l-2.7-3v-30h8l2.7,3v30H107.9z"/>
			<path class="st5" d="M118.6,75.7v-33h10.6v21L118.6,75.7z M121.2,75.7l8-9h10.6l2.7-3h8v9l-2.7,3H121.2z"/>
			<path class="st5" d="M155.7,75.7v-33h10.6v21L155.7,75.7z M158.3,75.7l8-9h10.6l2.7-3h8v9l-2.7,3H158.3z"/>
			<path class="st5" d="M192.8,75.7v-9l21.2-24h13.3v33h-10.6v-3h-15.9l-2.7,3H192.8z M216.7,66.7v-9l2.7-3v-3l-13.3,15H216.7z"/>
			<path class="st5" d="M230,75.7v-33l10.6,12v12h10.6l2.7-3h-5.3v-6h13.3v15l-2.7,3H230z M253.8,54.7l-2.7-3h-10.6l-8-9h26.5l2.7,3
				v9H253.8z"/>
			<path class="st5" d="M264.4,75.7v-33l10.6,12h13.3l-2.7-3H275l-8-9h26.5l2.7,3v15H275v6h10.6l2.7-3h8v9l-2.7,3H264.4z"/>
			<path class="st5" d="M314.8,75.7v-3l15.9-18h5.3v-3h-10.6l-2.7,3h-8v-6l5.3-6H344l2.7,3v6l-13.3,15h13.3v9H314.8z"/>
		</g>
	</g>
</g>
</svg>
