<?xml version="1.0" encoding="utf-8"?>
<!-- Generator: Adobe Illustrator 28.0.0, SVG Export Plug-In . SVG Version: 6.00 Build 0)  -->
<svg version="1.1" id="Layer_1" xmlns="http://www.w3.org/2000/svg" xmlns:xlink="http://www.w3.org/1999/xlink" x="0px" y="0px"
	 viewBox="0 0 341.5 113.3" style="enable-background:new 0 0 341.5 113.3;" xml:space="preserve">
<style type="text/css">
	.st0{opacity:0.71;}
	.st1{fill:#92B81B;}
	.st2{fill:#027CC3;}
	.st3{enable-background:new    ;}
	.st4{fill:#FFFFFF;}
	.st5{fill:none;stroke:#0000FF;stroke-miterlimit:10;}
</style>
<g>
	<g id="Layer_1_00000182523240064156057080000012455181061253144751_">
		<g class="st0">
			<polygon points="4.6,21.6 19.1,5.2 117.2,5.2 130.4,20.2 272.4,20.2 279.9,28.6 340.4,28.6 340.4,95.1 319.3,95.1 307.8,108.1 
				20,108.1 4.8,90.9 			"/>
		</g>
		<polygon class="st1" points="145.8,0.2 137.5,9.5 149.1,9.5 157.4,0.2 		"/>
		<polygon class="st1" points="169.1,0.2 160.8,9.5 172.5,9.5 180.7,0.2 		"/>
		<polygon class="st1" points="215.7,0.2 207.5,9.5 219.1,9.5 227.4,0.2 		"/>
		<polygon class="st1" points="192.4,0.2 184.1,9.5 195.8,9.5 204.1,0.2 		"/>
		<path class="st1" d="M308.3,109.4H19.5L3.7,91.5V91L3.5,21.1L18.7,4h99l13.2,15h142l7.5,8.5h61.2v68.9h-21.7L308.3,109.4z
			 M20.4,106.8h286.9l11.5-13h20.4V29.9h-59.8l-7.5-8.5H130l-13.2-15H19.6L5.8,22.1L6,90.4L20.4,106.8z"/>
		<polygon class="st2" points="340.4,16.4 287.4,16.4 278.8,6.6 234.2,6.6 234.2,4.1 279.7,4.1 288.4,13.9 340.4,13.9 		"/>
		<polygon class="st2" points="43.8,113.3 18.1,113.3 1.6,94.7 8.1,87.3 21.9,102.9 43.8,102.9 		"/>
		<polygon class="st2" points="309.7,113.3 182.3,113.3 182.3,102.9 305.9,102.9 317.4,89.8 340,89.8 340,100.3 321.2,100.3 		"/>
		<polygon class="st2" points="0.1,41.1 0,19.5 17.2,0 117.2,0 117.2,10.5 21,10.5 9.2,23.8 9.3,41.1 		"/>
		<g class="st3">
			<path class="st4" d="M45.9,75.7l-2.6-3v-6h7.9v1.5H67v-4.5H48.5l-5.3-6v-15h29l2.6,3v6H67v-1.5H51.2v7.5l2.6-3h15.8l5.3,6v15
				H45.9z"/>
			<path class="st4" d="M88.1,75.7V50.2h-2.6v1.5h-7.9v-6l2.6-3h26.4l2.6,3v6h-7.9v-1.5h-2.6v22.5l-2.6,3H88.1z"/>
			<path class="st4" d="M111.9,75.7v-30l2.6-3h29v30l-2.6,3H111.9z M135.6,66.7v-15h-15.8v15H135.6z"/>
			<path class="st4" d="M148.8,75.7l-2.6-3v-27l2.6-3h29l2.6,3v16.5l-4,4.5l4,4.5v4.5H170l-7.9-9h-5.3v9H148.8z M170,57.7v-6h-15.8
				l2.6,3v3H170z"/>
			<path class="st4" d="M183.2,75.7v-9l21.1-24h13.2v33h-10.6v-3h-15.8l-2.6,3H183.2z M206.9,66.7v-9l2.6-3v-3l-13.2,15H206.9z"/>
			<path class="st4" d="M220.1,75.7v-33l10.6,12v12h10.6l2.6-3h-5.3v-6h13.2v15l-2.6,3H220.1z M243.9,54.7l-2.6-3h-10.6l-7.9-9h26.4
				l2.6,3v9H243.9z"/>
			<path class="st4" d="M254.4,75.7v-33l10.6,12h13.2l-2.6-3H265l-7.9-9h26.4l2.6,3v15H265v6h10.6l2.6-3h7.9v9l-2.6,3H254.4z"/>
		</g>
		<g class="st3">
			<path class="st5" d="M45.9,75.7l-2.6-3v-6h7.9v1.5H67v-4.5H48.5l-5.3-6v-15h29l2.6,3v6H67v-1.5H51.2v7.5l2.6-3h15.8l5.3,6v15
				H45.9z"/>
			<path class="st5" d="M88.1,75.7V50.2h-2.6v1.5h-7.9v-6l2.6-3h26.4l2.6,3v6h-7.9v-1.5h-2.6v22.5l-2.6,3H88.1z"/>
			<path class="st5" d="M111.9,75.7v-30l2.6-3h29v30l-2.6,3H111.9z M135.6,66.7v-15h-15.8v15H135.6z"/>
			<path class="st5" d="M148.8,75.7l-2.6-3v-27l2.6-3h29l2.6,3v16.5l-4,4.5l4,4.5v4.5H170l-7.9-9h-5.3v9H148.8z M170,57.7v-6h-15.8
				l2.6,3v3H170z"/>
			<path class="st5" d="M183.2,75.7v-9l21.1-24h13.2v33h-10.6v-3h-15.8l-2.6,3H183.2z M206.9,66.7v-9l2.6-3v-3l-13.2,15H206.9z"/>
			<path class="st5" d="M220.1,75.7v-33l10.6,12v12h10.6l2.6-3h-5.3v-6h13.2v15l-2.6,3H220.1z M243.9,54.7l-2.6-3h-10.6l-7.9-9h26.4
				l2.6,3v9H243.9z"/>
			<path class="st5" d="M254.4,75.7v-33l10.6,12h13.2l-2.6-3H265l-7.9-9h26.4l2.6,3v15H265v6h10.6l2.6-3h7.9v9l-2.6,3H254.4z"/>
		</g>
	</g>
</g>
</svg>
