<?xml version="1.0" encoding="utf-8"?>
<!-- Generator: Adobe Illustrator 28.0.0, SVG Export Plug-In . SVG Version: 6.00 Build 0)  -->
<svg version="1.1" id="Layer_1" xmlns="http://www.w3.org/2000/svg" xmlns:xlink="http://www.w3.org/1999/xlink" x="0px" y="0px"
	 viewBox="0 0 378.1 113.2" style="enable-background:new 0 0 378.1 113.2;" xml:space="preserve">
<style type="text/css">
	.st0{opacity:0.71;}
	.st1{fill:#92B81B;}
	.st2{fill:#027CC3;}
	.st3{enable-background:new    ;}
	.st4{fill:#FFFFFF;}
	.st5{fill:none;stroke:#0000FF;stroke-miterlimit:10;}
</style>
<g>
	<g>
		<g class="st0">
			<polygon points="5.1,21.5 21.2,5.1 129.8,5.1 144.4,20 301.6,20 309.9,28.5 376.9,28.5 376.9,94.9 353.6,94.9 340.8,107.9 
				22.1,107.9 5.4,90.8 			"/>
		</g>
		<g>
			<g>
				<polygon class="st1" points="161.4,0 152.2,9.4 165.1,9.4 174.3,0 				"/>
			</g>
			<g>
				<polygon class="st1" points="187.2,0 178.1,9.4 191,9.4 200.1,0 				"/>
			</g>
			<g>
				<polygon class="st1" points="238.9,0 229.7,9.4 242.6,9.4 251.8,0 				"/>
			</g>
			<g>
				<polygon class="st1" points="213,0 203.9,9.4 216.8,9.4 226,0 				"/>
			</g>
		</g>
		<g>
			<path class="st1" d="M341.3,109.2H21.6L4.1,91.3v-0.5L3.9,21L20.7,3.8h109.6l14.6,15h157.2l8.3,8.5h67.7v69h-24.1L341.3,109.2z
				 M22.6,106.7h317.7l12.8-13h22.6V29.8h-66.3l-8.3-8.5H143.9l-14.6-15H21.7L6.4,22l0.2,68.2L22.6,106.7z"/>
		</g>
		<g>
			<polygon class="st2" points="376.9,16.3 318.3,16.3 308.7,6.5 259.4,6.5 259.4,3.9 309.7,3.9 319.3,13.7 376.9,13.7 			"/>
		</g>
		<g>
			<polygon class="st2" points="48.6,113.2 20,113.2 1.8,94.5 9,87.1 24.2,102.7 48.6,102.7 			"/>
		</g>
		<g>
			<polygon class="st2" points="342.9,113.2 201.9,113.2 201.9,102.7 338.7,102.7 351.4,89.7 376.5,89.7 376.5,100.1 355.7,100.1 
							"/>
		</g>
		<g>
			<polygon class="st2" points="0.1,40.9 0,19.3 19.1,-0.2 129.8,-0.2 129.8,10.3 23.3,10.3 10.2,23.6 10.3,40.9 			"/>
		</g>
	</g>
	<g>
		<g class="st3">
			<path class="st4" d="M45.9,75.6l-2.7-3v-6h8v1.5h15.9v-4.5H48.6l-5.3-6v-15h29.2l2.7,3v6h-8v-1.5H51.2v7.5l2.7-3h15.9l5.3,6v15
				H45.9z"/>
			<path class="st4" d="M88.3,75.6V50.1h-2.7v1.5h-8v-6l2.7-3h26.5l2.7,3v6h-8v-1.5h-2.7v22.5l-2.7,3H88.3z"/>
			<path class="st4" d="M114.9,75.6l-2.7-3v-27l2.7-3H144l2.7,3v16.5l-4,4.5l4,4.5v4.5h-10.6l-8-9h-5.3v9H114.9z M136.1,57.6v-6
				h-15.9l2.7,3v3H136.1z"/>
			<path class="st4" d="M149.3,75.6v-9l21.2-24h13.3v33h-10.6v-3h-15.9l-2.7,3H149.3z M173.2,66.6v-9l2.7-3v-3l-13.3,15H173.2z"/>
			<path class="st4" d="M186.5,75.6v-33l10.6,12v3h13.3v-3l-2.7-3h-10.6l-8-9h26.5l2.7,3v18l-2.7,3h-18.6v9H186.5z"/>
			<path class="st4" d="M221,75.6v-33l10.6,12v3h13.3v-3l-2.7-3h-10.6l-8-9h26.5l2.7,3v18l-2.7,3h-18.6v9H221z"/>
			<path class="st4" d="M258.1,75.6l-2.7-3v-30h8l2.7,3v30H258.1z"/>
			<path class="st4" d="M271.3,75.6l-2.7-3v-30h8l15.9,18v-3l-2.7-3v-9l2.7-3h8v30l-2.7,3h-5.3l-15.9-18v3l2.7,3v12H271.3z"/>
			<path class="st4" d="M303.2,75.6v-33l10.6,12v12h10.6l2.7-3h-5.3v-6H335v15l-2.7,3H303.2z M327,54.6l-2.7-3h-10.6l-8-9h26.5
				l2.7,3v9H327z"/>
		</g>
		<g class="st3">
			<path class="st5" d="M45.9,75.6l-2.7-3v-6h8v1.5h15.9v-4.5H48.6l-5.3-6v-15h29.2l2.7,3v6h-8v-1.5H51.2v7.5l2.7-3h15.9l5.3,6v15
				H45.9z"/>
			<path class="st5" d="M88.3,75.6V50.1h-2.7v1.5h-8v-6l2.7-3h26.5l2.7,3v6h-8v-1.5h-2.7v22.5l-2.7,3H88.3z"/>
			<path class="st5" d="M114.9,75.6l-2.7-3v-27l2.7-3H144l2.7,3v16.5l-4,4.5l4,4.5v4.5h-10.6l-8-9h-5.3v9H114.9z M136.1,57.6v-6
				h-15.9l2.7,3v3H136.1z"/>
			<path class="st5" d="M149.3,75.6v-9l21.2-24h13.3v33h-10.6v-3h-15.9l-2.7,3H149.3z M173.2,66.6v-9l2.7-3v-3l-13.3,15H173.2z"/>
			<path class="st5" d="M186.5,75.6v-33l10.6,12v3h13.3v-3l-2.7-3h-10.6l-8-9h26.5l2.7,3v18l-2.7,3h-18.6v9H186.5z"/>
			<path class="st5" d="M221,75.6v-33l10.6,12v3h13.3v-3l-2.7-3h-10.6l-8-9h26.5l2.7,3v18l-2.7,3h-18.6v9H221z"/>
			<path class="st5" d="M258.1,75.6l-2.7-3v-30h8l2.7,3v30H258.1z"/>
			<path class="st5" d="M271.3,75.6l-2.7-3v-30h8l15.9,18v-3l-2.7-3v-9l2.7-3h8v30l-2.7,3h-5.3l-15.9-18v3l2.7,3v12H271.3z"/>
			<path class="st5" d="M303.2,75.6v-33l10.6,12v12h10.6l2.7-3h-5.3v-6H335v15l-2.7,3H303.2z M327,54.6l-2.7-3h-10.6l-8-9h26.5
				l2.7,3v9H327z"/>
		</g>
	</g>
</g>
</svg>
