<?xml version="1.0" encoding="utf-8"?>
<!-- Generator: Adobe Illustrator 28.0.0, SVG Export Plug-In . SVG Version: 6.00 Build 0)  -->
<svg version="1.1" id="Layer_1" xmlns="http://www.w3.org/2000/svg" xmlns:xlink="http://www.w3.org/1999/xlink" x="0px" y="0px"
	 viewBox="0 0 393.6 149.9" style="enable-background:new 0 0 393.6 149.9;" xml:space="preserve">
<style type="text/css">
	.st0{opacity:0.71;}
	.st1{fill:#92B81B;}
	.st2{fill:#027CC3;}
	.st3{enable-background:new    ;}
	.st4{fill:#FFFFFF;}
	.st5{fill:none;stroke:#0000FF;stroke-miterlimit:10;}
</style>
<g>
	<g>
		<g class="st0">
			<polygon points="5.3,28.8 22,7 135.1,7 150.3,26.9 313.9,26.9 322.5,38.1 392.3,38.1 392.3,126.5 368,126.5 354.7,143.9 
				23,143.9 5.6,121 			"/>
		</g>
		<g>
			<g>
				<polygon class="st1" points="168,0.2 158.5,12.7 171.9,12.7 181.4,0.2 				"/>
			</g>
			<g>
				<polygon class="st1" points="194.8,0.2 185.3,12.7 198.8,12.7 208.3,0.2 				"/>
			</g>
			<g>
				<polygon class="st1" points="248.6,0.2 239.1,12.7 252.5,12.7 262.1,0.2 				"/>
			</g>
			<g>
				<polygon class="st1" points="221.7,0.2 212.2,12.7 225.6,12.7 235.2,0.2 				"/>
			</g>
		</g>
		<g>
			<path class="st1" d="M355.3,145.6H22.5L4.3,121.8v-0.7L4,28.1L21.5,5.3h114.1l15.2,19.9h163.6l8.6,11.2h70.5v91.8h-25
				L355.3,145.6z M23.6,142.2h330.6l13.3-17.4H391v-85h-69l-8.6-11.2H149.8l-15.3-20H22.6l-16,20.9l0.2,90.8L23.6,142.2z"/>
		</g>
		<g>
			<polygon class="st2" points="392.3,21.9 331.2,21.9 321.3,8.8 269.9,8.8 269.9,5.4 322.3,5.4 332.3,18.5 392.3,18.5 			"/>
		</g>
		<g>
			<polygon class="st2" points="50.5,150.8 20.8,150.8 1.8,126 9.3,116.1 25.2,136.9 50.5,136.9 			"/>
		</g>
		<g>
			<polygon class="st2" points="356.9,150.8 210.1,150.8 210.1,136.9 352.5,136.9 365.8,119.6 391.8,119.6 391.8,133.5 370.2,133.5 
							"/>
		</g>
		<g>
			<polygon class="st2" points="0.1,54.7 0,25.9 19.8,0 135.1,0 135.1,13.9 24.2,13.9 10.7,31.7 10.7,54.7 			"/>
		</g>
	</g>
	<g>
		<g class="st3">
			<path class="st4" d="M99.3,75.7l-2.7-3v-6h8v1.5h15.9v-4.5H102l-5.3-6v-15h29.2l2.7,3v6h-8v-1.5h-15.9v7.5l2.7-3h15.9l5.3,6v15
				H99.3z"/>
			<path class="st4" d="M145.8,75.7l-14.6-33h9.3l11.9,27h1.3l-2.7,6H145.8z M169.6,75.7l-9.3-21l-5.3,12h-2.7l-4-9h1.3l6.6-15h8
				l11.9,27h1.3l-2.7,6H169.6z M176.3,66.7l-4-9h1.3l6.6-15h9.3l-10.6,24H176.3z"/>
			<path class="st4" d="M192.2,75.7v-9l21.2-24h13.3v33H216v-3h-15.9l-2.7,3H192.2z M216,66.7v-9l2.7-3v-3l-13.3,15H216z"/>
			<path class="st4" d="M232,75.7l-2.7-3v-27l2.7-3h29.2l2.7,3v16.5l-4,4.5l4,4.5v4.5h-10.6l-8-9h-5.3v9H232z M253.2,57.7v-6h-15.9
				l2.7,3v3H253.2z"/>
			<path class="st4" d="M266.4,75.7v-33l10.6,12v3h8v6l-2.7,3H277v9H266.4z M290.3,54.7l-2.7-3H277l-8-9h26.5l2.7,3v9H290.3z"/>
		</g>
		<g class="st3">
			<path class="st5" d="M99.3,75.7l-2.7-3v-6h8v1.5h15.9v-4.5H102l-5.3-6v-15h29.2l2.7,3v6h-8v-1.5h-15.9v7.5l2.7-3h15.9l5.3,6v15
				H99.3z"/>
			<path class="st5" d="M145.8,75.7l-14.6-33h9.3l11.9,27h1.3l-2.7,6H145.8z M169.6,75.7l-9.3-21l-5.3,12h-2.7l-4-9h1.3l6.6-15h8
				l11.9,27h1.3l-2.7,6H169.6z M176.3,66.7l-4-9h1.3l6.6-15h9.3l-10.6,24H176.3z"/>
			<path class="st5" d="M192.2,75.7v-9l21.2-24h13.3v33H216v-3h-15.9l-2.7,3H192.2z M216,66.7v-9l2.7-3v-3l-13.3,15H216z"/>
			<path class="st5" d="M232,75.7l-2.7-3v-27l2.7-3h29.2l2.7,3v16.5l-4,4.5l4,4.5v4.5h-10.6l-8-9h-5.3v9H232z M253.2,57.7v-6h-15.9
				l2.7,3v3H253.2z"/>
			<path class="st5" d="M266.4,75.7v-33l10.6,12v3h8v6l-2.7,3H277v9H266.4z M290.3,54.7l-2.7-3H277l-8-9h26.5l2.7,3v9H290.3z"/>
		</g>
		<g class="st3">
			<path class="st4" d="M47.6,120.7v-33h26.5l5.3,6v9l-1.3,1.5l1.3,1.5v12l-2.7,3H52.9l8-9h10.6l-2.7-3H55.6l2.7,3l-8,9H47.6z
				 M71.5,99.7l-2.7-3H55.6l2.7,3H71.5z"/>
			<path class="st4" d="M84.8,120.7l-2.7-3v-27l2.7-3h29.2l2.7,3v16.5l-4,4.5l4,4.5v4.5H106l-8-9h-5.3v9H84.8z M106,102.7v-6H90.1
				l2.7,3v3H106z"/>
			<path class="st4" d="M121.9,120.7l-2.7-3v-30h8l2.7,3v30H121.9z"/>
			<path class="st4" d="M132.5,120.7v-30l2.7-3h29.2v30l-2.7,3H159l-8-9v-6h5.3v-9h-15.9v15h8l8,9H132.5z"/>
			<path class="st4" d="M169.6,120.7l-2.7-3v-27l2.7-3h5.3v24h13.3l6.6,7.5l-1.3,1.5H169.6z M196.2,117.7l-8-9v-21h8V117.7z"/>
			<path class="st4" d="M198.8,120.7v-33l10.6,12h13.3l-2.7-3h-10.6l-8-9H228l2.7,3v15h-21.2v6H220l2.7-3h8v9l-2.7,3H198.8z"/>
			<path class="st4" d="M243.9,120.7V95.2h-2.7v1.5h-8v-6l2.7-3h26.5l2.7,3v6h-8v-1.5h-2.7v22.5l-2.7,3H243.9z"/>
			<path class="st4" d="M278.4,120.7V95.2h-2.7v1.5h-8v-6l2.7-3h26.5l2.7,3v6h-8v-1.5H289v22.5l-2.7,3H278.4z"/>
			<path class="st4" d="M304.9,120.7l-2.7-3v-30h8l2.7,3v30H304.9z"/>
			<path class="st4" d="M318.2,120.7l-2.7-3v-30h8l15.9,18v-3l-2.7-3v-9l2.7-3h8v30l-2.7,3h-5.3l-15.9-18v3l2.7,3v12H318.2z"/>
		</g>
		<g class="st3">
			<path class="st5" d="M47.6,120.7v-33h26.5l5.3,6v9l-1.3,1.5l1.3,1.5v12l-2.7,3H52.9l8-9h10.6l-2.7-3H55.6l2.7,3l-8,9H47.6z
				 M71.5,99.7l-2.7-3H55.6l2.7,3H71.5z"/>
			<path class="st5" d="M84.8,120.7l-2.7-3v-27l2.7-3h29.2l2.7,3v16.5l-4,4.5l4,4.5v4.5H106l-8-9h-5.3v9H84.8z M106,102.7v-6H90.1
				l2.7,3v3H106z"/>
			<path class="st5" d="M121.9,120.7l-2.7-3v-30h8l2.7,3v30H121.9z"/>
			<path class="st5" d="M132.5,120.7v-30l2.7-3h29.2v30l-2.7,3H159l-8-9v-6h5.3v-9h-15.9v15h8l8,9H132.5z"/>
			<path class="st5" d="M169.6,120.7l-2.7-3v-27l2.7-3h5.3v24h13.3l6.6,7.5l-1.3,1.5H169.6z M196.2,117.7l-8-9v-21h8V117.7z"/>
			<path class="st5" d="M198.8,120.7v-33l10.6,12h13.3l-2.7-3h-10.6l-8-9H228l2.7,3v15h-21.2v6H220l2.7-3h8v9l-2.7,3H198.8z"/>
			<path class="st5" d="M243.9,120.7V95.2h-2.7v1.5h-8v-6l2.7-3h26.5l2.7,3v6h-8v-1.5h-2.7v22.5l-2.7,3H243.9z"/>
			<path class="st5" d="M278.4,120.7V95.2h-2.7v1.5h-8v-6l2.7-3h26.5l2.7,3v6h-8v-1.5H289v22.5l-2.7,3H278.4z"/>
			<path class="st5" d="M304.9,120.7l-2.7-3v-30h8l2.7,3v30H304.9z"/>
			<path class="st5" d="M318.2,120.7l-2.7-3v-30h8l15.9,18v-3l-2.7-3v-9l2.7-3h8v30l-2.7,3h-5.3l-15.9-18v3l2.7,3v12H318.2z"/>
		</g>
	</g>
</g>
</svg>
