<?xml version="1.0" encoding="utf-8"?>
<!-- Generator: Adobe Illustrator 28.0.0, SVG Export Plug-In . SVG Version: 6.00 Build 0)  -->
<svg version="1.1" id="Layer_1" xmlns="http://www.w3.org/2000/svg" xmlns:xlink="http://www.w3.org/1999/xlink" x="0px" y="0px"
	 viewBox="0 0 275.9 113.2" style="enable-background:new 0 0 275.9 113.2;" xml:space="preserve">
<style type="text/css">
	.st0{opacity:0.71;}
	.st1{fill:#92B81B;}
	.st2{fill:#027CC3;}
	.st3{enable-background:new    ;}
	.st4{fill:#FFFFFF;}
	.st5{fill:none;stroke:#0000FF;stroke-miterlimit:10;}
</style>
<g>
	<g>
		<g class="st0">
			<polygon points="3.7,21.5 15.5,5.1 94.7,5.1 105.4,20 220.1,20 226.1,28.5 275,28.5 275,94.9 258,94.9 248.7,107.9 16.1,107.9 
				3.9,90.8 			"/>
		</g>
		<g>
			<g>
				<polygon class="st1" points="117.8,0 111.1,9.4 120.5,9.4 127.2,0 				"/>
			</g>
			<g>
				<polygon class="st1" points="136.6,0 129.9,9.4 139.4,9.4 146,0 				"/>
			</g>
			<g>
				<polygon class="st1" points="174.3,0 167.6,9.4 177.1,9.4 183.7,0 				"/>
			</g>
			<g>
				<polygon class="st1" points="155.5,0 148.8,9.4 158.2,9.4 164.9,0 				"/>
			</g>
		</g>
		<g>
			<path class="st1" d="M249.1,109.2H15.8L3,91.3v-0.5L2.8,21L15.1,3.8h80l10.7,15h114.7l6,8.5h49.4v69h-17.5L249.1,109.2z
				 M16.5,106.7h231.8l9.3-13h16.5V29.8h-48.4l-6-8.5H105l-10.7-15H15.8L4.6,22l0.2,68.2L16.5,106.7z"/>
		</g>
		<g>
			<polygon class="st2" points="275,16.3 232.2,16.3 225.2,6.5 189.3,6.5 189.3,3.9 226,3.9 233,13.7 275,13.7 			"/>
		</g>
		<g>
			<polygon class="st2" points="35.4,113.2 14.6,113.2 1.3,94.5 6.6,87.1 17.7,102.7 35.4,102.7 			"/>
		</g>
		<g>
			<polygon class="st2" points="250.2,113.2 147.3,113.2 147.3,102.7 247.1,102.7 256.4,89.7 274.7,89.7 274.7,100.1 259.5,100.1 
							"/>
		</g>
		<g>
			<polygon class="st2" points="0.1,40.9 0,19.3 13.9,-0.2 94.7,-0.2 94.7,10.3 17,10.3 7.5,23.6 7.5,40.9 			"/>
		</g>
	</g>
	<g>
		<g class="st3">
			<path class="st4" d="M82.7,80L64.4,38.7H76L91,72.5h1.7L89.3,80H82.7z M91,68.7l-5-11.2h1.7l8.3-18.8h11.6l-13.3,30H91z"/>
			<path class="st4" d="M110.9,80V38.7l13.3,15v15h13.3l3.3-3.8V53.7l-3.3-3.8h-13.3l-9.9-11.2H144l6.6,7.5v26.2L144,80H110.9z"/>
			<path class="st4" d="M154,80V38.7l13.3,15v15h13.3l3.3-3.8h9.9v11.2l-3.3,3.8H154z M183.8,53.7l-3.3-3.8h-13.3l-9.9-11.2h33.2
				l3.3,3.8v11.2H183.8z"/>
		</g>
		<g class="st3">
			<path class="st5" d="M82.7,80L64.4,38.7H76L91,72.5h1.7L89.3,80H82.7z M91,68.7l-5-11.2h1.7l8.3-18.8h11.6l-13.3,30H91z"/>
			<path class="st5" d="M110.9,80V38.7l13.3,15v15h13.3l3.3-3.8V53.7l-3.3-3.8h-13.3l-9.9-11.2H144l6.6,7.5v26.2L144,80H110.9z"/>
			<path class="st5" d="M154,80V38.7l13.3,15v15h13.3l3.3-3.8h9.9v11.2l-3.3,3.8H154z M183.8,53.7l-3.3-3.8h-13.3l-9.9-11.2h33.2
				l3.3,3.8v11.2H183.8z"/>
		</g>
	</g>
</g>
</svg>
